<?xml version="1.0" standalone="no"?>
<!DOCTYPE svg PUBLIC "-//W3C//DTD SVG 1.1//EN" "http://www.w3.org/Graphics/SVG/1.1/DTD/svg11.dtd" >
<svg xmlns="http://www.w3.org/2000/svg">
<metadata></metadata>
<defs>
<font id="noto_sansregular" horiz-adv-x="1171" >
<font-face units-per-em="2048" ascent="1638" descent="-410" />
<missing-glyph horiz-adv-x="532" />
<glyph horiz-adv-x="0" />
<glyph horiz-adv-x="0" />
<glyph unicode="&#xd;" horiz-adv-x="1044" />
<glyph unicode=" "  horiz-adv-x="532" />
<glyph unicode="&#x09;" horiz-adv-x="532" />
<glyph unicode="&#xa0;" horiz-adv-x="532" />
<glyph unicode="!" horiz-adv-x="551" d="M147 111q0 66 32.5 101.5t94.5 35.5t94.5 -36.5t32.5 -100.5t-33.5 -102t-93.5 -38q-61 0 -94 37t-33 103zM166 1462h219l-51 -1050h-117z" />
<glyph unicode="&#x22;" horiz-adv-x="836" d="M133 1462h195l-41 -528h-113zM508 1462h194l-40 -528h-113z" />
<glyph unicode="#" horiz-adv-x="1323" d="M51 428v137h285l65 328h-274v135h299l82 434h147l-82 -434h295l82 434h142l-82 -434h260v-135h-287l-63 -328h280v-137h-307l-84 -428h-145l84 428h-293l-80 -428h-144l78 428h-258zM481 565h293l64 328h-293z" />
<glyph unicode="$" d="M127 168v168q75 -35 183.5 -60.5t207.5 -27.5v428q-205 65 -290 152.5t-85 224.5q0 132 101 217t274 104v180h131v-178q190 -5 361 -76l-56 -141q-155 61 -305 72v-422q160 -54 238.5 -102t115.5 -109.5t37 -148.5q0 -137 -101.5 -227t-289.5 -113v-228h-131v219 q-114 2 -218.5 19.5t-172.5 48.5zM326 1055q0 -73 43 -118t149 -83v373q-94 -16 -143 -61t-49 -111zM649 258q209 32 209 178q0 72 -47 114.5t-162 82.5v-375z" />
<glyph unicode="%" horiz-adv-x="1702" d="M100 1026q0 229 76.5 343t222.5 114q147 0 227.5 -118.5t80.5 -338.5q0 -228 -78.5 -344.5t-229.5 -116.5q-142 0 -220.5 119.5t-78.5 341.5zM250 1026q0 -165 35.5 -248.5t113.5 -83.5q158 0 158 332q0 330 -158 330q-78 0 -113.5 -82.5t-35.5 -247.5zM367 0l811 1462 h157l-811 -1462h-157zM995 440q0 229 76 343t223 114t227.5 -118.5t80.5 -338.5q0 -227 -79 -343.5t-229 -116.5q-142 0 -220.5 119.5t-78.5 340.5zM1145 440q0 -167 35.5 -249t113.5 -82q81 0 119.5 81.5t38.5 249.5q0 328 -158 328q-78 0 -113.5 -81.5t-35.5 -246.5z" />
<glyph unicode="&#x26;" horiz-adv-x="1499" d="M109 381q0 130 67 228t248 202q-77 87 -109.5 137.5t-50.5 104t-18 112.5q0 148 99 234t278 86q165 0 259.5 -84t94.5 -232q0 -109 -68.5 -200t-224.5 -183l395 -380q93 108 144 325h182q-69 -285 -209 -440l299 -291h-244l-178 172q-114 -102 -235.5 -147t-268.5 -45 q-215 0 -337.5 105t-122.5 296zM297 387q0 -113 77 -180.5t201 -67.5q227 0 383 146l-426 413q-138 -83 -186.5 -151t-48.5 -160zM422 1167q0 -65 35.5 -130t115.5 -144q124 69 175 132t51 144q0 76 -51 122t-132 46q-89 0 -141.5 -47t-52.5 -123z" />
<glyph unicode="'" horiz-adv-x="461" d="M133 1462h195l-41 -528h-113z" />
<glyph unicode="(" horiz-adv-x="614" d="M82 561q0 265 77.5 496t223.5 405h170q-144 -193 -216.5 -424t-72.5 -475q0 -240 74 -469t213 -418h-168q-147 170 -224 397t-77 488z" />
<glyph unicode=")" horiz-adv-x="614" d="M61 1462h170q147 -175 224 -406.5t77 -494.5t-77.5 -490t-223.5 -395h-168q139 188 213 417.5t74 469.5q0 244 -72.5 475t-216.5 424z" />
<glyph unicode="*" horiz-adv-x="1128" d="M84 1085l29 189l389 -111l-43 393h200l-41 -393l394 111l28 -189l-376 -30l243 -324l-176 -96l-174 358l-158 -358l-182 96l240 324z" />
<glyph unicode="+" d="M102 649v146h408v424h147v-424h408v-146h-408v-422h-147v422h-408z" />
<glyph unicode="," horiz-adv-x="549" d="M84 -264q65 250 102 502h193l14 -23q-55 -214 -176 -479h-133z" />
<glyph unicode="-" horiz-adv-x="659" d="M82 469v160h496v-160h-496z" />
<glyph unicode="." horiz-adv-x="549" d="M147 111q0 66 32.5 101.5t92.5 35.5q61 0 95 -35.5t34 -101.5q0 -65 -34 -102.5t-95 -37.5q-59 0 -92 37t-33 103z" />
<glyph unicode="/" horiz-adv-x="762" d="M20 0l545 1462h176l-544 -1462h-177z" />
<glyph unicode="0" d="M100 733q0 382 118.5 567t365.5 185q238 0 362.5 -192t124.5 -560q0 -381 -120.5 -567t-366.5 -186q-238 0 -361 191.5t-123 561.5zM281 733q0 -318 72.5 -459t230.5 -141q160 0 232.5 144.5t72.5 455.5q0 308 -72.5 453t-232.5 145t-231.5 -142t-71.5 -456z" />
<glyph unicode="1" d="M182 1155l396 307h149v-1462h-176v1022q0 136 8 252q-28 -30 -60 -56q-102 -85 -223 -184z" />
<glyph unicode="2" d="M98 0v150l383 387q173 175 229 250t83.5 145t27.5 151q0 116 -69 181t-189 65q-90 0 -170.5 -30t-181.5 -109l-96 121q205 172 448 172q204 0 323.5 -104.5t119.5 -284.5q0 -96 -35 -185.5t-105 -182t-235 -253.5l-305 -301v-8h739v-164h-967z" />
<glyph unicode="3" d="M92 59v168q93 -46 199 -71t205 -25q370 0 370 289q0 258 -409 258h-142v153h144q172 0 269 73.5t97 203.5q0 105 -70.5 164t-195.5 59q-97 0 -179.5 -26.5t-189.5 -96.5l-90 123q90 71 207.5 111.5t249.5 40.5q214 0 333.5 -97.5t119.5 -265.5q0 -140 -78.5 -230 t-224.5 -120v-8q175 -22 261.5 -112t86.5 -234q0 -209 -145 -322.5t-416 -113.5q-116 0 -213.5 17t-188.5 62z" />
<glyph unicode="4" d="M43 332v153l688 985h187v-976h212v-162h-212v-332h-175v332h-700zM219 494h524v460q0 137 11 324h-9q-11 -26 -38.5 -78t-49.5 -82z" />
<glyph unicode="5" d="M129 59v170q74 -44 178 -70t203 -26q172 0 266 82t94 234q0 296 -366 296q-118 0 -250 -30l-90 57l55 690h733v-164h-579l-35 -424q115 23 225 23q229 0 360.5 -115t131.5 -315q0 -228 -145 -357.5t-402 -129.5q-245 0 -379 79z" />
<glyph unicode="6" d="M113 625q0 858 669 858q116 0 181 -19v-153q-76 24 -177 24q-233 0 -356.5 -142t-136.5 -450h12q110 172 346 172q198 0 311 -120t113 -324q0 -227 -125 -359t-340 -132q-150 0 -262.5 76t-173.5 222.5t-61 346.5zM295 506q0 -100 40 -187.5t111 -137.5t162 -50 q139 0 214 89t75 251q0 146 -73 224.5t-210 78.5q-87 0 -159.5 -36t-116 -100t-43.5 -132z" />
<glyph unicode="7" d="M90 1298v164h981v-139l-594 -1323h-198l600 1298h-789z" />
<glyph unicode="8" d="M100 373q0 250 303 391q-136 78 -196 168t-60 203q0 159 119.5 253.5t317.5 94.5q200 0 319 -93t119 -257q0 -110 -66.5 -197t-212.5 -162q177 -86 251.5 -179.5t74.5 -215.5q0 -182 -129 -290.5t-350 -108.5q-234 0 -362 102t-128 291zM276 371q0 -116 82.5 -182 t227.5 -66q143 0 225 67.5t82 186.5q0 96 -78 171t-262 142q-145 -62 -211 -138t-66 -181zM324 1126q0 -63 27 -111t78 -86t163 -85q137 57 194.5 125t57.5 157q0 100 -71 155.5t-191 55.5q-118 0 -188 -56t-70 -155z" />
<glyph unicode="9" d="M102 989q0 226 127 360t340 134q150 0 262.5 -76.5t173 -223t60.5 -345.5q0 -858 -672 -858q-116 0 -184 20v154q77 -27 180 -27q163 0 269 65.5t161.5 191t63.5 333.5h-13q-112 -170 -348 -170q-193 0 -306.5 117.5t-113.5 324.5zM281 991q0 -146 71.5 -223.5 t208.5 -77.5q90 0 164 36.5t116 98.5t42 131q0 100 -39.5 187t-110.5 137.5t-164 50.5q-136 0 -212 -89t-76 -251z" />
<glyph unicode=":" horiz-adv-x="549" d="M147 111q0 66 32.5 101.5t92.5 35.5q61 0 95 -35.5t34 -101.5q0 -65 -34 -102.5t-95 -37.5q-59 0 -92 37t-33 103zM147 987q0 66 31.5 102.5t93.5 36.5q63 0 96 -36t33 -103q0 -64 -34 -101.5t-95 -37.5q-59 0 -92 37t-33 102z" />
<glyph unicode=";" horiz-adv-x="549" d="M63 -264q27 104 59.5 257t45.5 245h192l15 -23q-52 -199 -176 -479h-136zM143 987q0 66 31.5 102.5t93.5 36.5q129 0 129 -139q0 -66 -34 -102.5t-95 -36.5q-59 0 -92 37t-33 102z" />
<glyph unicode="&#x3c;" d="M102 662v102l965 481v-160l-772 -364l772 -324v-159z" />
<glyph unicode="=" d="M115 444v146h938v-146h-938zM115 852v145h938v-145h-938z" />
<glyph unicode="&#x3e;" d="M102 238v159l772 322l-772 366v160l965 -481v-102z" />
<glyph unicode="?" horiz-adv-x="889" d="M25 1382q190 101 403 101q190 0 299 -94.5t109 -264.5q0 -74 -20 -131t-60.5 -108t-161.5 -152q-99 -85 -131.5 -140.5t-32.5 -146.5v-34h-143v55q0 119 38 193.5t134 154.5q109 92 143 132t48 80t14 93q0 99 -64 152t-184 53q-80 0 -156.5 -20t-171.5 -66zM240 111 q0 137 127 137q58 0 91.5 -34.5t33.5 -102.5q0 -67 -34 -103.5t-91 -36.5q-56 0 -91.5 33t-35.5 107z" />
<glyph unicode="@" horiz-adv-x="1841" d="M119 573q0 259 107.5 462.5t305.5 315t455 111.5q215 0 383.5 -91t260 -258t91.5 -382q0 -140 -44.5 -258t-124.5 -184t-185 -66q-85 0 -143 49.5t-72 128.5h-10q-39 -83 -114 -130.5t-175 -47.5q-152 0 -239 101.5t-87 279.5q0 133 53.5 238.5t153.5 164t228 58.5 q69 0 157.5 -12.5t155.5 -36.5l-23 -468v-22q0 -176 127 -176q89 0 144 105t55 278q0 179 -73.5 314t-209 207.5t-309.5 72.5q-220 0 -383.5 -91.5t-250.5 -261t-87 -394.5q0 -302 159 -464.5t462 -162.5q212 0 440 88v-139q-200 -84 -440 -84q-364 0 -566 199.5t-202 555.5 zM688 600q0 -250 193 -250q205 0 223 309l12 256q-73 21 -151 21q-129 0 -203 -89t-74 -247z" />
<glyph unicode="A" horiz-adv-x="1309" d="M0 0l571 1468h166l570 -1468h-191l-176 453h-580l-174 -453h-186zM422 616h463l-164 443l-70 219q-30 -120 -63 -219z" />
<glyph unicode="B" horiz-adv-x="1331" d="M199 0v1462h417q294 0 424.5 -87.5t130.5 -274.5q0 -130 -71 -214.5t-207 -109.5v-10q169 -29 248.5 -117t79.5 -233q0 -196 -134 -306t-374 -110h-514zM383 156h295q176 0 261 68t85 206q0 131 -90 193.5t-270 62.5h-281v-530zM383 840h270q172 0 250 55t78 184 q0 120 -85.5 173t-270.5 53h-242v-465z" />
<glyph unicode="C" horiz-adv-x="1294" d="M125 733q0 226 83.5 396t243 262t375.5 92q232 0 404 -86l-74 -156q-175 80 -332 80q-236 0 -371 -158t-135 -432q0 -283 131 -436.5t373 -153.5q156 0 351 58v-160q-93 -34 -179 -46.5t-198 -12.5q-323 0 -497.5 196.5t-174.5 556.5z" />
<glyph unicode="D" horiz-adv-x="1495" d="M199 0v1462h450q341 0 531 -187.5t190 -529.5q0 -362 -197.5 -553.5t-566.5 -191.5h-407zM383 158h199q594 0 594 581q0 279 -137.5 422.5t-415.5 143.5h-240v-1147z" />
<glyph unicode="E" horiz-adv-x="1139" d="M199 0v1462h817v-162h-633v-456h596v-160h-596v-522h633v-162h-817z" />
<glyph unicode="F" horiz-adv-x="1063" d="M199 0v1462h817v-162h-633v-518h594v-161h-594v-621h-184z" />
<glyph unicode="G" horiz-adv-x="1491" d="M125 731q0 229 91 400t262.5 261.5t404.5 90.5q234 0 436 -86l-70 -160q-193 84 -377 84q-261 0 -408 -158t-147 -432q0 -290 141 -441t410 -151q147 0 287 35v434h-321v164h505v-717q-116 -37 -236 -56t-278 -19q-334 0 -517 198t-183 553z" />
<glyph unicode="H" horiz-adv-x="1518" d="M199 0v1462h184v-618h750v618h184v-1462h-184v682h-750v-682h-184z" />
<glyph unicode="I" horiz-adv-x="694" d="M82 0v106l172 39v1170l-172 41v106h528v-106l-172 -41v-1170l172 -39v-106h-528z" />
<glyph unicode="J" horiz-adv-x="559" d="M-160 -207q71 -20 148 -20q100 0 150 60.5t50 174.5v1454h185v-1439q0 -198 -98.5 -305t-282.5 -107q-94 0 -152 27v155z" />
<glyph unicode="K" horiz-adv-x="1268" d="M199 0v1462h184v-721l126 139l521 582h215l-579 -637l602 -825h-217l-519 698l-149 -131v-567h-184z" />
<glyph unicode="L" horiz-adv-x="1073" d="M199 0v1462h184v-1298h639v-164h-823z" />
<glyph unicode="M" horiz-adv-x="1858" d="M199 0v1462h272l451 -1198h8l459 1198h270v-1462h-182v899q0 150 14 381h-8l-488 -1280h-151l-482 1282h-8q15 -160 15 -395v-887h-170z" />
<glyph unicode="N" horiz-adv-x="1556" d="M199 0v1462h213l45 -71l480 -742l255 -397h8q-2 24 -8 171.5t-6 213.5v825h172v-1462h-215l-783 1214h-8l5 -81q12 -182 12 -316v-817h-170z" />
<glyph unicode="O" horiz-adv-x="1599" d="M125 735q0 357 175.5 553.5t502.5 196.5q318 0 495 -199.5t177 -552.5q0 -351 -177.5 -552t-496.5 -201q-323 0 -499.5 197.5t-176.5 557.5zM319 733q0 -290 123 -442t359 -152q235 0 357 150t122 444q0 293 -121 441.5t-356 148.5q-238 0 -361 -150.5t-123 -439.5z" />
<glyph unicode="P" horiz-adv-x="1239" d="M199 0v1462h387q549 0 549 -430q0 -224 -153 -343.5t-431 -119.5h-168v-569h-184zM383 727h147q218 0 316 70.5t98 226.5q0 141 -91 211t-284 70h-186v-578z" />
<glyph unicode="Q" horiz-adv-x="1599" d="M125 735q0 357 175.5 553.5t502.5 196.5q318 0 495 -199.5t177 -552.5q0 -277 -111 -462t-315 -255l350 -364h-264l-283 330l-51 -2q-323 0 -499.5 197.5t-176.5 557.5zM319 733q0 -290 123 -442t359 -152q235 0 357 150t122 444q0 293 -121 441.5t-356 148.5 q-238 0 -361 -150.5t-123 -439.5z" />
<glyph unicode="R" horiz-adv-x="1274" d="M199 0v1462h403q272 0 402.5 -103.5t130.5 -311.5q0 -291 -293 -392l401 -655h-215l-354 604h-291v-604h-184zM383 760h219q178 0 260 70t82 208t-83 201.5t-269 63.5h-209v-543z" />
<glyph unicode="S" horiz-adv-x="1124" d="M104 49v176q93 -40 203.5 -63t206.5 -23q164 0 247 63t83 173q0 73 -30 120t-100.5 88t-213.5 93q-203 74 -290 174.5t-87 259.5q0 171 128.5 272t338.5 101q219 0 403 -82l-57 -158q-188 78 -350 78q-130 0 -203.5 -56t-73.5 -157q0 -72 28.5 -119.5t92 -86.5t199.5 -89 q163 -60 243 -116.5t118 -130t38 -175.5q0 -191 -138 -301t-384 -110q-260 0 -402 69z" />
<glyph unicode="T" horiz-adv-x="1139" d="M20 1300v162h1096v-162h-454v-1300h-185v1300h-457z" />
<glyph unicode="U" horiz-adv-x="1497" d="M184 520v942h185v-948q0 -179 95.5 -277t287.5 -98q181 0 278.5 97t97.5 280v946h183v-946q0 -250 -151 -393t-419 -143q-265 0 -411 144.5t-146 395.5z" />
<glyph unicode="V" horiz-adv-x="1229" d="M0 1462h193l329 -938q63 -178 92 -319q25 126 93 323l327 934h195l-522 -1462h-185z" />
<glyph unicode="W" horiz-adv-x="1905" d="M25 1462h192l227 -893q46 -175 70 -348q22 164 78 359l258 882h190l269 -889q52 -173 80 -352q16 138 71 350l226 891h192l-389 -1462h-186l-285 958q-63 214 -74 289q-16 -115 -70 -295l-276 -952h-186z" />
<glyph unicode="X" horiz-adv-x="1200" d="M8 0l486 762l-455 700h205l358 -573l361 573h194l-452 -696l487 -766h-209l-387 635l-393 -635h-195z" />
<glyph unicode="Y" horiz-adv-x="1159" d="M0 1462h201l379 -719l381 719h198l-487 -895v-567h-185v559z" />
<glyph unicode="Z" d="M78 0v139l770 1159h-746v164h969v-139l-770 -1159h791v-164h-1014z" />
<glyph unicode="[" horiz-adv-x="674" d="M164 -324v1786h459v-147h-283v-1491h283v-148h-459z" />
<glyph unicode="\" horiz-adv-x="762" d="M20 1462h177l546 -1462h-178z" />
<glyph unicode="]" horiz-adv-x="674" d="M51 -176h283v1491h-283v147h459v-1786h-459v148z" />
<glyph unicode="^" d="M78 547l434 926h102l480 -926h-160l-369 735l-327 -735h-160z" />
<glyph unicode="_" horiz-adv-x="909" d="M-4 -184h917v-131h-917v131z" />
<glyph unicode="`" horiz-adv-x="1188" d="M387 1548v21h215q32 -66 91 -157.5t106 -145.5v-25h-121q-75 60 -164.5 155.5t-126.5 151.5z" />
<glyph unicode="a" horiz-adv-x="1149" d="M94 305q0 334 527 350l186 7v65q0 125 -54 184.5t-173 59.5q-87 0 -164.5 -26t-145.5 -58l-55 135q83 44 181 69t194 25q199 0 296 -88t97 -280v-748h-131l-35 156h-8q-82 -103 -163.5 -139.5t-205.5 -36.5q-162 0 -254 85t-92 240zM281 303q0 -86 52.5 -132t147.5 -46 q151 0 237.5 81.5t86.5 231.5v99l-162 -7q-189 -7 -275.5 -60t-86.5 -167z" />
<glyph unicode="b" horiz-adv-x="1260" d="M174 0v1556h180v-378q0 -113 -10 -226h10q111 164 340 164q217 0 335 -149.5t118 -417.5q0 -272 -120 -420.5t-333 -148.5q-111 0 -198 40t-142 119h-14q-31 -120 -37 -139h-129zM354 547q0 -225 73.5 -321.5t240.5 -96.5q148 0 220.5 108.5t72.5 313.5q0 208 -73 312 t-224 104q-166 0 -238 -94t-72 -318v-8z" />
<glyph unicode="c" horiz-adv-x="983" d="M113 543q0 276 133.5 425.5t380.5 149.5q80 0 158.5 -16.5t129.5 -42.5l-55 -150q-139 52 -237 52q-166 0 -245 -104.5t-79 -311.5q0 -199 79 -304.5t234 -105.5q145 0 285 64v-160q-114 -59 -283 -59q-237 0 -369 145.5t-132 417.5z" />
<glyph unicode="d" horiz-adv-x="1260" d="M113 547q0 269 118.5 420t333.5 151q221 0 340 -162h13q-3 20 -8 80.5t-5 81.5v438h180v-1556h-145l-27 147h-8q-115 -167 -342 -167q-214 0 -332 148t-118 419zM299 543q0 -204 75.5 -309t217.5 -105q164 0 239.5 89.5t75.5 293.5v33q0 229 -76.5 326.5t-240.5 97.5 q-139 0 -215 -110.5t-76 -315.5z" />
<glyph unicode="e" horiz-adv-x="1155" d="M113 541q0 264 131 420.5t354 156.5q207 0 330 -133.5t123 -361.5v-109h-752q5 -187 95 -284t255 -97q88 0 167 15.5t185 60.5v-158q-91 -39 -171 -55t-189 -16q-247 0 -387.5 149.5t-140.5 411.5zM303 657h559q-2 154 -71 234t-195 80q-129 0 -204 -83t-89 -231z" />
<glyph unicode="f" horiz-adv-x="705" d="M31 958v84l192 62v63q0 200 87.5 300t269.5 100q105 0 213 -37l-48 -141q-93 30 -163 30q-91 0 -135 -60t-44 -190v-71h277v-140h-277v-958h-180v958h-192z" />
<glyph unicode="g" horiz-adv-x="1260" d="M113 547q0 265 120.5 418t329.5 153q223 0 344 -166h11l24 146h143v-1116q0 -236 -119.5 -355t-371.5 -119q-240 0 -395 70v166q160 -86 405 -86q140 0 221.5 82t81.5 227v43l6 135h-8q-111 -165 -340 -165q-213 0 -332.5 148.5t-119.5 418.5zM299 545q0 -204 73.5 -311 t219.5 -107q166 0 241.5 89.5t75.5 287.5v43q0 220 -76 320t-245 100q-138 0 -213.5 -109.5t-75.5 -312.5z" />
<glyph unicode="h" horiz-adv-x="1266" d="M174 0v1556h180v-456q0 -90 -10 -154h12q49 80 139 125t203 45q200 0 301 -95.5t101 -305.5v-715h-178v702q0 134 -59.5 199.5t-186.5 65.5q-167 0 -244.5 -93t-77.5 -307v-567h-180z" />
<glyph unicode="i" horiz-adv-x="528" d="M160 1395q0 60 30.5 87t75.5 27q42 0 73.5 -27t31.5 -87q0 -59 -31.5 -87t-73.5 -28q-45 0 -75.5 28t-30.5 87zM174 0v1098h180v-1098h-180z" />
<glyph unicode="j" horiz-adv-x="528" d="M-113 -322q69 -20 136 -20q78 0 114.5 42.5t36.5 129.5v1268h180v-1262q0 -164 -78.5 -246t-230.5 -82q-94 0 -158 25v145zM160 1395q0 60 30.5 87t75.5 27q42 0 73.5 -27t31.5 -87q0 -59 -31.5 -87t-73.5 -28q-45 0 -75.5 28t-30.5 87z" />
<glyph unicode="k" horiz-adv-x="1094" d="M174 0v1556h178v-813l-8 -178h8l61 78l70 84l351 371h210l-444 -469l475 -629h-217l-381 512l-125 -109v-403h-178z" />
<glyph unicode="l" horiz-adv-x="528" d="M174 0v1556h180v-1556h-180z" />
<glyph unicode="m" horiz-adv-x="1915" d="M174 0v1098h145l27 -150h10q47 80 132.5 125t191.5 45q258 0 336 -184h10q53 88 144.5 136t207.5 48q186 0 278.5 -96t92.5 -307v-715h-178v707q0 260 -223 260q-153 0 -225 -89t-72 -272v-606h-179v707q0 130 -54.5 195t-170.5 65q-152 0 -222.5 -93t-70.5 -305v-569 h-180z" />
<glyph unicode="n" horiz-adv-x="1266" d="M174 0v1098h145l27 -150h10q51 81 143 125.5t203 44.5q202 0 300 -98t98 -305v-715h-178v702q0 134 -59.5 199.5t-186.5 65.5q-169 0 -245.5 -93.5t-76.5 -304.5v-569h-180z" />
<glyph unicode="o" horiz-adv-x="1239" d="M113 551q0 268 134 417.5t376 149.5q232 0 368.5 -152.5t136.5 -414.5q0 -269 -136 -420t-376 -151q-149 0 -264 69.5t-177 199.5t-62 302zM299 551q0 -207 81.5 -314.5t240.5 -107.5q157 0 239 107.5t82 314.5t-82.5 311.5t-241.5 104.5q-319 0 -319 -416z" />
<glyph unicode="p" horiz-adv-x="1260" d="M174 -492v1590h148l24 -150h8q64 90 148 130t194 40q214 0 332.5 -148.5t118.5 -418.5q0 -269 -119 -420t-334 -151q-221 0 -340 159h-12l4 -41q8 -78 8 -139v-451h-180zM354 551q0 -223 74 -322.5t240 -99.5q138 0 215.5 112t77.5 312q0 201 -77.5 307.5t-219.5 106.5 q-163 0 -235.5 -92t-74.5 -289v-35z" />
<glyph unicode="q" horiz-adv-x="1260" d="M113 547q0 268 119.5 419.5t332.5 151.5q225 0 342 -170h8l27 150h143v-1590h-180v469q0 110 10 170h-12q-115 -167 -344 -167q-212 0 -329 150t-117 417zM299 543q0 -201 74.5 -307.5t220.5 -106.5q161 0 235 88t78 291v37q0 227 -76 325.5t-241 98.5q-141 0 -216 -111 t-75 -315z" />
<glyph unicode="r" horiz-adv-x="846" d="M174 0v1098h148l20 -201h8q63 109 149 165t187 56q73 0 129 -12l-22 -166q-61 14 -119 14q-87 0 -161.5 -48t-116.5 -132.5t-42 -187.5v-586h-180z" />
<glyph unicode="s" horiz-adv-x="981" d="M104 827q0 135 110 213t302 78q187 0 350 -74l-61 -143q-167 70 -301 70q-112 0 -170 -35.5t-58 -97.5q0 -60 50 -99.5t233 -109.5q137 -51 202.5 -95t96.5 -99t31 -132q0 -154 -115 -238.5t-323 -84.5q-217 0 -345 69v164q181 -88 349 -88q136 0 198 44t62 118 q0 65 -59.5 110t-211.5 103q-155 60 -218 102.5t-92.5 95.5t-29.5 129z" />
<glyph unicode="t" horiz-adv-x="739" d="M33 958v86l157 72l72 234h107v-252h317v-140h-317v-634q0 -95 45.5 -146t126.5 -51q35 0 82 7t71 16v-138q-25 -11 -77.5 -21.5t-106.5 -10.5q-322 0 -322 339v639h-155z" />
<glyph unicode="u" horiz-adv-x="1266" d="M162 379v719h182v-707q0 -133 59.5 -197.5t184.5 -64.5q169 0 246 94t77 303v572h181v-1098h-148l-26 145h-9q-49 -79 -139 -122t-209 -43q-198 0 -298.5 95t-100.5 304z" />
<glyph unicode="v" horiz-adv-x="1040" d="M0 1098h193l233 -647q69 -195 88 -291h8q3 13 7.5 29.5t10.5 36t74 225.5l234 647h192l-417 -1098h-207z" />
<glyph unicode="w" horiz-adv-x="1610" d="M23 1098h186q104 -405 158.5 -616t64.5 -298h8l14 62q31 143 60 233l195 619h196l189 -619q10 -35 21.5 -74.5t21.5 -78t18 -75t12 -65.5h9q9 76 73 326l154 586h184l-305 -1098h-211l-188 618q-26 77 -76 291h-8q-42 -195 -74 -293l-197 -616h-204z" />
<glyph unicode="x" horiz-adv-x="1083" d="M37 0l397 561l-379 537h205l283 -414l280 414h203l-379 -537l400 -561h-205l-299 438l-303 -438h-203z" />
<glyph unicode="y" horiz-adv-x="1044" d="M2 1098h193l237 -625q75 -204 92 -299h8q9 37 41 138.5t54 162.5l223 623h194l-473 -1250q-69 -182 -164 -261t-235 -79q-75 0 -149 17v143q50 -12 120 -12q86 0 146 47.5t98 146.5l57 146z" />
<glyph unicode="z" horiz-adv-x="963" d="M80 0v119l590 839h-555v140h753v-135l-581 -824h596v-139h-803z" />
<glyph unicode="{" horiz-adv-x="778" d="M57 496v149q132 2 191 48.5t59 142.5v303q0 155 107.5 239t298.5 84v-147q-116 -4 -172 -51t-56 -142v-295q0 -210 -223 -249v-13q115 -20 169 -82t54 -168v-301q0 -100 59 -144t169 -46v-148q-200 2 -303 86t-103 240v301q0 104 -64.5 148.5t-185.5 44.5z" />
<glyph unicode="|" horiz-adv-x="1128" d="M489 -494v2050h150v-2050h-150z" />
<glyph unicode="}" horiz-adv-x="778" d="M66 -176q227 4 227 192v297q0 211 223 250v12q-223 39 -223 250v299q0 100 -59 144.5t-168 46.5v147q198 -2 301.5 -84.5t103.5 -240.5v-299q0 -105 64 -149t186 -44v-149q-122 -2 -186 -45t-64 -146v-305q0 -154 -106.5 -239t-298.5 -85v148z" />
<glyph unicode="~" d="M102 588v160q100 108 246 108q70 0 129.5 -15.5t140.5 -49.5q73 -31 120 -43.5t93 -12.5q54 0 118 32t118 89v-158q-102 -110 -246 -110q-72 0 -135 16.5t-135 48.5q-73 32 -120 44t-95 12q-53 0 -116.5 -33.5t-117.5 -87.5z" />
<glyph unicode="&#xa1;" horiz-adv-x="551" d="M147 979q0 66 34 102.5t93 36.5t93 -36t34 -103t-32.5 -102t-94.5 -35t-94.5 34.5t-32.5 102.5zM162 -373l51 1049h119l51 -1049h-221z" />
<glyph unicode="&#xa2;" d="M186 741q0 508 398 570v172h139v-164q152 -6 270 -59l-53 -150q-143 53 -244 53q-167 0 -246 -104t-79 -316q0 -213 80 -310t237 -97q89 0 156.5 17.5t130.5 43.5v-157q-113 -57 -254 -62v-198h-137v204q-204 31 -301 169.5t-97 387.5z" />
<glyph unicode="&#xa3;" d="M66 0v152q202 47 202 288v215h-196v136h196v303q0 181 112.5 284t303.5 103q190 0 363 -84l-64 -144q-167 78 -295 78q-117 0 -178 -60.5t-61 -195.5v-284h417v-136h-417v-213q0 -96 -32.5 -164.5t-107.5 -113.5h787v-164h-1030z" />
<glyph unicode="&#xa5;" d="M29 1462h190l365 -714l366 714h189l-412 -768h254v-131h-309v-168h309v-131h-309v-264h-176v264h-310v131h310v168h-310v131h250z" />
<glyph unicode="&#xa7;" horiz-adv-x="1051" d="M121 57v154q87 -39 182 -61.5t172 -22.5q128 0 197 37t69 108q0 61 -53 100.5t-211 100.5q-197 73 -268.5 148t-71.5 188q0 87 43 154.5t119 103.5q-74 40 -115 96t-41 140q0 123 104 193.5t300 70.5q92 0 167.5 -14t182.5 -56l-55 -137q-97 39 -165 53t-142 14 q-115 0 -169.5 -29.5t-54.5 -90.5q0 -56 58 -98t213 -97q182 -67 257.5 -143.5t75.5 -184.5q0 -180 -153 -272q151 -80 151 -225q0 -142 -118 -219.5t-328 -77.5t-346 67zM291 829q0 -51 27 -88.5t87.5 -72.5t223.5 -97q131 76 131 187q0 81 -70 135.5t-252 112.5 q-65 -18 -106 -67.5t-41 -109.5z" />
<glyph unicode="&#xa8;" horiz-adv-x="1188" d="M305 1395q0 53 28 76.5t68 23.5q39 0 68 -23.5t29 -76.5t-29 -78t-68 -25q-40 0 -68 25t-28 78zM690 1395q0 53 28 76.5t66 23.5q39 0 68 -23.5t29 -76.5t-29 -78t-68 -25q-38 0 -66 25t-28 78z" />
<glyph unicode="&#xa9;" horiz-adv-x="1704" d="M100 731q0 200 100 375t275 276t377 101q200 0 375 -100t276 -275t101 -377q0 -197 -97 -370t-272 -277t-383 -104q-207 0 -382 103.5t-272.5 276.5t-97.5 371zM209 731q0 -172 86 -321t235.5 -235.5t321.5 -86.5t321 86t235.5 235.5t86.5 321.5t-86 321t-235.5 235.5 t-321.5 86.5t-321 -86t-235.5 -235.5t-86.5 -321.5zM479 731q0 209 111 333t301 124q130 0 252 -62l-60 -125q-106 54 -190 54q-119 0 -186.5 -85.5t-67.5 -238.5q0 -157 58.5 -241t193.5 -84q95 0 215 47v-131q-60 -27 -109 -38.5t-114 -11.5q-193 0 -298.5 120t-105.5 339 z" />
<glyph unicode="&#xaa;" horiz-adv-x="731" d="M66 987q0 103 79 156t244 59l115 4v45q0 61 -39 91t-107 30q-100 0 -206 -53q-26 62 -46 100q122 60 256 60t201.5 -55t67.5 -177v-450h-96l-25 86q-94 -99 -234 -99q-97 0 -153.5 50t-56.5 153zM197 987q0 -98 110 -98q197 0 197 178v47l-98 -4q-111 -4 -160 -32.5 t-49 -90.5z" />
<glyph unicode="&#xab;" horiz-adv-x="1042" d="M82 526v27l344 412l129 -74l-287 -350l287 -351l-129 -75zM487 526v27l349 412l127 -74l-287 -350l287 -351l-127 -75z" />
<glyph unicode="&#xac;" d="M102 649v146h963v-533h-145v387h-818z" />
<glyph unicode="&#xad;" horiz-adv-x="659" d="M82 469v160h496v-160h-496z" />
<glyph unicode="&#xae;" horiz-adv-x="1704" d="M100 731q0 200 100 375t275 276t377 101q200 0 375 -100t276 -275t101 -377q0 -197 -97 -370t-272 -277t-383 -104q-207 0 -382 103.5t-272.5 276.5t-97.5 371zM209 731q0 -172 86 -321t235.5 -235.5t321.5 -86.5t321 86t235.5 235.5t86.5 321.5t-86 321t-235.5 235.5 t-321.5 86.5t-321 -86t-235.5 -235.5t-86.5 -321.5zM571 283v895h263q168 0 245.5 -65.5t77.5 -199.5q0 -83 -43 -143.5t-117 -89.5l238 -397h-176l-205 354h-127v-354h-156zM727 764h102q81 0 125.5 40t44.5 105q0 73 -41 105.5t-131 32.5h-100v-283z" />
<glyph unicode="&#xaf;" horiz-adv-x="1024" d="M-6 1556v136h1036v-136h-1036z" />
<glyph unicode="&#xb0;" horiz-adv-x="877" d="M123 1167q0 135 92 225.5t223 90.5q133 0 224.5 -92t91.5 -224q0 -131 -92 -222t-224 -91q-130 0 -222.5 89.5t-92.5 223.5zM246 1167q0 -79 57.5 -135.5t136.5 -56.5q81 0 136 57t55 135q0 80 -55 136.5t-136 56.5q-80 0 -137 -56t-57 -137z" />
<glyph unicode="&#xb1;" d="M102 0v145h963v-145h-963zM102 655v146h408v424h147v-424h408v-146h-408v-422h-147v422h-408z" />
<glyph unicode="&#xb4;" horiz-adv-x="1188" d="M387 1241v25q38 48 96.5 136.5t98.5 166.5h217v-21q-44 -64 -137 -161t-156 -146h-119z" />
<glyph unicode="&#xb5;" horiz-adv-x="1276" d="M174 -492v1590h180v-709q0 -260 246 -260q169 0 245.5 93.5t76.5 303.5v572h180v-1098h-146l-28 147h-10q-109 -167 -330 -167q-146 0 -236 92h-8q10 -74 10 -244v-320h-180z" />
<glyph unicode="&#xb6;" horiz-adv-x="1341" d="M113 1042q0 260 109 387t341 127h561v-1816h-118v1702h-209v-1702h-119v819q-62 -18 -146 -18q-216 0 -317.5 125t-101.5 376z" />
<glyph unicode="&#xb7;" horiz-adv-x="549" d="M147 723q0 65 32.5 102t92.5 37q62 0 95.5 -37.5t33.5 -101.5t-34 -101.5t-95 -37.5q-59 0 -92 37t-33 102z" />
<glyph unicode="&#xb8;" horiz-adv-x="461" d="M29 -369q36 -10 108 -10q75 0 113.5 19.5t38.5 70.5q0 89 -187 113l88 176h119l-53 -109q178 -38 178 -176q0 -99 -75.5 -153t-227.5 -54q-65 0 -102 11v112z" />
<glyph unicode="&#xba;" horiz-adv-x="770" d="M66 1133q0 165 84 255.5t237 90.5q149 0 234.5 -91t85.5 -255q0 -163 -86.5 -256t-237.5 -93q-145 0 -231 92.5t-86 256.5zM195 1133q0 -121 44 -180.5t146 -59.5q100 0 145 59.5t45 180.5t-45 179t-145 58t-145 -58t-45 -179z" />
<glyph unicode="&#xbb;" horiz-adv-x="1042" d="M80 190l287 351l-287 350l127 74l346 -412v-27l-346 -411zM485 190l287 351l-287 350l127 74l349 -412v-27l-349 -411z" />
<glyph unicode="&#xbf;" horiz-adv-x="889" d="M51 -37q0 73 20 129.5t61 107.5t161 154q103 90 133.5 145.5t30.5 143.5v33h145v-53q0 -117 -37 -192t-137 -159q-133 -111 -168 -166t-35 -139q0 -96 63.5 -150.5t182.5 -54.5q159 0 330 88l63 -145q-198 -98 -399 -98q-194 0 -304 93.5t-110 262.5zM397 979 q0 73 36.5 106t88.5 33q54 0 90.5 -33t36.5 -106q0 -137 -127 -137q-62 0 -93.5 35.5t-31.5 101.5z" />
<glyph unicode="&#xc0;" horiz-adv-x="1309" d="M0 0l571 1468h166l570 -1468h-191l-176 453h-580l-174 -453h-186zM333 1886v21h215q32 -66 91 -157.5t106 -145.5v-25h-121q-75 60 -164.5 155.5t-126.5 151.5zM422 616h463l-164 443l-70 219q-30 -120 -63 -219z" />
<glyph unicode="&#xc1;" horiz-adv-x="1309" d="M0 0l571 1468h166l570 -1468h-191l-176 453h-580l-174 -453h-186zM422 616h463l-164 443l-70 219q-30 -120 -63 -219zM526 1579v25q38 48 96.5 136.5t98.5 166.5h217v-21q-44 -64 -137 -161t-156 -146h-119z" />
<glyph unicode="&#xc2;" horiz-adv-x="1309" d="M0 0l571 1468h166l570 -1468h-191l-176 453h-580l-174 -453h-186zM299 1579v23q125 134 176.5 198t75.5 107h184q52 -101 256 -305v-23h-127q-90 53 -223 184q-131 -128 -219 -184h-123zM422 616h463l-164 443l-70 219q-30 -120 -63 -219z" />
<glyph unicode="&#xc3;" horiz-adv-x="1309" d="M0 0l571 1468h166l570 -1468h-191l-176 453h-580l-174 -453h-186zM270 1579q12 122 70 192t155 70q45 0 87.5 -18.5t81.5 -40t75 -40t68 -18.5q48 0 72.5 29.5t39.5 89.5h103q-12 -119 -70 -190.5t-154 -71.5q-43 0 -84 18.5t-80.5 40t-76 40t-70.5 18.5q-49 0 -74 -29.5 t-39 -89.5h-104zM422 616h463l-164 443l-70 219q-30 -120 -63 -219z" />
<glyph unicode="&#xc4;" horiz-adv-x="1309" d="M0 0l571 1468h166l570 -1468h-191l-176 453h-580l-174 -453h-186zM362 1733q0 53 28 76.5t68 23.5q39 0 68 -23.5t29 -76.5t-29 -78t-68 -25q-40 0 -68 25t-28 78zM422 616h463l-164 443l-70 219q-30 -120 -63 -219zM747 1733q0 53 28 76.5t66 23.5q39 0 68 -23.5 t29 -76.5t-29 -78t-68 -25q-38 0 -66 25t-28 78z" />
<glyph unicode="&#xc5;" horiz-adv-x="1309" d="M0 0l539 1386q-53 25 -83 75t-30 122q0 98 60 156.5t163 58.5q102 0 165 -59t63 -154q0 -69 -30 -118.5t-81 -73.5l541 -1393h-191l-176 453h-580l-174 -453h-186zM422 616h463l-164 443l-70 219q-30 -120 -63 -219zM535 1583q0 -54 29 -84.5t85 -30.5q51 0 83 30.5 t32 84.5t-32.5 84.5t-82.5 30.5q-49 0 -81.5 -30.5t-32.5 -84.5z" />
<glyph unicode="&#xc6;" horiz-adv-x="1804" d="M-2 0l694 1462h989v-162h-577v-456h538v-160h-538v-522h577v-162h-761v453h-512l-220 -453h-190zM479 616h441v682h-119z" />
<glyph unicode="&#xc7;" horiz-adv-x="1294" d="M125 733q0 226 83.5 396t243 262t375.5 92q232 0 404 -86l-74 -156q-175 80 -332 80q-236 0 -371 -158t-135 -432q0 -283 131 -436.5t373 -153.5q156 0 351 58v-160q-93 -34 -179 -46.5t-198 -12.5q-323 0 -497.5 196.5t-174.5 556.5zM545 -369q36 -10 108 -10 q75 0 113.5 19.5t38.5 70.5q0 89 -187 113l88 176h119l-53 -109q178 -38 178 -176q0 -99 -75.5 -153t-227.5 -54q-65 0 -102 11v112z" />
<glyph unicode="&#xc8;" horiz-adv-x="1139" d="M199 0v1462h817v-162h-633v-456h596v-160h-596v-522h633v-162h-817zM314 1886v21h215q32 -66 91 -157.5t106 -145.5v-25h-121q-75 60 -164.5 155.5t-126.5 151.5z" />
<glyph unicode="&#xc9;" horiz-adv-x="1139" d="M199 0v1462h817v-162h-633v-456h596v-160h-596v-522h633v-162h-817zM453 1579v25q38 48 96.5 136.5t98.5 166.5h217v-21q-44 -64 -137 -161t-156 -146h-119z" />
<glyph unicode="&#xca;" horiz-adv-x="1139" d="M199 0v1462h817v-162h-633v-456h596v-160h-596v-522h633v-162h-817zM255 1579v23q125 134 176.5 198t75.5 107h184q52 -101 256 -305v-23h-127q-90 53 -223 184q-131 -128 -219 -184h-123z" />
<glyph unicode="&#xcb;" horiz-adv-x="1139" d="M199 0v1462h817v-162h-633v-456h596v-160h-596v-522h633v-162h-817zM319 1733q0 53 28 76.5t68 23.5q39 0 68 -23.5t29 -76.5t-29 -78t-68 -25q-40 0 -68 25t-28 78zM704 1733q0 53 28 76.5t66 23.5q39 0 68 -23.5t29 -76.5t-29 -78t-68 -25q-38 0 -66 25t-28 78z" />
<glyph unicode="&#xcc;" horiz-adv-x="694" d="M60 1886v21h215q32 -66 91 -157.5t106 -145.5v-25h-121q-75 60 -164.5 155.5t-126.5 151.5zM82 0v106l172 39v1170l-172 41v106h528v-106l-172 -41v-1170l172 -39v-106h-528z" />
<glyph unicode="&#xcd;" horiz-adv-x="694" d="M82 0v106l172 39v1170l-172 41v106h528v-106l-172 -41v-1170l172 -39v-106h-528zM236 1579v25q38 48 96.5 136.5t98.5 166.5h217v-21q-44 -64 -137 -161t-156 -146h-119z" />
<glyph unicode="&#xce;" horiz-adv-x="694" d="M-3 1579v23q125 134 176.5 198t75.5 107h184q52 -101 256 -305v-23h-127q-90 53 -223 184q-131 -128 -219 -184h-123zM82 0v106l172 39v1170l-172 41v106h528v-106l-172 -41v-1170l172 -39v-106h-528z" />
<glyph unicode="&#xcf;" horiz-adv-x="694" d="M60 1733q0 53 28 76.5t68 23.5q39 0 68 -23.5t29 -76.5t-29 -78t-68 -25q-40 0 -68 25t-28 78zM82 0v106l172 39v1170l-172 41v106h528v-106l-172 -41v-1170l172 -39v-106h-528zM445 1733q0 53 28 76.5t66 23.5q39 0 68 -23.5t29 -76.5t-29 -78t-68 -25q-38 0 -66 25 t-28 78z" />
<glyph unicode="&#xd0;" horiz-adv-x="1495" d="M61 643v160h152v659h436q341 0 531 -188.5t190 -528.5q0 -359 -196.5 -552t-569.5 -193h-391v643h-152zM397 158h185q594 0 594 581q0 280 -139 423t-414 143h-226v-502h365v-160h-365v-485z" />
<glyph unicode="&#xd1;" horiz-adv-x="1556" d="M199 0v1462h213l45 -71l480 -742l255 -397h8q-2 24 -8 171.5t-6 213.5v825h172v-1462h-215l-783 1214h-8l5 -81q12 -182 12 -316v-817h-170zM412 1579q12 122 70 192t155 70q45 0 87.5 -18.5t81.5 -40t75 -40t68 -18.5q48 0 72.5 29.5t39.5 89.5h103q-12 -119 -70 -190.5 t-154 -71.5q-43 0 -84 18.5t-80.5 40t-76 40t-70.5 18.5q-49 0 -74 -29.5t-39 -89.5h-104z" />
<glyph unicode="&#xd2;" horiz-adv-x="1599" d="M125 735q0 357 175.5 553.5t502.5 196.5q318 0 495 -199.5t177 -552.5q0 -351 -177.5 -552t-496.5 -201q-323 0 -499.5 197.5t-176.5 557.5zM319 733q0 -290 123 -442t359 -152q235 0 357 150t122 444q0 293 -121 441.5t-356 148.5q-238 0 -361 -150.5t-123 -439.5z M506 1886v21h215q32 -66 91 -157.5t106 -145.5v-25h-121q-75 60 -164.5 155.5t-126.5 151.5z" />
<glyph unicode="&#xd3;" horiz-adv-x="1599" d="M125 735q0 357 175.5 553.5t502.5 196.5q318 0 495 -199.5t177 -552.5q0 -351 -177.5 -552t-496.5 -201q-323 0 -499.5 197.5t-176.5 557.5zM319 733q0 -290 123 -442t359 -152q235 0 357 150t122 444q0 293 -121 441.5t-356 148.5q-238 0 -361 -150.5t-123 -439.5z M657 1579v25q38 48 96.5 136.5t98.5 166.5h217v-21q-44 -64 -137 -161t-156 -146h-119z" />
<glyph unicode="&#xd4;" horiz-adv-x="1599" d="M125 735q0 357 175.5 553.5t502.5 196.5q318 0 495 -199.5t177 -552.5q0 -351 -177.5 -552t-496.5 -201q-323 0 -499.5 197.5t-176.5 557.5zM319 733q0 -290 123 -442t359 -152q235 0 357 150t122 444q0 293 -121 441.5t-356 148.5q-238 0 -361 -150.5t-123 -439.5z M440 1579v23q125 134 176.5 198t75.5 107h184q52 -101 256 -305v-23h-127q-90 53 -223 184q-131 -128 -219 -184h-123z" />
<glyph unicode="&#xd5;" horiz-adv-x="1599" d="M125 735q0 357 175.5 553.5t502.5 196.5q318 0 495 -199.5t177 -552.5q0 -351 -177.5 -552t-496.5 -201q-323 0 -499.5 197.5t-176.5 557.5zM319 733q0 -290 123 -442t359 -152q235 0 357 150t122 444q0 293 -121 441.5t-356 148.5q-238 0 -361 -150.5t-123 -439.5z M416 1579q12 122 70 192t155 70q45 0 87.5 -18.5t81.5 -40t75 -40t68 -18.5q48 0 72.5 29.5t39.5 89.5h103q-12 -119 -70 -190.5t-154 -71.5q-43 0 -84 18.5t-80.5 40t-76 40t-70.5 18.5q-49 0 -74 -29.5t-39 -89.5h-104z" />
<glyph unicode="&#xd6;" horiz-adv-x="1599" d="M125 735q0 357 175.5 553.5t502.5 196.5q318 0 495 -199.5t177 -552.5q0 -351 -177.5 -552t-496.5 -201q-323 0 -499.5 197.5t-176.5 557.5zM319 733q0 -290 123 -442t359 -152q235 0 357 150t122 444q0 293 -121 441.5t-356 148.5q-238 0 -361 -150.5t-123 -439.5z M516 1733q0 53 28 76.5t68 23.5q39 0 68 -23.5t29 -76.5t-29 -78t-68 -25q-40 0 -68 25t-28 78zM901 1733q0 53 28 76.5t66 23.5q39 0 68 -23.5t29 -76.5t-29 -78t-68 -25q-38 0 -66 25t-28 78z" />
<glyph unicode="&#xd8;" horiz-adv-x="1599" d="M125 735q0 357 175.5 553.5t502.5 196.5q204 0 364 -92l95 135l124 -84l-104 -146q193 -203 193 -565q0 -351 -177.5 -552t-496.5 -201q-232 0 -379 96l-98 -139l-125 81l106 152q-180 198 -180 565zM319 733q0 -259 97 -405l653 923q-109 72 -266 72q-238 0 -361 -150.5 t-123 -439.5zM520 217q114 -78 281 -78q235 0 357 150t122 444q0 264 -104 414z" />
<glyph unicode="&#xd9;" horiz-adv-x="1497" d="M184 520v942h185v-948q0 -179 95.5 -277t287.5 -98q181 0 278.5 97t97.5 280v946h183v-946q0 -250 -151 -393t-419 -143q-265 0 -411 144.5t-146 395.5zM453 1886v21h215q32 -66 91 -157.5t106 -145.5v-25h-121q-75 60 -164.5 155.5t-126.5 151.5z" />
<glyph unicode="&#xda;" horiz-adv-x="1497" d="M184 520v942h185v-948q0 -179 95.5 -277t287.5 -98q181 0 278.5 97t97.5 280v946h183v-946q0 -250 -151 -393t-419 -143q-265 0 -411 144.5t-146 395.5zM600 1579v25q38 48 96.5 136.5t98.5 166.5h217v-21q-44 -64 -137 -161t-156 -146h-119z" />
<glyph unicode="&#xdb;" horiz-adv-x="1497" d="M184 520v942h185v-948q0 -179 95.5 -277t287.5 -98q181 0 278.5 97t97.5 280v946h183v-946q0 -250 -151 -393t-419 -143q-265 0 -411 144.5t-146 395.5zM387 1579v23q125 134 176.5 198t75.5 107h184q52 -101 256 -305v-23h-127q-90 53 -223 184q-131 -128 -219 -184 h-123z" />
<glyph unicode="&#xdc;" horiz-adv-x="1497" d="M184 520v942h185v-948q0 -179 95.5 -277t287.5 -98q181 0 278.5 97t97.5 280v946h183v-946q0 -250 -151 -393t-419 -143q-265 0 -411 144.5t-146 395.5zM457 1733q0 53 28 76.5t68 23.5q39 0 68 -23.5t29 -76.5t-29 -78t-68 -25q-40 0 -68 25t-28 78zM842 1733 q0 53 28 76.5t66 23.5q39 0 68 -23.5t29 -76.5t-29 -78t-68 -25q-38 0 -66 25t-28 78z" />
<glyph unicode="&#xdd;" horiz-adv-x="1159" d="M0 1462h201l379 -719l381 719h198l-487 -895v-567h-185v559zM442 1579v25q38 48 96.5 136.5t98.5 166.5h217v-21q-44 -64 -137 -161t-156 -146h-119z" />
<glyph unicode="&#xde;" horiz-adv-x="1239" d="M199 0v1462h184v-254h197q281 0 418 -105.5t137 -320.5q0 -226 -150.5 -345.5t-435.5 -119.5h-166v-317h-184zM383 473h147q221 0 317.5 71t96.5 228q0 144 -91 211.5t-288 67.5h-182v-578z" />
<glyph unicode="&#xdf;" horiz-adv-x="1292" d="M174 0v1196q0 181 114 276t339 95q210 0 326 -80t116 -223q0 -139 -143 -251q-79 -62 -111.5 -98.5t-32.5 -70.5q0 -40 32 -73t149 -109q137 -92 187 -170.5t50 -178.5q0 -161 -98.5 -247t-282.5 -86q-187 0 -297 69v162q64 -40 143.5 -63t147.5 -23q211 0 211 176 q0 71 -40.5 123t-152.5 123q-118 75 -170.5 137.5t-52.5 149.5q0 63 34 115.5t106 105.5q74 55 106.5 101t32.5 97q0 78 -66.5 121t-193.5 43q-273 0 -273 -221v-1196h-180z" />
<glyph unicode="&#xe0;" horiz-adv-x="1149" d="M94 305q0 334 527 350l186 7v65q0 125 -54 184.5t-173 59.5q-87 0 -164.5 -26t-145.5 -58l-55 135q83 44 181 69t194 25q199 0 296 -88t97 -280v-748h-131l-35 156h-8q-82 -103 -163.5 -139.5t-205.5 -36.5q-162 0 -254 85t-92 240zM275 1548v21h215q32 -66 91 -157.5 t106 -145.5v-25h-121q-75 60 -164.5 155.5t-126.5 151.5zM281 303q0 -86 52.5 -132t147.5 -46q151 0 237.5 81.5t86.5 231.5v99l-162 -7q-189 -7 -275.5 -60t-86.5 -167z" />
<glyph unicode="&#xe1;" horiz-adv-x="1149" d="M94 305q0 334 527 350l186 7v65q0 125 -54 184.5t-173 59.5q-87 0 -164.5 -26t-145.5 -58l-55 135q83 44 181 69t194 25q199 0 296 -88t97 -280v-748h-131l-35 156h-8q-82 -103 -163.5 -139.5t-205.5 -36.5q-162 0 -254 85t-92 240zM281 303q0 -86 52.5 -132t147.5 -46 q151 0 237.5 81.5t86.5 231.5v99l-162 -7q-189 -7 -275.5 -60t-86.5 -167zM436 1241v25q38 48 96.5 136.5t98.5 166.5h217v-21q-44 -64 -137 -161t-156 -146h-119z" />
<glyph unicode="&#xe2;" horiz-adv-x="1149" d="M94 305q0 334 527 350l186 7v65q0 125 -54 184.5t-173 59.5q-87 0 -164.5 -26t-145.5 -58l-55 135q83 44 181 69t194 25q199 0 296 -88t97 -280v-748h-131l-35 156h-8q-82 -103 -163.5 -139.5t-205.5 -36.5q-162 0 -254 85t-92 240zM224 1241v23q125 134 176.5 198 t75.5 107h184q52 -101 256 -305v-23h-127q-90 53 -223 184q-131 -128 -219 -184h-123zM281 303q0 -86 52.5 -132t147.5 -46q151 0 237.5 81.5t86.5 231.5v99l-162 -7q-189 -7 -275.5 -60t-86.5 -167z" />
<glyph unicode="&#xe3;" horiz-adv-x="1149" d="M94 305q0 334 527 350l186 7v65q0 125 -54 184.5t-173 59.5q-87 0 -164.5 -26t-145.5 -58l-55 135q83 44 181 69t194 25q199 0 296 -88t97 -280v-748h-131l-35 156h-8q-82 -103 -163.5 -139.5t-205.5 -36.5q-162 0 -254 85t-92 240zM200 1241q12 122 70 192t155 70 q45 0 87.5 -18.5t81.5 -40t75 -40t68 -18.5q48 0 72.5 29.5t39.5 89.5h103q-12 -119 -70 -190.5t-154 -71.5q-43 0 -84 18.5t-80.5 40t-76 40t-70.5 18.5q-49 0 -74 -29.5t-39 -89.5h-104zM281 303q0 -86 52.5 -132t147.5 -46q151 0 237.5 81.5t86.5 231.5v99l-162 -7 q-189 -7 -275.5 -60t-86.5 -167z" />
<glyph unicode="&#xe4;" horiz-adv-x="1149" d="M94 305q0 334 527 350l186 7v65q0 125 -54 184.5t-173 59.5q-87 0 -164.5 -26t-145.5 -58l-55 135q83 44 181 69t194 25q199 0 296 -88t97 -280v-748h-131l-35 156h-8q-82 -103 -163.5 -139.5t-205.5 -36.5q-162 0 -254 85t-92 240zM279 1395q0 53 28 76.5t68 23.5 q39 0 68 -23.5t29 -76.5t-29 -78t-68 -25q-40 0 -68 25t-28 78zM281 303q0 -86 52.5 -132t147.5 -46q151 0 237.5 81.5t86.5 231.5v99l-162 -7q-189 -7 -275.5 -60t-86.5 -167zM664 1395q0 53 28 76.5t66 23.5q39 0 68 -23.5t29 -76.5t-29 -78t-68 -25q-38 0 -66 25t-28 78z " />
<glyph unicode="&#xe5;" horiz-adv-x="1149" d="M94 305q0 334 527 350l186 7v65q0 125 -54 184.5t-173 59.5q-87 0 -164.5 -26t-145.5 -58l-55 135q83 44 181 69t194 25q199 0 296 -88t97 -280v-748h-131l-35 156h-8q-82 -103 -163.5 -139.5t-205.5 -36.5q-162 0 -254 85t-92 240zM281 303q0 -86 52.5 -132t147.5 -46 q151 0 237.5 81.5t86.5 231.5v99l-162 -7q-189 -7 -275.5 -60t-86.5 -167zM362 1458q0 98 60 156.5t163 58.5q101 0 164 -59t63 -154q0 -101 -62.5 -160t-164.5 -59q-103 0 -163 58.5t-60 158.5zM470 1458q0 -54 29.5 -84.5t85.5 -30.5q51 0 82.5 30.5t31.5 84.5t-32.5 84.5 t-81.5 30.5q-50 0 -82.5 -30.5t-32.5 -84.5z" />
<glyph unicode="&#xe6;" horiz-adv-x="1769" d="M94 305q0 334 500 350l184 7v69q0 122 -56.5 181t-172.5 59q-139 0 -307 -84l-56 135q71 40 172.5 67t204.5 27q128 0 210.5 -41.5t125.5 -134.5q54 85 139 131.5t197 46.5q197 0 313.5 -135t116.5 -356v-111h-702q8 -383 317 -383q88 0 165 16.5t171 59.5v-158 q-88 -39 -164 -55t-178 -16q-291 0 -416 231q-82 -124 -181 -177.5t-235 -53.5q-164 0 -256 85.5t-92 239.5zM281 303q0 -92 52 -135t138 -43q140 0 221.5 81.5t81.5 231.5v99l-153 -7q-177 -7 -258.5 -60t-81.5 -167zM967 657h508q0 152 -62.5 233t-179.5 81 q-119 0 -187 -80.5t-79 -233.5z" />
<glyph unicode="&#xe7;" horiz-adv-x="983" d="M113 543q0 276 133.5 425.5t380.5 149.5q80 0 158.5 -16.5t129.5 -42.5l-55 -150q-139 52 -237 52q-166 0 -245 -104.5t-79 -311.5q0 -199 79 -304.5t234 -105.5q145 0 285 64v-160q-114 -59 -283 -59q-237 0 -369 145.5t-132 417.5zM361 -369q36 -10 108 -10 q75 0 113.5 19.5t38.5 70.5q0 89 -187 113l88 176h119l-53 -109q178 -38 178 -176q0 -99 -75.5 -153t-227.5 -54q-65 0 -102 11v112z" />
<glyph unicode="&#xe8;" horiz-adv-x="1155" d="M113 541q0 264 131 420.5t354 156.5q207 0 330 -133.5t123 -361.5v-109h-752q5 -187 95 -284t255 -97q88 0 167 15.5t185 60.5v-158q-91 -39 -171 -55t-189 -16q-247 0 -387.5 149.5t-140.5 411.5zM303 657h559q-2 154 -71 234t-195 80q-129 0 -204 -83t-89 -231z M312 1548v21h215q32 -66 91 -157.5t106 -145.5v-25h-121q-75 60 -164.5 155.5t-126.5 151.5z" />
<glyph unicode="&#xe9;" horiz-adv-x="1155" d="M113 541q0 264 131 420.5t354 156.5q207 0 330 -133.5t123 -361.5v-109h-752q5 -187 95 -284t255 -97q88 0 167 15.5t185 60.5v-158q-91 -39 -171 -55t-189 -16q-247 0 -387.5 149.5t-140.5 411.5zM303 657h559q-2 154 -71 234t-195 80q-129 0 -204 -83t-89 -231z M467 1241v25q38 48 96.5 136.5t98.5 166.5h217v-21q-44 -64 -137 -161t-156 -146h-119z" />
<glyph unicode="&#xea;" horiz-adv-x="1155" d="M113 541q0 264 131 420.5t354 156.5q207 0 330 -133.5t123 -361.5v-109h-752q5 -187 95 -284t255 -97q88 0 167 15.5t185 60.5v-158q-91 -39 -171 -55t-189 -16q-247 0 -387.5 149.5t-140.5 411.5zM253 1241v23q125 134 176.5 198t75.5 107h184q52 -101 256 -305v-23 h-127q-90 53 -223 184q-131 -128 -219 -184h-123zM303 657h559q-2 154 -71 234t-195 80q-129 0 -204 -83t-89 -231z" />
<glyph unicode="&#xeb;" horiz-adv-x="1155" d="M113 541q0 264 131 420.5t354 156.5q207 0 330 -133.5t123 -361.5v-109h-752q5 -187 95 -284t255 -97q88 0 167 15.5t185 60.5v-158q-91 -39 -171 -55t-189 -16q-247 0 -387.5 149.5t-140.5 411.5zM303 657h559q-2 154 -71 234t-195 80q-129 0 -204 -83t-89 -231z M315 1395q0 53 28 76.5t68 23.5q39 0 68 -23.5t29 -76.5t-29 -78t-68 -25q-40 0 -68 25t-28 78zM700 1395q0 53 28 76.5t66 23.5q39 0 68 -23.5t29 -76.5t-29 -78t-68 -25q-38 0 -66 25t-28 78z" />
<glyph unicode="&#xec;" horiz-adv-x="528" d="M-44 1548v21h215q32 -66 91 -157.5t106 -145.5v-25h-121q-75 60 -164.5 155.5t-126.5 151.5zM174 0v1098h180v-1098h-180z" />
<glyph unicode="&#xed;" horiz-adv-x="528" d="M167 1241v25q38 48 96.5 136.5t98.5 166.5h217v-21q-44 -64 -137 -161t-156 -146h-119zM174 0v1098h180v-1098h-180z" />
<glyph unicode="&#xee;" horiz-adv-x="528" d="M-81 1241v23q125 134 176.5 198t75.5 107h184q52 -101 256 -305v-23h-127q-90 53 -223 184q-131 -128 -219 -184h-123zM174 0v1098h180v-1098h-180z" />
<glyph unicode="&#xef;" horiz-adv-x="528" d="M-22 1395q0 53 28 76.5t68 23.5q39 0 68 -23.5t29 -76.5t-29 -78t-68 -25q-40 0 -68 25t-28 78zM174 0v1098h180v-1098h-180zM363 1395q0 53 28 76.5t66 23.5q39 0 68 -23.5t29 -76.5t-29 -78t-68 -25q-38 0 -66 25t-28 78z" />
<glyph unicode="&#xf0;" horiz-adv-x="1239" d="M113 477q0 229 129.5 360.5t351.5 131.5q225 0 319 -119l9 4q-59 214 -254 391l-267 -153l-77 112l229 131q-86 58 -184 109l73 123q156 -73 258 -148l236 137l78 -110l-203 -117q151 -140 234 -337.5t83 -428.5q0 -282 -133 -432.5t-379 -150.5q-225 0 -364 135.5 t-139 361.5zM295 471q0 -165 84 -254.5t242 -89.5q169 0 247 99t78 288q0 143 -87.5 226t-237.5 83q-166 0 -246 -86.5t-80 -265.5z" />
<glyph unicode="&#xf1;" horiz-adv-x="1266" d="M174 0v1098h145l27 -150h10q51 81 143 125.5t203 44.5q202 0 300 -98t98 -305v-715h-178v702q0 134 -59.5 199.5t-186.5 65.5q-169 0 -245.5 -93.5t-76.5 -304.5v-569h-180zM274 1241q12 122 70 192t155 70q45 0 87.5 -18.5t81.5 -40t75 -40t68 -18.5q48 0 72.5 29.5 t39.5 89.5h103q-12 -119 -70 -190.5t-154 -71.5q-43 0 -84 18.5t-80.5 40t-76 40t-70.5 18.5q-49 0 -74 -29.5t-39 -89.5h-104z" />
<glyph unicode="&#xf2;" horiz-adv-x="1239" d="M113 551q0 268 134 417.5t376 149.5q232 0 368.5 -152.5t136.5 -414.5q0 -269 -136 -420t-376 -151q-149 0 -264 69.5t-177 199.5t-62 302zM299 551q0 -207 81.5 -314.5t240.5 -107.5q157 0 239 107.5t82 314.5t-82.5 311.5t-241.5 104.5q-319 0 -319 -416zM339 1548v21 h215q32 -66 91 -157.5t106 -145.5v-25h-121q-75 60 -164.5 155.5t-126.5 151.5z" />
<glyph unicode="&#xf3;" horiz-adv-x="1239" d="M113 551q0 268 134 417.5t376 149.5q232 0 368.5 -152.5t136.5 -414.5q0 -269 -136 -420t-376 -151q-149 0 -264 69.5t-177 199.5t-62 302zM299 551q0 -207 81.5 -314.5t240.5 -107.5q157 0 239 107.5t82 314.5t-82.5 311.5t-241.5 104.5q-319 0 -319 -416zM477 1241v25 q38 48 96.5 136.5t98.5 166.5h217v-21q-44 -64 -137 -161t-156 -146h-119z" />
<glyph unicode="&#xf4;" horiz-adv-x="1239" d="M113 551q0 268 134 417.5t376 149.5q232 0 368.5 -152.5t136.5 -414.5q0 -269 -136 -420t-376 -151q-149 0 -264 69.5t-177 199.5t-62 302zM272 1241v23q125 134 176.5 198t75.5 107h184q52 -101 256 -305v-23h-127q-90 53 -223 184q-131 -128 -219 -184h-123zM299 551 q0 -207 81.5 -314.5t240.5 -107.5q157 0 239 107.5t82 314.5t-82.5 311.5t-241.5 104.5q-319 0 -319 -416z" />
<glyph unicode="&#xf5;" horiz-adv-x="1239" d="M113 551q0 268 134 417.5t376 149.5q232 0 368.5 -152.5t136.5 -414.5q0 -269 -136 -420t-376 -151q-149 0 -264 69.5t-177 199.5t-62 302zM247 1241q12 122 70 192t155 70q45 0 87.5 -18.5t81.5 -40t75 -40t68 -18.5q48 0 72.5 29.5t39.5 89.5h103q-12 -119 -70 -190.5 t-154 -71.5q-43 0 -84 18.5t-80.5 40t-76 40t-70.5 18.5q-49 0 -74 -29.5t-39 -89.5h-104zM299 551q0 -207 81.5 -314.5t240.5 -107.5q157 0 239 107.5t82 314.5t-82.5 311.5t-241.5 104.5q-319 0 -319 -416z" />
<glyph unicode="&#xf6;" horiz-adv-x="1239" d="M113 551q0 268 134 417.5t376 149.5q232 0 368.5 -152.5t136.5 -414.5q0 -269 -136 -420t-376 -151q-149 0 -264 69.5t-177 199.5t-62 302zM299 551q0 -207 81.5 -314.5t240.5 -107.5q157 0 239 107.5t82 314.5t-82.5 311.5t-241.5 104.5q-319 0 -319 -416zM330 1395 q0 53 28 76.5t68 23.5q39 0 68 -23.5t29 -76.5t-29 -78t-68 -25q-40 0 -68 25t-28 78zM715 1395q0 53 28 76.5t66 23.5q39 0 68 -23.5t29 -76.5t-29 -78t-68 -25q-38 0 -66 25t-28 78z" />
<glyph unicode="&#xf7;" d="M102 649v146h965v-146h-965zM469 373q0 123 115 123q112 0 112 -123q0 -66 -33 -95.5t-79 -29.5q-48 0 -81.5 29.5t-33.5 95.5zM469 1071q0 123 115 123q112 0 112 -123q0 -66 -33 -95.5t-79 -29.5q-48 0 -81.5 29.5t-33.5 95.5z" />
<glyph unicode="&#xf8;" horiz-adv-x="1239" d="M113 551q0 268 134 417.5t376 149.5q151 0 268 -74l80 115l121 -78l-93 -129q129 -155 129 -401q0 -269 -136 -420t-376 -151q-151 0 -264 67l-82 -115l-118 80l92 127q-131 156 -131 412zM299 551q0 -166 49 -262l451 626q-73 52 -181 52q-319 0 -319 -416zM444 176 q69 -47 177 -47q157 0 239 107.5t82 314.5q0 152 -47 252z" />
<glyph unicode="&#xf9;" horiz-adv-x="1266" d="M162 379v719h182v-707q0 -133 59.5 -197.5t184.5 -64.5q169 0 246 94t77 303v572h181v-1098h-148l-26 145h-9q-49 -79 -139 -122t-209 -43q-198 0 -298.5 95t-100.5 304zM325 1548v21h215q32 -66 91 -157.5t106 -145.5v-25h-121q-75 60 -164.5 155.5t-126.5 151.5z" />
<glyph unicode="&#xfa;" horiz-adv-x="1266" d="M162 379v719h182v-707q0 -133 59.5 -197.5t184.5 -64.5q169 0 246 94t77 303v572h181v-1098h-148l-26 145h-9q-49 -79 -139 -122t-209 -43q-198 0 -298.5 95t-100.5 304zM504 1241v25q38 48 96.5 136.5t98.5 166.5h217v-21q-44 -64 -137 -161t-156 -146h-119z" />
<glyph unicode="&#xfb;" horiz-adv-x="1266" d="M162 379v719h182v-707q0 -133 59.5 -197.5t184.5 -64.5q169 0 246 94t77 303v572h181v-1098h-148l-26 145h-9q-49 -79 -139 -122t-209 -43q-198 0 -298.5 95t-100.5 304zM280 1241v23q125 134 176.5 198t75.5 107h184q52 -101 256 -305v-23h-127q-90 53 -223 184 q-131 -128 -219 -184h-123z" />
<glyph unicode="&#xfc;" horiz-adv-x="1266" d="M162 379v719h182v-707q0 -133 59.5 -197.5t184.5 -64.5q169 0 246 94t77 303v572h181v-1098h-148l-26 145h-9q-49 -79 -139 -122t-209 -43q-198 0 -298.5 95t-100.5 304zM338 1395q0 53 28 76.5t68 23.5q39 0 68 -23.5t29 -76.5t-29 -78t-68 -25q-40 0 -68 25t-28 78z M723 1395q0 53 28 76.5t66 23.5q39 0 68 -23.5t29 -76.5t-29 -78t-68 -25q-38 0 -66 25t-28 78z" />
<glyph unicode="&#xfd;" horiz-adv-x="1044" d="M2 1098h193l237 -625q75 -204 92 -299h8q9 37 41 138.5t54 162.5l223 623h194l-473 -1250q-69 -182 -164 -261t-235 -79q-75 0 -149 17v143q50 -12 120 -12q86 0 146 47.5t98 146.5l57 146zM410 1241v25q38 48 96.5 136.5t98.5 166.5h217v-21q-44 -64 -137 -161 t-156 -146h-119z" />
<glyph unicode="&#xfe;" horiz-adv-x="1260" d="M174 -492v2048h180v-458q0 -70 -6 -148h8q67 91 150.5 129.5t189.5 38.5q213 0 332 -149.5t119 -417.5q0 -269 -119 -420t-332 -151q-222 0 -342 159h-12q12 -132 12 -172v-459h-180zM354 551q0 -223 74 -322.5t240 -99.5q293 0 293 424q0 208 -71.5 311t-223.5 103 q-161 0 -235.5 -89.5t-76.5 -287.5v-39z" />
<glyph unicode="&#xff;" horiz-adv-x="1044" d="M2 1098h193l237 -625q75 -204 92 -299h8q9 37 41 138.5t54 162.5l223 623h194l-473 -1250q-69 -182 -164 -261t-235 -79q-75 0 -149 17v143q50 -12 120 -12q86 0 146 47.5t98 146.5l57 146zM234 1395q0 53 28 76.5t68 23.5q39 0 68 -23.5t29 -76.5t-29 -78t-68 -25 q-40 0 -68 25t-28 78zM619 1395q0 53 28 76.5t66 23.5q39 0 68 -23.5t29 -76.5t-29 -78t-68 -25q-38 0 -66 25t-28 78z" />
<glyph unicode="&#x131;" horiz-adv-x="528" d="M174 0v1098h180v-1098h-180z" />
<glyph unicode="&#x152;" horiz-adv-x="1901" d="M125 735q0 359 172.5 554.5t493.5 195.5q106 0 196 -23h791v-162h-588v-456h549v-160h-549v-522h588v-162h-779q-102 -20 -198 -20q-325 0 -500.5 197t-175.5 558zM317 733q0 -289 124 -441.5t364 -152.5q117 0 203 35v1116q-85 33 -201 33q-242 0 -366 -151t-124 -439z " />
<glyph unicode="&#x153;" horiz-adv-x="1937" d="M111 551q0 266 132 415.5t369 149.5q130 0 232 -57t164 -168q60 109 156 167t222 58q205 0 325 -132.5t120 -360.5v-109h-729q8 -381 332 -381q90 0 167 15.5t181 60.5v-158q-93 -40 -170 -55.5t-180 -15.5q-290 0 -418 227q-63 -113 -167.5 -170t-240.5 -57 q-226 0 -360.5 154t-134.5 417zM299 551q0 -208 73 -315t236 -107q160 0 233.5 104.5t73.5 309.5q0 214 -74.5 319t-236.5 105q-161 0 -233 -105.5t-72 -310.5zM1106 657h534q0 151 -64.5 231.5t-191.5 80.5q-123 0 -194.5 -79.5t-83.5 -232.5z" />
<glyph unicode="&#x178;" horiz-adv-x="1159" d="M0 1462h201l379 -719l381 719h198l-487 -895v-567h-185v559zM294 1733q0 53 28 76.5t68 23.5q39 0 68 -23.5t29 -76.5t-29 -78t-68 -25q-40 0 -68 25t-28 78zM679 1733q0 53 28 76.5t66 23.5q39 0 68 -23.5t29 -76.5t-29 -78t-68 -25q-38 0 -66 25t-28 78z" />
<glyph unicode="&#x192;" d="M190 -324q70 -18 129 -18q92 0 130 48t38 163v962h-215v84l215 62v133q0 193 81 283t266 90q93 0 210 -43l-45 -140q-102 33 -159 33q-94 0 -133 -50t-39 -171v-141h276v-140h-272v-962q0 -187 -82 -274t-260 -87q-73 0 -140 19v149z" />
<glyph unicode="&#x2c6;" horiz-adv-x="1214" d="M260 1241v23q125 134 176.5 198t75.5 107h184q52 -101 256 -305v-23h-127q-90 53 -223 184q-131 -128 -219 -184h-123z" />
<glyph unicode="&#x2c7;" horiz-adv-x="1214" d="M260 1542v27h123q114 -74 219 -189q126 126 223 189h127v-27q-205 -205 -256 -301h-184q-60 102 -252 301z" />
<glyph unicode="&#x2d8;" horiz-adv-x="1214" d="M287 1516h110q8 -71 50 -100.5t157 -29.5q101 0 150 31.5t57 98.5h113q-13 -131 -99 -203t-225 -72q-141 0 -222.5 69t-90.5 206z" />
<glyph unicode="&#x2d9;" horiz-adv-x="528" d="M160 1395q0 60 30.5 87t75.5 27q42 0 73.5 -27t31.5 -87q0 -59 -31.5 -87t-73.5 -28q-45 0 -75.5 28t-30.5 87z" />
<glyph unicode="&#x2da;" horiz-adv-x="1182" d="M365 1458q0 98 60 156.5t163 58.5q101 0 164 -59t63 -154q0 -101 -62.5 -160t-164.5 -59q-103 0 -163 58.5t-60 158.5zM473 1458q0 -54 29.5 -84.5t85.5 -30.5q51 0 82.5 30.5t31.5 84.5t-32.5 84.5t-81.5 30.5q-50 0 -82.5 -30.5t-32.5 -84.5z" />
<glyph unicode="&#x2db;" horiz-adv-x="406" d="M35 -258q0 139 160 258h127q-70 -66 -105 -120.5t-35 -117.5q0 -46 24.5 -69t67.5 -23q44 0 99 13v-115q-69 -19 -127 -19q-211 0 -211 193z" />
<glyph unicode="&#x2dc;" horiz-adv-x="1214" d="M258 1241q12 122 70 192t155 70q45 0 87.5 -18.5t81.5 -40t75 -40t68 -18.5q48 0 72.5 29.5t39.5 89.5h103q-12 -119 -70 -190.5t-154 -71.5q-43 0 -84 18.5t-80.5 40t-76 40t-70.5 18.5q-49 0 -74 -29.5t-39 -89.5h-104z" />
<glyph unicode="&#x2dd;" horiz-adv-x="1184" d="M223 1241v25q35 46 87 134.5t91 168.5h197v-21q-33 -56 -119.5 -154t-152.5 -153h-103zM584 1241v25q47 65 100 156t78 147h196v-21q-33 -56 -119.5 -154t-152.5 -153h-102z" />
<glyph unicode="&#x3a9;" horiz-adv-x="1602" d="M78 0v162h364q-151 116 -231 288t-80 377q0 308 178 483t492 175q318 0 495 -174t177 -482q0 -206 -80.5 -379t-229.5 -288h363v-162h-590v147q177 127 260.5 290.5t83.5 383.5q0 246 -121.5 374t-357.5 128q-234 0 -354.5 -127.5t-120.5 -374.5q0 -224 82.5 -385 t259.5 -289v-147h-590z" />
<glyph unicode="&#x3c0;" horiz-adv-x="1350" d="M25 948v78l147 72h1112v-150h-215v-694q0 -127 94 -127q53 0 90 20v-141q-49 -26 -135 -26q-227 0 -227 262v706h-465v-948h-178v948h-223z" />
<glyph unicode="&#x400;" horiz-adv-x="1139" d="M199 0v1462h817v-162h-633v-456h596v-160h-596v-522h633v-162h-817zM339 1886v21h215q32 -66 91 -157.5t106 -145.5v-25h-121q-75 60 -164.5 155.5t-126.5 151.5z" />
<glyph unicode="&#x401;" horiz-adv-x="1139" d="M199 0v1462h817v-162h-633v-456h596v-160h-596v-522h633v-162h-817zM338 1733q0 53 28 76.5t68 23.5q39 0 68 -23.5t29 -76.5t-29 -78t-68 -25q-40 0 -68 25t-28 78zM723 1733q0 53 28 76.5t66 23.5q39 0 68 -23.5t29 -76.5t-29 -78t-68 -25q-38 0 -66 25t-28 78z" />
<glyph unicode="&#x402;" horiz-adv-x="1518" d="M20 1300v162h967v-162h-444v-403h391q208 0 319 -96.5t111 -274.5v-143q0 -190 -98.5 -296.5t-274.5 -106.5q-103 0 -155 24v160q59 -21 147 -21q99 0 149 59t50 169v131q0 124 -63.5 178.5t-198.5 54.5h-377v-735h-183v1300h-340z" />
<glyph unicode="&#x403;" horiz-adv-x="1073" d="M199 0v1462h825v-164h-641v-1298h-184zM481 1579v25q38 48 96.5 136.5t98.5 166.5h217v-21q-44 -64 -137 -161t-156 -146h-119z" />
<glyph unicode="&#x404;" horiz-adv-x="1317" d="M125 733q0 349 188 550.5t525 201.5q235 0 419 -90l-75 -158q-175 84 -348 84q-220 0 -352 -122.5t-158 -356.5h712v-160h-717q12 -267 142.5 -404t372.5 -137q164 0 366 58v-160q-158 -59 -391 -59q-333 0 -508.5 194t-175.5 559z" />
<glyph unicode="&#x405;" horiz-adv-x="1124" d="M104 49v176q93 -40 203.5 -63t206.5 -23q164 0 247 63t83 173q0 73 -30 120t-100.5 88t-213.5 93q-203 74 -290 174.5t-87 259.5q0 171 128.5 272t338.5 101q219 0 403 -82l-57 -158q-188 78 -350 78q-130 0 -203.5 -56t-73.5 -157q0 -72 28.5 -119.5t92 -86.5t199.5 -89 q163 -60 243 -116.5t118 -130t38 -175.5q0 -191 -138 -301t-384 -110q-260 0 -402 69z" />
<glyph unicode="&#x406;" horiz-adv-x="694" d="M82 0v106l172 39v1170l-172 41v106h528v-106l-172 -41v-1170l172 -39v-106h-528z" />
<glyph unicode="&#x407;" horiz-adv-x="694" d="M60 1733q0 53 28 76.5t68 23.5q39 0 68 -23.5t29 -76.5t-29 -78t-68 -25q-40 0 -68 25t-28 78zM82 0v106l172 39v1170l-172 41v106h528v-106l-172 -41v-1170l172 -39v-106h-528zM445 1733q0 53 28 76.5t66 23.5q39 0 68 -23.5t29 -76.5t-29 -78t-68 -25q-38 0 -66 25 t-28 78z" />
<glyph unicode="&#x408;" horiz-adv-x="559" d="M-160 -207q71 -20 148 -20q100 0 150 60.5t50 174.5v1454h185v-1439q0 -198 -98.5 -305t-282.5 -107q-94 0 -152 27v155z" />
<glyph unicode="&#x409;" horiz-adv-x="1917" d="M2 2v154q52 -25 113 -25q58 0 98.5 54t68.5 175t63.5 347.5t107.5 754.5h696v-618h121q280 0 424.5 -103.5t144.5 -312.5q0 -207 -138 -317.5t-401 -110.5h-335v1300h-357q-56 -425 -98.5 -689t-84 -390.5t-111.5 -185t-179 -58.5q-69 0 -133 25zM1149 158h129 q190 0 280.5 66.5t90.5 203.5q0 134 -93 195t-309 61h-98v-526z" />
<glyph unicode="&#x40a;" horiz-adv-x="1962" d="M199 0v1462h184v-618h627v618h186v-618h119q280 0 424.5 -103.5t144.5 -312.5t-138.5 -318.5t-397.5 -109.5h-338v682h-627v-682h-184zM1196 158h129q190 0 279.5 66.5t89.5 203.5q0 134 -93 195t-307 61h-98v-526z" />
<glyph unicode="&#x40b;" horiz-adv-x="1518" d="M20 1298v164h1024v-164h-501v-403h397q205 0 314.5 -94t109.5 -277v-524h-184v502q0 123 -59.5 177t-192.5 54h-385v-733h-185v1298h-338z" />
<glyph unicode="&#x40c;" horiz-adv-x="1266" d="M199 0v1462h184v-708l645 708h209l-635 -710l664 -752h-222l-661 741v-741h-184zM557 1579v25q38 48 96.5 136.5t98.5 166.5h217v-21q-44 -64 -137 -161t-156 -146h-119z" />
<glyph unicode="&#x40d;" horiz-adv-x="1573" d="M201 0v1462h172v-803q0 -85 -5 -225t-10 -182h9l804 1210h205v-1462h-172v795q0 104 7 242.5t10 179.5h-9l-806 -1217h-205zM489 1886v21h215q32 -66 91 -157.5t106 -145.5v-25h-121q-75 60 -164.5 155.5t-126.5 151.5z" />
<glyph unicode="&#x40e;" horiz-adv-x="1278" d="M23 1462h202l418 -813q25 -47 43 -104h8l8 24l31 82l350 811h195l-467 -1046q-83 -186 -151 -271t-155.5 -125t-211.5 -40q-113 0 -199 30v174q91 -41 193 -41q107 0 172.5 50t126.5 182zM277 1890h168q9 -104 54.5 -145t158.5 -41q103 0 152.5 44t60.5 142h170 q-15 -162 -109 -236.5t-278 -74.5q-192 0 -279.5 73t-97.5 238z" />
<glyph unicode="&#x40f;" horiz-adv-x="1497" d="M199 0v1462h184v-1298h731v1298h182v-1462h-460v-385h-189v385h-448z" />
<glyph unicode="&#x410;" horiz-adv-x="1309" d="M0 0l571 1468h166l570 -1468h-191l-176 453h-580l-174 -453h-186zM422 616h463l-164 443l-70 219q-30 -120 -63 -219z" />
<glyph unicode="&#x411;" horiz-adv-x="1260" d="M199 0v1462h868v-162h-684v-456h217q280 0 417.5 -99t137.5 -317q0 -216 -130 -322t-398 -106h-428zM383 158h225q188 0 272.5 63.5t84.5 206.5q0 140 -88 198t-299 58h-195v-526z" />
<glyph unicode="&#x412;" horiz-adv-x="1331" d="M199 0v1462h417q294 0 424.5 -87.5t130.5 -274.5q0 -130 -71 -214.5t-207 -109.5v-10q169 -29 248.5 -117t79.5 -233q0 -196 -134 -306t-374 -110h-514zM383 156h295q176 0 261 68t85 206q0 131 -90 193.5t-270 62.5h-281v-530zM383 840h270q172 0 250 55t78 184 q0 120 -85.5 173t-270.5 53h-242v-465z" />
<glyph unicode="&#x413;" horiz-adv-x="1073" d="M199 0v1462h825v-164h-641v-1298h-184z" />
<glyph unicode="&#x414;" horiz-adv-x="1415" d="M12 164h113q148 252 256 611t127 687h676v-1298h186v-549h-176v385h-1006v-385h-176v549zM319 164h682v1132h-331q-19 -249 -121.5 -581t-229.5 -551z" />
<glyph unicode="&#x415;" horiz-adv-x="1139" d="M199 0v1462h817v-162h-633v-456h596v-160h-596v-522h633v-162h-817z" />
<glyph unicode="&#x416;" horiz-adv-x="1749" d="M2 0l588 752l-567 710h204l559 -708v708h177v-708l559 708h204l-567 -708l586 -754h-211l-571 741v-741h-177v741l-573 -741h-211z" />
<glyph unicode="&#x417;" horiz-adv-x="1204" d="M78 59v168q99 -47 212.5 -71.5t211.5 -24.5q198 0 298.5 73t100.5 210q0 131 -113 198.5t-337 67.5h-209v154h198q217 0 324.5 72.5t107.5 195.5q0 106 -79.5 167.5t-214.5 61.5q-114 0 -205.5 -27t-200.5 -98l-88 125q211 152 496 152q225 0 354 -98t129 -265 q0 -142 -91 -232.5t-255 -115.5v-8q186 -25 281.5 -115t95.5 -235q0 -205 -155 -319.5t-435 -114.5q-263 0 -426 79z" />
<glyph unicode="&#x418;" horiz-adv-x="1573" d="M201 0v1462h172v-803q0 -85 -5 -225t-10 -182h9l804 1210h205v-1462h-172v795q0 104 7 242.5t10 179.5h-9l-806 -1217h-205z" />
<glyph unicode="&#x419;" horiz-adv-x="1573" d="M201 0v1462h172v-803q0 -85 -5 -225t-10 -182h9l804 1210h205v-1462h-172v795q0 104 7 242.5t10 179.5h-9l-806 -1217h-205zM434 1890h168q9 -104 54.5 -145t158.5 -41q103 0 152.5 44t60.5 142h170q-15 -162 -109 -236.5t-278 -74.5q-192 0 -279.5 73t-97.5 238z" />
<glyph unicode="&#x41a;" horiz-adv-x="1266" d="M199 0v1462h184v-708l645 708h209l-635 -710l664 -752h-222l-661 741v-741h-184z" />
<glyph unicode="&#x41b;" horiz-adv-x="1450" d="M2 2v154q52 -25 113 -25q79 0 125.5 99.5t101 450.5t109.5 781h800v-1462h-184v1300h-463l-31 -238q-63 -492 -110 -705t-122.5 -296.5t-205.5 -83.5q-74 0 -133 25z" />
<glyph unicode="&#x41c;" horiz-adv-x="1858" d="M199 0v1462h272l451 -1198h8l459 1198h270v-1462h-182v899q0 150 14 381h-8l-488 -1280h-151l-482 1282h-8q15 -160 15 -395v-887h-170z" />
<glyph unicode="&#x41d;" horiz-adv-x="1518" d="M199 0v1462h184v-618h750v618h184v-1462h-184v682h-750v-682h-184z" />
<glyph unicode="&#x41e;" horiz-adv-x="1599" d="M125 735q0 357 175.5 553.5t502.5 196.5q318 0 495 -199.5t177 -552.5q0 -351 -177.5 -552t-496.5 -201q-323 0 -499.5 197.5t-176.5 557.5zM319 733q0 -290 123 -442t359 -152q235 0 357 150t122 444q0 293 -121 441.5t-356 148.5q-238 0 -361 -150.5t-123 -439.5z" />
<glyph unicode="&#x41f;" horiz-adv-x="1497" d="M199 0v1462h1097v-1462h-182v1300h-731v-1300h-184z" />
<glyph unicode="&#x420;" horiz-adv-x="1239" d="M199 0v1462h387q549 0 549 -430q0 -224 -153 -343.5t-431 -119.5h-168v-569h-184zM383 727h147q218 0 316 70.5t98 226.5q0 141 -91 211t-284 70h-186v-578z" />
<glyph unicode="&#x421;" horiz-adv-x="1294" d="M125 733q0 226 83.5 396t243 262t375.5 92q232 0 404 -86l-74 -156q-175 80 -332 80q-236 0 -371 -158t-135 -432q0 -283 131 -436.5t373 -153.5q156 0 351 58v-160q-93 -34 -179 -46.5t-198 -12.5q-323 0 -497.5 196.5t-174.5 556.5z" />
<glyph unicode="&#x422;" horiz-adv-x="1139" d="M20 1300v162h1096v-162h-454v-1300h-185v1300h-457z" />
<glyph unicode="&#x423;" horiz-adv-x="1278" d="M23 1462h202l418 -813q25 -47 43 -104h8l8 24l31 82l350 811h195l-467 -1046q-83 -186 -151 -271t-155.5 -125t-211.5 -40q-113 0 -199 30v174q91 -41 193 -41q107 0 172.5 50t126.5 182z" />
<glyph unicode="&#x424;" horiz-adv-x="1647" d="M104 758q0 155 68 279.5t195 195t299 70.5h65v180h182v-180h68q174 0 300.5 -69.5t192.5 -193.5t66 -282q0 -165 -74 -294t-205 -194t-309 -65h-39v-225h-182v225h-43q-178 0 -308 66.5t-203 195.5t-73 291zM291 760q0 -189 109 -296.5t309 -107.5h22v791h-55 q-181 0 -283 -104.5t-102 -282.5zM913 356h25q197 0 306.5 107.5t109.5 296.5q0 180 -101.5 283.5t-283.5 103.5h-56v-791z" />
<glyph unicode="&#x425;" horiz-adv-x="1200" d="M8 0l486 762l-455 700h205l358 -573l361 573h194l-452 -696l487 -766h-209l-387 635l-393 -635h-195z" />
<glyph unicode="&#x426;" horiz-adv-x="1518" d="M199 0v1462h184v-1298h731v1298h182v-1300h179v-547h-177v385h-1099z" />
<glyph unicode="&#x427;" horiz-adv-x="1430" d="M164 879v583h184v-557q0 -118 62 -176.5t202 -58.5q95 0 183.5 15t251.5 69v708h184v-1462h-184v600q-149 -53 -249 -72.5t-204 -19.5q-208 0 -319 96.5t-111 274.5z" />
<glyph unicode="&#x428;" horiz-adv-x="2124" d="M199 0v1462h184v-1298h584v1298h184v-1298h586v1298h186v-1462h-1724z" />
<glyph unicode="&#x429;" horiz-adv-x="2132" d="M199 0v1462h184v-1298h569v1298h187v-1298h571v1298h184v-1300h177v-547h-177v385h-1695z" />
<glyph unicode="&#x42a;" horiz-adv-x="1417" d="M16 1300v162h523v-618h231q266 0 404.5 -104.5t138.5 -311.5q0 -208 -132.5 -318t-385.5 -110h-439v1300h-340zM539 158h237q178 0 262 66.5t84 203.5q0 134 -87.5 195t-286.5 61h-209v-526z" />
<glyph unicode="&#x42b;" horiz-adv-x="1757" d="M199 0v1462h184v-618h225q265 0 403 -105t138 -311q0 -207 -131.5 -317.5t-386.5 -110.5h-432zM383 156h231q178 0 261 67.5t83 204.5q0 134 -86 194t-284 60h-205v-526zM1374 0v1462h185v-1462h-185z" />
<glyph unicode="&#x42c;" horiz-adv-x="1315" d="M199 0v1462h184v-618h274q269 0 411 -106.5t142 -309.5q0 -206 -138 -317t-392 -111h-481zM383 158h279q358 0 358 270q0 133 -91.5 194.5t-293.5 61.5h-252v-526z" />
<glyph unicode="&#x42d;" horiz-adv-x="1296" d="M61 1397q174 86 416 86q217 0 373.5 -88t237.5 -251t81 -388q0 -374 -182.5 -575t-523.5 -201q-113 0 -200.5 12t-188.5 47v160q86 -23 173.5 -40.5t186.5 -17.5q264 0 398.5 140t142.5 403h-711v162h709q-20 222 -151.5 348.5t-346.5 126.5q-167 0 -338 -78z" />
<glyph unicode="&#x42e;" horiz-adv-x="2154" d="M199 0v1462h184v-618h350q23 309 191 475t454 166q306 0 478 -199t172 -553t-170 -553.5t-476 -199.5q-300 0 -470.5 183t-182.5 519h-346v-682h-184zM922 733q0 -290 114.5 -442t339.5 -152q226 0 342.5 150t116.5 444q0 293 -114.5 441.5t-340.5 148.5 q-227 0 -342.5 -150.5t-115.5 -439.5z" />
<glyph unicode="&#x42f;" horiz-adv-x="1309" d="M45 0l410 639q-155 50 -228 153t-73 261q0 198 136.5 303.5t409.5 105.5h410v-1462h-184v606h-287l-379 -606h-215zM344 1044q0 -282 369 -282h213v543h-221q-183 0 -272 -64t-89 -197z" />
<glyph unicode="&#x430;" horiz-adv-x="1149" d="M94 305q0 334 527 350l186 7v65q0 125 -54 184.5t-173 59.5q-87 0 -164.5 -26t-145.5 -58l-55 135q83 44 181 69t194 25q199 0 296 -88t97 -280v-748h-131l-35 156h-8q-82 -103 -163.5 -139.5t-205.5 -36.5q-162 0 -254 85t-92 240zM281 303q0 -86 52.5 -132t147.5 -46 q151 0 237.5 81.5t86.5 231.5v99l-162 -7q-189 -7 -275.5 -60t-86.5 -167z" />
<glyph unicode="&#x431;" horiz-adv-x="1227" d="M117 659q0 367 110.5 565.5t347.5 250.5q223 45 498 92l31 -158l-119 -19q-232 -38 -373 -67q-144 -32 -216.5 -146.5t-82.5 -332.5h13q58 81 154.5 129.5t205.5 48.5q202 0 316 -130t114 -364q0 -261 -133 -404.5t-369 -143.5q-234 0 -365.5 179t-131.5 500zM301 655 q0 -526 328 -526q297 0 297 381q0 362 -269 362q-73 0 -141.5 -30t-124 -79t-90.5 -108z" />
<glyph unicode="&#x432;" horiz-adv-x="1180" d="M174 0v1098h492q411 0 411 -277q0 -106 -60 -161.5t-171 -75.5v-9q139 -19 202.5 -82.5t63.5 -170.5q0 -156 -114.5 -239t-329.5 -83h-494zM354 145h299q279 0 279 187q0 92 -72 129t-211 37h-295v-353zM354 647h275q147 0 209.5 36.5t62.5 121.5q0 77 -59.5 110 t-179.5 33h-308v-301z" />
<glyph unicode="&#x433;" horiz-adv-x="887" d="M174 0v1098h670v-152h-490v-946h-180z" />
<glyph unicode="&#x434;" horiz-adv-x="1190" d="M39 152h88q133 185 207 428.5t78 517.5h577v-946h160v-533h-174v381h-764v-381h-172v533zM313 152h502v804h-244q-15 -221 -85.5 -443.5t-172.5 -360.5z" />
<glyph unicode="&#x435;" horiz-adv-x="1155" d="M113 541q0 264 131 420.5t354 156.5q207 0 330 -133.5t123 -361.5v-109h-752q5 -187 95 -284t255 -97q88 0 167 15.5t185 60.5v-158q-91 -39 -171 -55t-189 -16q-247 0 -387.5 149.5t-140.5 411.5zM303 657h559q-2 154 -71 234t-195 80q-129 0 -204 -83t-89 -231z" />
<glyph unicode="&#x436;" horiz-adv-x="1536" d="M2 0l492 565q-310 368 -453 533h197l444 -533v533h168v-533l446 533h195l-453 -533l492 -565h-205l-475 557v-557h-168v557l-475 -557h-205z" />
<glyph unicode="&#x437;" horiz-adv-x="1004" d="M68 51v162q183 -86 372 -86q141 0 217 47t76 139q0 94 -77 139.5t-236 45.5h-148v147h119q311 0 311 168q0 156 -249 156q-79 0 -147 -15t-163 -55l-63 143q171 76 383 76q193 0 302 -77t109 -212q0 -187 -206 -243v-8q125 -36 184 -104t59 -171q0 -151 -125 -237 t-344 -86q-242 0 -374 71z" />
<glyph unicode="&#x438;" horiz-adv-x="1317" d="M174 0v1098h170v-670l-8 -194l-4 -56l588 920h221v-1098h-168v647l3 139l5 132l-584 -918h-223z" />
<glyph unicode="&#x439;" horiz-adv-x="1317" d="M174 0v1098h170v-670l-8 -194l-4 -56l588 920h221v-1098h-168v647l3 139l5 132l-584 -918h-223zM277 1552h168q9 -104 54.5 -145t158.5 -41q103 0 152.5 44t60.5 142h170q-15 -162 -109 -236.5t-278 -74.5q-192 0 -279.5 73t-97.5 238z" />
<glyph unicode="&#x43a;" horiz-adv-x="1083" d="M174 0v1098h180v-533l469 533h197l-469 -529l508 -569h-209l-496 557v-557h-180z" />
<glyph unicode="&#x43b;" horiz-adv-x="1184" d="M14 0v135q21 -8 56 -8q110 0 175.5 232t102.5 739h662v-1098h-183v948h-323q-28 -360 -75.5 -565.5t-124 -301t-195.5 -95.5q-65 0 -95 14z" />
<glyph unicode="&#x43c;" horiz-adv-x="1528" d="M174 0v1098h225l277 -674q37 -94 82 -252q30 109 76 225l286 701h232v-1098h-162v905q-35 -109 -82 -229l-274 -676h-146l-274 680q-20 48 -39.5 105t-38.5 120v-905h-162z" />
<glyph unicode="&#x43d;" horiz-adv-x="1305" d="M174 0v1098h180v-457h596v457h180v-1098h-180v489h-596v-489h-180z" />
<glyph unicode="&#x43e;" horiz-adv-x="1239" d="M113 551q0 268 134 417.5t376 149.5q232 0 368.5 -152.5t136.5 -414.5q0 -269 -136 -420t-376 -151q-149 0 -264 69.5t-177 199.5t-62 302zM299 551q0 -207 81.5 -314.5t240.5 -107.5q157 0 239 107.5t82 314.5t-82.5 311.5t-241.5 104.5q-319 0 -319 -416z" />
<glyph unicode="&#x43f;" horiz-adv-x="1278" d="M174 0v1098h928v-1098h-180v944h-568v-944h-180z" />
<glyph unicode="&#x440;" horiz-adv-x="1260" d="M174 -492v1590h148l24 -150h8q64 90 148 130t194 40q214 0 332.5 -148.5t118.5 -418.5q0 -269 -119 -420t-334 -151q-221 0 -340 159h-12l4 -41q8 -78 8 -139v-451h-180zM354 551q0 -223 74 -322.5t240 -99.5q138 0 215.5 112t77.5 312q0 201 -77.5 307.5t-219.5 106.5 q-163 0 -235.5 -92t-74.5 -289v-35z" />
<glyph unicode="&#x441;" horiz-adv-x="983" d="M113 543q0 276 133.5 425.5t380.5 149.5q80 0 158.5 -16.5t129.5 -42.5l-55 -150q-139 52 -237 52q-166 0 -245 -104.5t-79 -311.5q0 -199 79 -304.5t234 -105.5q145 0 285 64v-160q-114 -59 -283 -59q-237 0 -369 145.5t-132 417.5z" />
<glyph unicode="&#x442;" horiz-adv-x="975" d="M41 946v152h891v-152h-359v-946h-178v946h-354z" />
<glyph unicode="&#x443;" horiz-adv-x="1044" d="M2 1098h193l237 -625q75 -204 92 -299h8q9 37 41 138.5t54 162.5l223 623h194l-473 -1250q-69 -182 -164 -261t-235 -79q-75 0 -149 17v143q50 -12 120 -12q86 0 146 47.5t98 146.5l57 146z" />
<glyph unicode="&#x444;" horiz-adv-x="1485" d="M111 549q0 250 144 397.5t404 167.5v442h170v-442q253 -25 398 -175t145 -390q0 -245 -143.5 -395t-399.5 -170v-476h-176v476q-252 21 -397 171t-145 394zM299 549q0 -381 360 -418v834q-188 -19 -274 -124.5t-86 -291.5zM829 131q357 39 357 418q0 375 -357 414v-832z " />
<glyph unicode="&#x445;" horiz-adv-x="1083" d="M37 0l397 561l-379 537h205l283 -414l280 414h203l-379 -537l400 -561h-205l-299 438l-303 -438h-203z" />
<glyph unicode="&#x446;" horiz-adv-x="1294" d="M174 0v1098h180v-946h568v946h180v-948h155v-531h-176v381h-907z" />
<glyph unicode="&#x447;" horiz-adv-x="1255" d="M152 686v412h180v-400q0 -188 211 -188q92 0 174.5 27.5t183.5 89.5v471h180v-1098h-180v489q-110 -71 -198.5 -99t-196.5 -28q-164 0 -259 86t-95 238z" />
<glyph unicode="&#x448;" horiz-adv-x="1839" d="M174 0v1098h180v-946h473v946h181v-946h475v946h180v-1098h-1489z" />
<glyph unicode="&#x449;" horiz-adv-x="1855" d="M174 0v1098h180v-946h473v946h181v-946h475v946h178v-948h160v-529h-181v379h-1466z" />
<glyph unicode="&#x44a;" horiz-adv-x="1425" d="M37 946v152h530v-451h303q445 0 445 -311q0 -336 -447 -336h-481v946h-350zM567 145h303q267 0 267 181q0 90 -60.5 130t-212.5 40h-297v-351z" />
<glyph unicode="&#x44b;" horiz-adv-x="1593" d="M174 0v1098h180v-451h285q214 0 316 -78t102 -233q0 -167 -108 -251.5t-318 -84.5h-457zM354 145h260q265 0 265 181q0 89 -59.5 130.5t-203.5 41.5h-262v-353zM1239 0v1098h180v-1098h-180z" />
<glyph unicode="&#x44c;" horiz-adv-x="1217" d="M174 0v1098h180v-451h326q428 0 428 -311q0 -164 -111 -250t-325 -86h-498zM354 145h310q127 0 195.5 46t68.5 135q0 88 -62 130t-207 42h-305v-353z" />
<glyph unicode="&#x44d;" horiz-adv-x="1012" d="M59 39v156q154 -62 295 -62q336 0 359 359h-541v147h539q-14 168 -95 246t-237 78q-105 0 -256 -54l-51 146q64 29 146.5 46t158.5 17q257 0 389.5 -145.5t132.5 -423.5q0 -271 -143.5 -420t-405.5 -149q-169 0 -291 59z" />
<glyph unicode="&#x44e;" horiz-adv-x="1712" d="M174 0v1098h180v-457h281q22 229 148 353t335 124q222 0 351.5 -153t129.5 -414q0 -270 -129.5 -420.5t-355.5 -150.5q-214 0 -340.5 133.5t-140.5 375.5h-279v-489h-180zM817 551q0 -208 71 -315t228 -107t227 107t70 315q0 205 -71 310.5t-226 105.5 q-157 0 -228 -105.5t-71 -310.5z" />
<glyph unicode="&#x44f;" horiz-adv-x="1145" d="M33 0l313 461q-126 32 -191 113t-65 200q0 152 103 238t286 86h492v-1098h-180v436h-267l-282 -436h-209zM264 772q0 -186 268 -186h259v362h-293q-115 0 -174.5 -45t-59.5 -131z" />
<glyph unicode="&#x450;" horiz-adv-x="1155" d="M113 541q0 264 131 420.5t354 156.5q207 0 330 -133.5t123 -361.5v-109h-752q5 -187 95 -284t255 -97q88 0 167 15.5t185 60.5v-158q-91 -39 -171 -55t-189 -16q-247 0 -387.5 149.5t-140.5 411.5zM303 657h559q-2 154 -71 234t-195 80q-129 0 -204 -83t-89 -231z M314 1548v21h215q32 -66 91 -157.5t106 -145.5v-25h-121q-75 60 -164.5 155.5t-126.5 151.5z" />
<glyph unicode="&#x451;" horiz-adv-x="1155" d="M113 541q0 264 131 420.5t354 156.5q207 0 330 -133.5t123 -361.5v-109h-752q5 -187 95 -284t255 -97q88 0 167 15.5t185 60.5v-158q-91 -39 -171 -55t-189 -16q-247 0 -387.5 149.5t-140.5 411.5zM303 657h559q-2 154 -71 234t-195 80q-129 0 -204 -83t-89 -231z M311 1395q0 53 28 76.5t68 23.5q39 0 68 -23.5t29 -76.5t-29 -78t-68 -25q-40 0 -68 25t-28 78zM696 1395q0 53 28 76.5t66 23.5q39 0 68 -23.5t29 -76.5t-29 -78t-68 -25q-38 0 -66 25t-28 78z" />
<glyph unicode="&#x452;" horiz-adv-x="1266" d="M18 1239v133h156v184h180v-184h394v-133h-394v-180q0 -61 -8 -152h10q49 78 139 124t205 46q200 0 301 -95.5t101 -305.5v-838q0 -160 -72 -245t-213 -85q-80 0 -137 25v148q55 -21 113 -21q129 0 129 170v834q0 133 -59.5 197.5t-184.5 64.5q-169 0 -245.5 -93.5 t-76.5 -304.5v-528h-182v1239h-156z" />
<glyph unicode="&#x453;" horiz-adv-x="887" d="M174 0v1098h670v-152h-490v-946h-180zM378 1241v25q38 48 96.5 136.5t98.5 166.5h217v-21q-44 -64 -137 -161t-156 -146h-119z" />
<glyph unicode="&#x454;" horiz-adv-x="1014" d="M113 543q0 279 137.5 427t390.5 148q84 0 164 -16.5t139 -42.5l-53 -148q-137 52 -254 52q-158 0 -239.5 -80t-98.5 -244h539v-147h-541q9 -184 91 -271.5t243 -87.5q93 0 164 18.5t133 43.5v-156q-120 -59 -293 -59q-250 0 -386 144.5t-136 418.5z" />
<glyph unicode="&#x455;" horiz-adv-x="981" d="M104 827q0 135 110 213t302 78q187 0 350 -74l-61 -143q-167 70 -301 70q-112 0 -170 -35.5t-58 -97.5q0 -60 50 -99.5t233 -109.5q137 -51 202.5 -95t96.5 -99t31 -132q0 -154 -115 -238.5t-323 -84.5q-217 0 -345 69v164q181 -88 349 -88q136 0 198 44t62 118 q0 65 -59.5 110t-211.5 103q-155 60 -218 102.5t-92.5 95.5t-29.5 129z" />
<glyph unicode="&#x456;" horiz-adv-x="528" d="M160 1395q0 60 30.5 87t75.5 27q42 0 73.5 -27t31.5 -87q0 -59 -31.5 -87t-73.5 -28q-45 0 -75.5 28t-30.5 87zM174 0v1098h180v-1098h-180z" />
<glyph unicode="&#x457;" horiz-adv-x="528" d="M-20 1395q0 53 28 76.5t68 23.5q39 0 68 -23.5t29 -76.5t-29 -78t-68 -25q-40 0 -68 25t-28 78zM174 0v1098h180v-1098h-180zM365 1395q0 53 28 76.5t66 23.5q39 0 68 -23.5t29 -76.5t-29 -78t-68 -25q-38 0 -66 25t-28 78z" />
<glyph unicode="&#x458;" horiz-adv-x="528" d="M-113 -322q69 -20 136 -20q78 0 114.5 42.5t36.5 129.5v1268h180v-1262q0 -164 -78.5 -246t-230.5 -82q-94 0 -158 25v145zM160 1395q0 60 30.5 87t75.5 27q42 0 73.5 -27t31.5 -87q0 -59 -31.5 -87t-73.5 -28q-45 0 -75.5 28t-30.5 87z" />
<glyph unicode="&#x459;" horiz-adv-x="1724" d="M14 0v133q29 -8 54 -8q107 0 175 228.5t105 744.5h592v-451h254q422 0 422 -311q0 -336 -442 -336h-416v946h-256q-27 -357 -75 -563.5t-123 -301.5t-193 -95q-67 0 -97 14zM940 145h227q132 0 200.5 46t68.5 135t-62.5 129.5t-212.5 40.5h-221v-351z" />
<glyph unicode="&#x45a;" horiz-adv-x="1815" d="M174 0v1098h184v-457h492v457h182v-453h246q220 0 323 -77.5t103 -231.5q0 -336 -438 -336h-420v489h-488v-489h-184zM1028 145h229q269 0 269 181q0 90 -62.5 130t-210.5 40h-225v-351z" />
<glyph unicode="&#x45b;" horiz-adv-x="1266" d="M18 1237v135h156v184h180v-184h434v-135h-434v-178q0 -88 -10 -152h12q53 85 144.5 127.5t199.5 42.5q199 0 299.5 -96.5t100.5 -306.5v-674h-178v662q0 133 -59.5 198.5t-186.5 65.5q-169 0 -245.5 -92.5t-76.5 -305.5v-528h-180v1237h-156z" />
<glyph unicode="&#x45c;" horiz-adv-x="1083" d="M174 0v1098h180v-533l469 533h197l-469 -529l508 -569h-209l-496 557v-557h-180zM450 1241v25q38 48 96.5 136.5t98.5 166.5h217v-21q-44 -64 -137 -161t-156 -146h-119z" />
<glyph unicode="&#x45d;" horiz-adv-x="1317" d="M174 0v1098h170v-670l-8 -194l-4 -56l588 920h221v-1098h-168v647l3 139l5 132l-584 -918h-223zM357 1548v21h215q32 -66 91 -157.5t106 -145.5v-25h-121q-75 60 -164.5 155.5t-126.5 151.5z" />
<glyph unicode="&#x45e;" horiz-adv-x="1044" d="M2 1098h193l237 -625q75 -204 92 -299h8q9 37 41 138.5t54 162.5l223 623h194l-473 -1250q-69 -182 -164 -261t-235 -79q-75 0 -149 17v143q50 -12 120 -12q86 0 146 47.5t98 146.5l57 146zM142 1552h168q9 -104 54.5 -145t158.5 -41q103 0 152.5 44t60.5 142h170 q-15 -162 -109 -236.5t-278 -74.5q-192 0 -279.5 73t-97.5 238z" />
<glyph unicode="&#x45f;" horiz-adv-x="1282" d="M174 0v1098h180v-946h572v946h180v-1098h-373v-379h-176v379h-383z" />
<glyph unicode="&#x460;" horiz-adv-x="2087" d="M131 766q0 339 129.5 527t362.5 188q156 0 280 -84l-74 -152q-44 29 -91 50.5t-107 21.5q-146 0 -226.5 -146t-80.5 -407q0 -295 101.5 -460t287.5 -165q62 0 124 19.5t111 56.5v451h185v-451q98 -76 237 -76q185 0 287 162.5t102 462.5q0 264 -81.5 408.5t-225.5 144.5 q-60 0 -107.5 -21.5t-91.5 -50.5l-73 152q126 84 280 84q233 0 363.5 -187t130.5 -528q0 -371 -143.5 -578.5t-403.5 -207.5q-116 0 -203 25t-162 75h-6q-73 -50 -158 -75t-200 -25q-262 0 -404.5 206.5t-142.5 579.5z" />
<glyph unicode="&#x461;" horiz-adv-x="1692" d="M0 1098h186l88 -248q100 -280 153 -445.5t75 -273.5h8q29 86 104 242q97 202 125 266l-166 459h195l201 -594q12 -37 28 -85.5t32 -98t29.5 -94t20.5 -74.5h8q166 180 240 395.5t74 550.5h180q0 -367 -98.5 -620t-315.5 -478h-190l-125 336q-29 75 -39 113 q-34 -105 -151 -338l-54 -111h-223z" />
<glyph unicode="&#x462;" horiz-adv-x="1382" d="M18 1077v156h314v229h186v-229h414v-156h-414v-233h193q565 0 565 -416q0 -212 -136 -320t-399 -108h-409v1077h-314zM518 156h203q192 0 278 67.5t86 204.5t-92 195.5t-303 58.5h-172v-526z" />
<glyph unicode="&#x463;" horiz-adv-x="1300" d="M18 948v150h240v221h178v-221h346v-150h-346v-303h309q445 0 445 -309q0 -165 -112.5 -250.5t-336.5 -85.5h-483v948h-240zM436 145h297q136 0 207.5 46t71.5 135t-64 129.5t-219 40.5h-293v-351z" />
<glyph unicode="&#x464;" horiz-adv-x="1888" d="M199 0v1462h184v-618h342q32 303 215.5 470t489.5 169q218 0 399 -94l-74 -156q-105 51 -183.5 69.5t-148.5 18.5q-221 0 -348.5 -122t-156.5 -355h692v-160h-697q10 -267 141 -405t367 -138q156 0 353 58v-160q-93 -34 -179.5 -46.5t-199.5 -12.5q-319 0 -492.5 182.5 t-183.5 519.5h-336v-682h-184z" />
<glyph unicode="&#x465;" horiz-adv-x="1520" d="M174 0v1098h180v-457h283q24 232 157.5 354.5t358.5 122.5q163 0 295 -59l-53 -148q-128 52 -242 52q-157 0 -236.5 -79t-95.5 -243h525v-152h-527q9 -182 91 -269t241 -87q89 0 156 18.5t127 43.5v-156q-61 -31 -125 -45t-158 -14q-237 0 -370 132t-146 377h-281v-489 h-180z" />
<glyph unicode="&#x466;" horiz-adv-x="1399" d="M0 0l610 1462h178l611 -1462h-195l-278 676h-144v-676h-168v676h-143l-281 -676h-190zM535 834h329l-80 198q-58 150 -86 250q-10 -39 -33 -107.5t-130 -340.5z" />
<glyph unicode="&#x467;" d="M8 0l465 1098h221l467 -1098h-184l-203 481h-108v-481h-162v481h-113l-198 -481h-185zM449 629h270q-99 245 -131 348h-8q-11 -35 -23 -69t-108 -279z" />
<glyph unicode="&#x468;" horiz-adv-x="1903" d="M199 0v1462h184v-618h473l258 618h180l609 -1462h-201l-277 682h-139v-682h-166v682h-141l-279 -682h-196l284 682h-405v-682h-184zM1042 842h318l-74 196q-60 152 -84 244q-23 -94 -88 -256z" />
<glyph unicode="&#x469;" horiz-adv-x="1597" d="M174 0v1098h176v-459h355l194 459h221l465 -1098h-182l-205 489h-108v-489h-162v489h-107l-205 -489h-184l207 489h-289v-489h-176zM874 637h267l-58 145q-35 89 -69 195h-8q-40 -128 -76 -211z" />
<glyph unicode="&#x46a;" horiz-adv-x="1493" d="M23 0l135 453q46 155 95 226.5t124.5 110t189.5 46.5l-409 491v135h1177v-135l-417 -491q115 -7 191.5 -45.5t127.5 -113t97.5 -230.5t133.5 -447h-188l-135 449q-32 105 -65 153.5t-82.5 70t-131.5 21.5h-28v-694h-185v694h-26q-81 0 -129.5 -20.5t-80 -67t-65.5 -157.5 l-133 -449h-196zM379 1296l366 -440l367 440h-733z" />
<glyph unicode="&#x46b;" horiz-adv-x="1311" d="M12 0l129 336q54 138 93 187t95.5 77.5t145.5 38.5l-332 354v105h1020v-105l-332 -354q83 -8 137 -33t90 -64t59.5 -91.5t47.5 -114.5l129 -336h-180l-129 332q-33 85 -60.5 119t-67 48.5t-109.5 14.5h-11v-514h-166v514h-14q-66 0 -105.5 -14t-67 -47t-62.5 -121 l-132 -332h-178zM371 950l282 -309l283 309h-565z" />
<glyph unicode="&#x46c;" horiz-adv-x="2015" d="M199 0v1462h184v-618h711l-402 483v135h1178v-135l-416 -493q115 -7 191.5 -45.5t126.5 -109.5t96 -226l137 -453h-182l-137 449q-36 110 -69 156.5t-83.5 66.5t-136.5 20h-23v-692h-186v692h-21q-126 0 -183.5 -49t-100.5 -194l-133 -449h-193l39 128q91 315 131.5 416 t75.5 138h-420v-682h-184zM915 1296l367 -442l365 442h-732z" />
<glyph unicode="&#x46d;" horiz-adv-x="1739" d="M174 0v1098h176v-457h555l-330 352v105h1020v-105l-331 -356q83 -8 136.5 -32.5t89.5 -63.5t59.5 -91t47.5 -114l129 -336h-180l-129 332q-33 84 -61 118t-68.5 48t-107.5 14h-11v-512h-165v512h-11q-68 0 -108.5 -14t-68.5 -47t-62 -119l-131 -332h-179l129 336 q45 116 82 156h-305v-492h-176zM803 950l282 -303l283 303h-565z" />
<glyph unicode="&#x46e;" horiz-adv-x="1202" d="M61 -133q0 131 110 196.5t343 75.5q197 6 290 71.5t93 207.5q0 262 -451 262h-208v154h200q215 0 322.5 72.5t107.5 195.5q0 106 -79.5 167.5t-215.5 61.5q-109 0 -206.5 -30t-196.5 -95l-90 125q167 114 360 142q-51 58 -223 239v27h131q92 -59 223 -195 q93 117 158.5 160t130.5 43q55 0 103 -14v-117q-31 12 -70 12q-44 0 -99.5 -41t-103.5 -112q173 -23 271 -118t98 -237t-95.5 -233.5t-263.5 -116.5v-8q187 -24 288.5 -114t101.5 -232q0 -207 -144.5 -315t-427.5 -115q-96 -3 -155 -16.5t-86 -36.5t-27 -68q0 -53 42 -78 t130 -25q96 0 216 7q120 6 185 6q153 0 221 -39v-174q-70 51 -231 51q-66 0 -174 -5q-109 -5 -213 -5q-182 0 -273.5 65t-91.5 199z" />
<glyph unicode="&#x46f;" horiz-adv-x="1004" d="M25 -125q0 122 96.5 186t284.5 68q167 2 247 48.5t80 137.5q0 96 -78 139.5t-239 43.5h-144v147h119q311 0 311 168q0 156 -249 156q-141 0 -310 -70l-63 143q132 54 250 70q-107 131 -193 213v27h131q72 -50 213 -189q89 112 157 154.5t134 42.5q58 0 100 -14v-117 q-24 10 -67 10q-47 0 -97.5 -38.5t-95.5 -98.5q122 -28 192 -97t70 -176q0 -187 -210 -243v-8q130 -37 188.5 -104t58.5 -167q0 -153 -125.5 -236t-351.5 -85q-131 -3 -188.5 -26t-57.5 -83q0 -50 38.5 -71t125.5 -21q110 0 205 5t170 5q123 0 164 -41v-151q-27 23 -72 33 t-88 10l-177 -5q-114 -6 -220 -6q-149 0 -229 61.5t-80 178.5z" />
<glyph unicode="&#x470;" horiz-adv-x="1647" d="M109 979v483h184v-479q0 -381 412 -381h26v860h180v-860h29q410 0 410 377v483h188v-481q0 -166 -71 -289.5t-200.5 -185.5t-308.5 -62h-47v-444h-180v444h-45q-186 0 -314.5 65.5t-195.5 185.5t-67 284z" />
<glyph unicode="&#x471;" horiz-adv-x="1559" d="M162 553v545h178v-551q0 -391 356 -416v1423h176v-1421q191 18 288 129t97 311q0 131 -14.5 245.5t-50.5 279.5h178q64 -276 64 -518q0 -277 -143 -429t-419 -169v-474h-176v474q-266 9 -400 153t-134 418z" />
<glyph unicode="&#x472;" horiz-adv-x="1602" d="M125 735q0 357 175.5 553.5t502.5 196.5q318 0 495 -199.5t177 -552.5q0 -351 -177.5 -552t-496.5 -201q-323 0 -499.5 197.5t-176.5 557.5zM322 666q13 -260 134.5 -393.5t344.5 -133.5q222 0 343.5 133.5t133.5 393.5h-956zM322 825h954q-19 248 -138.5 373t-334.5 125 q-218 0 -340 -125.5t-141 -372.5z" />
<glyph unicode="&#x473;" horiz-adv-x="1239" d="M113 551q0 268 134 417.5t376 149.5q232 0 368.5 -152.5t136.5 -414.5q0 -269 -136 -420t-376 -151q-149 0 -264 69.5t-177 199.5t-62 302zM299 489q18 -360 322 -360q156 0 232 92t87 268h-641zM301 639h639q-30 328 -322 328q-152 0 -227.5 -83t-89.5 -245z" />
<glyph unicode="&#x474;" horiz-adv-x="1300" d="M0 1462h193l333 -936q70 -193 103 -338q29 139 98 361l164 518q59 190 101 266t97 109t144 33q42 0 129 -21v-151q-56 20 -102 20q-61 0 -100 -52t-91 -222l-332 -1049h-211z" />
<glyph unicode="&#x475;" horiz-adv-x="1057" d="M0 1098h188l261 -727q66 -191 75 -244h8q31 165 64 260l143 447q54 167 109.5 220.5t167.5 53.5q38 0 84 -12v-140q-29 11 -70 11q-46 0 -74.5 -41t-56.5 -127l-252 -799h-239q-140 370 -408 1098z" />
<glyph unicode="&#x476;" horiz-adv-x="1300" d="M0 1462h193l333 -936q70 -193 103 -338q29 139 98 361l164 518q59 190 101 266t97 109t144 33q42 0 129 -21v-151q-56 20 -102 20q-61 0 -100 -52t-91 -222l-332 -1049h-211zM184 1886v21h199q28 -61 77.5 -148t98.5 -155v-25h-102q-65 52 -152.5 152t-120.5 155z M545 1886v21h198q28 -61 77.5 -148t98.5 -155v-25h-102q-60 48 -148 147.5t-124 159.5z" />
<glyph unicode="&#x477;" horiz-adv-x="1057" d="M0 1098h188l261 -727q66 -191 75 -244h8q31 165 64 260l143 447q54 167 109.5 220.5t167.5 53.5q38 0 84 -12v-140q-29 11 -70 11q-46 0 -74.5 -41t-56.5 -127l-252 -799h-239q-140 370 -408 1098zM74 1548v21h199q28 -61 77.5 -148t98.5 -155v-25h-102 q-65 52 -152.5 152t-120.5 155zM435 1548v21h198q28 -61 77.5 -148t98.5 -155v-25h-102q-60 48 -148 147.5t-124 159.5z" />
<glyph unicode="&#x478;" horiz-adv-x="2499" d="M125 735q0 362 162.5 556t462.5 194q295 0 457.5 -198.5t162.5 -553.5t-164 -554t-458 -199q-298 0 -460.5 195.5t-162.5 559.5zM317 733q0 -292 109.5 -443t321.5 -151t320 149t108 445q0 295 -108 442.5t-318 147.5q-211 0 -322 -148t-111 -442zM1450 1098h190 l244 -629q68 -177 92 -297h9q16 81 94 299l219 627h190l-469 -1250q-69 -182 -164.5 -261t-234.5 -79q-78 0 -152 17v143q55 -12 121 -12q85 0 144.5 46t101.5 148l57 146z" />
<glyph unicode="&#x479;" horiz-adv-x="2189" d="M113 551q0 268 134 417.5t376 149.5q232 0 368.5 -152.5t136.5 -414.5q0 -269 -136 -420t-376 -151q-149 0 -264 69.5t-177 199.5t-62 302zM299 551q0 -207 81.5 -314.5t240.5 -107.5q157 0 239 107.5t82 314.5t-82.5 311.5t-241.5 104.5q-319 0 -319 -416zM1145 1098 h193l237 -625q75 -204 92 -299h8q9 37 41 138.5t54 162.5l223 623h194l-473 -1250q-69 -182 -164 -261t-235 -79q-75 0 -149 17v143q50 -12 120 -12q86 0 146 47.5t98 146.5l57 146z" />
<glyph unicode="&#x47a;" horiz-adv-x="1681" d="M125 735q0 309 150.5 502t422.5 236q20 108 144 108q118 0 143 -108q269 -44 420 -241.5t151 -498.5q0 -305 -152 -502.5t-417 -240.5q-26 -111 -145 -111q-124 0 -144 111q-267 40 -420 236t-153 509zM317 733q0 -238 97.5 -387.5t283.5 -191.5q17 48 53.5 67t90.5 19 q105 0 141 -86q187 42 283 191.5t96 387.5q0 240 -97 388t-282 188q-31 -88 -141 -88q-113 0 -144 86q-186 -40 -283.5 -189t-97.5 -385z" />
<glyph unicode="&#x47b;" horiz-adv-x="1350" d="M113 551q0 232 113.5 376.5t322.5 180.5q8 54 39 75t88 21q54 0 87 -21t42 -77q205 -38 318.5 -185t113.5 -370q0 -232 -111 -377.5t-321 -183.5q-9 -53 -41 -76t-88 -23q-57 0 -88.5 22.5t-40.5 78.5q-205 36 -319.5 184t-114.5 375zM299 551q0 -351 252 -410 q12 42 42 59t83 17q102 0 127 -74q248 60 248 408q0 341 -248 403q-14 -42 -44.5 -58.5t-82.5 -16.5q-54 0 -84.5 17t-42.5 60q-131 -31 -190.5 -133t-59.5 -272z" />
<glyph unicode="&#x47c;" horiz-adv-x="2064" d="M123 766q0 341 130.5 528t362.5 187q156 0 277 -86q-27 -62 -72 -152q-41 29 -88.5 51.5t-107.5 22.5q-147 0 -228.5 -145t-81.5 -408q0 -295 103 -460t289 -165q94 0 179 37t144 100q62 -64 148.5 -100.5t175.5 -36.5q185 0 288 165t103 460q0 264 -81.5 408.5 t-225.5 144.5q-60 0 -108.5 -22.5t-90.5 -51.5q-45 90 -72 152q121 86 277 86q234 0 363.5 -188.5t129.5 -526.5q0 -372 -146.5 -579t-408.5 -207q-113 0 -196 23.5t-156 70.5q-75 -48 -158.5 -71t-195.5 -23q-265 0 -409 206t-144 580zM707 1866v30q0 110 62 165t171 55 q58 0 114.5 -18.5t116 -41t125.5 -41t144 -18.5h12v-127h-16q-87 0 -159 17.5t-132 38.5t-109.5 38.5t-91.5 17.5q-106 0 -106 -116h-131zM922 1540v74q58 18 89 43t31 51q0 20 -15.5 29t-34.5 17.5t-34.5 21.5t-15.5 41q0 38 26.5 57.5t71.5 19.5q57 0 91 -35t34 -94 q0 -80 -61.5 -138.5t-181.5 -86.5z" />
<glyph unicode="&#x47d;" horiz-adv-x="1671" d="M111 543q0 276 104.5 425.5t298.5 149.5q63 0 123 -16t102 -41l-59 -148q-91 52 -160 52q-114 0 -168.5 -104.5t-54.5 -315.5q0 -412 297 -412q57 0 114 18.5t128 65.5q116 -84 241 -84q295 0 295 412q0 420 -221 420q-71 0 -162 -52l-59 148q41 25 102.5 41t124.5 16 q193 0 297.5 -150t104.5 -425q0 -269 -126 -416t-354 -147q-148 0 -245 69q-47 -32 -103 -50.5t-139 -18.5q-230 0 -355.5 147.5t-125.5 415.5zM479 1556v31q0 110 61 163.5t173 53.5q58 0 114 -18t115.5 -40t125 -40t142.5 -18h15v-129h-17q-87 0 -159 18t-132 39t-109 39 t-91 18q-53 0 -80 -27.5t-27 -89.5h-131zM694 1231v72q119 40 119 98q0 29 -49 46q-49 16 -49 60q0 78 98 78q57 0 91 -35t34 -94q0 -81 -62.5 -139t-181.5 -86z" />
<glyph unicode="&#x47e;" horiz-adv-x="2087" d="M131 766q0 339 129.5 527t362.5 188q156 0 280 -84l-74 -152q-44 29 -91 50.5t-107 21.5q-146 0 -226.5 -146t-80.5 -407q0 -295 101.5 -460t287.5 -165q62 0 124 19.5t111 56.5v451h185v-451q98 -76 237 -76q185 0 287 162.5t102 462.5q0 264 -81.5 408.5t-225.5 144.5 q-60 0 -107.5 -21.5t-91.5 -50.5l-73 152q126 84 280 84q233 0 363.5 -187t130.5 -528q0 -371 -143.5 -578.5t-403.5 -207.5q-116 0 -203 25t-162 75h-6q-73 -50 -158 -75t-200 -25q-262 0 -404.5 206.5t-142.5 579.5zM625 1769v33h828v-33l-82 -172h-33l-49 102h-187 l-49 -102h-33l-49 102h-184l-49 -102h-33z" />
<glyph unicode="&#x47f;" horiz-adv-x="1692" d="M0 1098h186l88 -248q100 -280 153 -445.5t75 -273.5h8q29 86 104 242q97 202 125 266l-166 459h195l201 -594q12 -37 28 -85.5t32 -98t29.5 -94t20.5 -74.5h8q166 180 240 395.5t74 550.5h180q0 -367 -98.5 -620t-315.5 -478h-190l-125 336q-29 75 -39 113 q-34 -105 -151 -338l-54 -111h-223zM387 1411v33h828v-33l-82 -172h-33l-49 102h-187l-49 -102h-33l-49 102h-184l-49 -102h-33z" />
<glyph unicode="&#x480;" horiz-adv-x="1317" d="M123 731q0 225 88 397t251.5 263.5t381.5 91.5q230 0 413 -86l-75 -158q-172 80 -342 80q-243 0 -382 -158.5t-139 -431.5q0 -289 130 -436.5t385 -147.5q111 0 182 25v-662h-185v472q-346 0 -527 192.5t-181 558.5z" />
<glyph unicode="&#x481;" horiz-adv-x="1008" d="M113 543q0 277 137 426t391 149q77 0 156.5 -15.5t140.5 -43.5l-53 -150q-150 52 -250 52q-170 0 -253 -101t-83 -315q0 -215 84 -313.5t248 -98.5q66 0 110.5 12.5t85.5 30.5v-668h-180v472h-20q-254 2 -384 145.5t-130 417.5z" />
<glyph unicode="&#x482;" horiz-adv-x="1247" d="M104 549l68 117l289 -168l203 354l-289 166l69 119l287 -168l184 317l121 -69l-184 -318l289 -166l-70 -117l-285 166l-204 -352l286 -168l-67 -117l-287 166l-182 -315l-123 67l182 320z" />
<glyph unicode="&#x483;" horiz-adv-x="1141" d="M201 1272q0 53 21 74.5t75 21.5h451q6 47 28 70.5t70 23.5q51 0 73.5 -24.5t22.5 -77.5q0 -56 -22 -77t-76 -21h-453q-6 -45 -27 -70t-69 -25q-53 0 -73.5 26t-20.5 79z" />
<glyph unicode="&#x484;" horiz-adv-x="1182" d="M248 1255v129h12q120 0 270 59q149 58 230 58q109 0 170 -53.5t61 -163.5v-33h-129v19q0 100 -106 100q-43 0 -93 -18t-110 -39.5t-131.5 -39.5t-157.5 -18h-16z" />
<glyph unicode="&#x485;" horiz-adv-x="1182" d="M477 1464q0 57 35 93t92 36q47 0 72.5 -20.5t25.5 -59.5q0 -27 -15.5 -39.5t-33.5 -20.5t-33.5 -17t-15.5 -29q0 -58 119 -94v-76q-246 58 -246 227z" />
<glyph unicode="&#x486;" horiz-adv-x="1182" d="M479 1237v76q119 37 119 94q0 20 -15.5 29t-33.5 17t-33.5 20.5t-15.5 39.5q0 39 26 59.5t72 20.5q57 0 91 -36t34 -93q0 -169 -244 -227z" />
<glyph unicode="&#x487;" horiz-adv-x="0" d="M-377 1556v31q0 110 62 164.5t172 54.5q58 0 114 -18.5t115.5 -40.5t125.5 -40.5t144 -18.5h13v-127h-17q-87 0 -158.5 17.5t-131.5 38.5t-109.5 38.5t-91.5 17.5q-107 0 -107 -117h-131z" />
<glyph unicode="&#x488;" horiz-adv-x="2025" d="M41 459q5 90 55.5 142t153.5 52q92 0 149.5 -51t63.5 -143h-80q-5 45 -35 66.5t-98 21.5q-78 0 -103 -19.5t-30 -68.5h-76zM219 -41q5 90 55.5 142.5t153.5 52.5q92 0 149.5 -51t63.5 -144h-80q-5 45 -35 66.5t-98 21.5q-78 0 -103 -19.5t-30 -68.5h-76zM219 946 q5 90 55.5 142.5t153.5 52.5q92 0 149.5 -51t63.5 -144h-80q-5 45 -35 66.5t-98 21.5q-78 0 -103 -19.5t-30 -68.5h-76zM793 -319q5 89 55 141.5t153 52.5q92 0 149.5 -51t63.5 -143h-79q-5 44 -35 66t-99 22q-78 0 -103 -20.5t-30 -67.5h-75zM793 1231q11 194 208 194 q93 0 149.5 -50.5t63.5 -143.5h-79q-5 44 -35 66t-99 22q-78 0 -103 -20.5t-30 -67.5h-75zM1372 -41q5 90 55.5 142.5t153.5 52.5q92 0 149.5 -51t63.5 -144h-80q-5 45 -35 66.5t-98 21.5q-78 0 -103 -19.5t-30 -68.5h-76zM1372 946q5 90 55.5 142.5t153.5 52.5 q92 0 149.5 -51t63.5 -144h-80q-5 45 -35 66.5t-98 21.5q-78 0 -103 -19.5t-30 -68.5h-76zM1563 459q11 194 209 194q92 0 149.5 -52t63.5 -142h-80q-5 44 -35 66t-98 22q-78 0 -103.5 -20t-30.5 -68h-75z" />
<glyph unicode="&#x489;" horiz-adv-x="1958" d="M41 565v97q221 -53 350 -70v-139l-14 -11q-66 17 -161.5 52t-174.5 71zM236 -55q189 117 296 196l99 -96q0 -23 -93.5 -70t-232.5 -98zM324 1202l67 70q123 -198 199 -297l-98 -98q-17 0 -45 43.5t-68 139.5t-55 142zM870 -385q53 221 70 350h139l11 -14 q-17 -66 -52 -161.5t-71 -174.5h-97zM870 1155q19 71 55.5 171t67.5 165h97q-52 -220 -70 -350h-139zM1325 1016q0 23 87 68.5t239 101.5l69 -68q-234 -152 -297 -198zM1366 86l96 98l19 -4q38 -66 83 -163t68 -158l-67 -70q-144 222 -199 297zM1567 512v139l14 11 q71 -19 171 -55.5t165 -67.5v-97q-221 53 -350 70z" />
<glyph unicode="&#x48a;" horiz-adv-x="1608" d="M199 0v1462h172v-805q0 -149 -11 -326l-4 -81h9l804 1212h203v-1300h201l-148 -547h-211l158 385h-170v795q0 169 19 419h-9l-809 -1214h-204zM410 1890h165q10 -108 56.5 -147t156.5 -39q105 0 154.5 46.5t58.5 139.5h170q-13 -163 -108.5 -237t-278.5 -74 q-190 0 -276.5 71.5t-97.5 239.5z" />
<glyph unicode="&#x48b;" horiz-adv-x="1350" d="M174 0v1098h170v-639q0 -95 -12 -281l588 920h221v-946h188l-129 -531h-184l125 379h-168v649l3 143l5 128l-586 -920h-221zM299 1552h166q8 -103 54 -144.5t159 -41.5q105 0 154.5 46.5t58.5 139.5h170q-12 -160 -107 -235.5t-280 -75.5q-190 0 -277 72t-98 239z" />
<glyph unicode="&#x48c;" horiz-adv-x="1255" d="M47 1118v160h152v184h184v-184h336v-160h-336v-274h184q588 0 588 -416q0 -209 -139 -318.5t-414 -109.5h-403v1118h-152zM383 156h209q189 0 280 67.5t91 204.5q0 131 -91.5 192.5t-287.5 61.5h-201v-526z" />
<glyph unicode="&#x48d;" horiz-adv-x="1217" d="M18 1176v137h156v243h180v-243h303v-137h-303v-529h308q446 0 446 -311q0 -164 -113 -250t-338 -86h-483v1176h-156zM354 145h295q136 0 207.5 45.5t71.5 135.5q0 89 -64 129.5t-219 40.5h-291v-351z" />
<glyph unicode="&#x48e;" horiz-adv-x="1255" d="M199 0v1462h401q271 0 410 -108t139 -322q0 -129 -57 -229t-162 -156l117 -153l-105 -88l-145 190q-98 -27 -236 -27h-178v-569h-184zM383 727h162q95 0 151 8l-102 135l113 86l133 -170q118 70 118 238q0 141 -93.5 211t-286.5 70h-195v-578z" />
<glyph unicode="&#x48f;" horiz-adv-x="1260" d="M174 -492v1590h148l26 -150h8q64 89 147 129.5t193 40.5q214 0 332.5 -148.5t118.5 -418.5q0 -337 -178 -481l112 -154l-106 -84l-129 172q-68 -24 -152 -24q-221 0 -340 159h-12q12 -148 12 -180v-451h-180zM354 551q0 -223 74 -322.5t240 -99.5q44 0 82 12l-119 154 l112 84l125 -162q93 103 93 336q0 208 -72.5 311t-224.5 103q-163 0 -235.5 -92t-74.5 -289v-35z" />
<glyph unicode="&#x490;" horiz-adv-x="1090" d="M199 0v1462h671v301h172v-465h-659v-1298h-184z" />
<glyph unicode="&#x491;" horiz-adv-x="893" d="M174 0v1098h498v319h176v-459h-494v-958h-180z" />
<glyph unicode="&#x492;" horiz-adv-x="1085" d="M47 643v160h152v659h839v-164h-655v-495h422v-160h-422v-643h-184v643h-152z" />
<glyph unicode="&#x493;" horiz-adv-x="889" d="M16 477v139h156v482h674v-152h-494v-330h344v-139h-344v-477h-180v477h-156z" />
<glyph unicode="&#x494;" horiz-adv-x="1333" d="M199 0v1462h850v-164h-666v-503q95 10 215 10q318 0 490 -171t172 -484q0 -315 -144.5 -488.5t-400.5 -173.5q-85 0 -149 10.5t-134 38.5v164q123 -49 260 -49q375 0 375 498q0 239 -128.5 366t-371.5 127q-94 0 -184 -12v-631h-184z" />
<glyph unicode="&#x495;" horiz-adv-x="1092" d="M174 0v1098h682v-152h-502v-321q82 12 142 12q269 0 402.5 -143.5t133.5 -434.5q0 -268 -117 -414.5t-325 -146.5q-140 0 -246 60v159q110 -61 236 -61q266 0 266 405q0 215 -86.5 316.5t-267.5 101.5q-78 0 -138 -14v-465h-180z" />
<glyph unicode="&#x496;" horiz-adv-x="1851" d="M2 0l588 752l-567 710h204l559 -708v708h177v-708l559 708h204l-567 -708l459 -590h194v-549h-176v385h-102l-571 741v-741h-177v741l-573 -741h-211z" />
<glyph unicode="&#x497;" horiz-adv-x="1630" d="M2 0l492 565l-453 533h197l444 -533v533h168v-533l446 533h195l-453 -533l359 -415h200v-529h-174v379h-98l-475 557v-557h-168v557l-475 -557h-205z" />
<glyph unicode="&#x498;" horiz-adv-x="1204" d="M78 59v168q99 -47 212.5 -71.5t211.5 -24.5q198 0 298.5 73t100.5 210q0 131 -113 198.5t-337 67.5h-209v154h198q217 0 324.5 72.5t107.5 195.5q0 106 -79.5 167.5t-214.5 61.5q-114 0 -205.5 -27t-200.5 -98l-88 125q211 152 496 152q225 0 354 -98t129 -265 q0 -142 -91 -232.5t-255 -115.5v-8q186 -25 281.5 -115t95.5 -235q0 -205 -155 -319.5t-435 -114.5q-263 0 -426 79zM395 -319q35 -11 88 -11q37 0 62.5 23.5t25.5 68.5q0 103 -139 238h127q160 -119 160 -254q0 -91 -52.5 -144t-152.5 -53q-64 0 -119 17v115z" />
<glyph unicode="&#x499;" horiz-adv-x="1004" d="M68 51v162q183 -86 372 -86q141 0 217 47t76 139q0 94 -77 139.5t-236 45.5h-148v147h119q311 0 311 168q0 156 -249 156q-79 0 -147 -15t-163 -55l-63 143q171 76 383 76q193 0 302 -77t109 -212q0 -187 -206 -243v-8q125 -36 184 -104t59 -171q0 -151 -125 -237 t-344 -86q-242 0 -374 71zM313 -319q35 -11 88 -11q37 0 62.5 23.5t25.5 68.5q0 103 -139 238h127q160 -119 160 -254q0 -91 -52.5 -144t-152.5 -53q-64 0 -119 17v115z" />
<glyph unicode="&#x49a;" horiz-adv-x="1372" d="M199 0v1462h184v-721l126 139l521 582h215q-303 -336 -579 -637l487 -661h188v-549h-176v385h-112l-521 698l-149 -131v-567h-184z" />
<glyph unicode="&#x49b;" horiz-adv-x="1141" d="M174 0v1098h180v-533l469 533h197l-469 -529l375 -417h184v-533h-172v381h-88l-496 557v-557h-180z" />
<glyph unicode="&#x49c;" horiz-adv-x="1268" d="M199 0v1462h184v-725l125 142v350h125v-211l397 444h215q-303 -336 -579 -637l602 -825h-217l-418 582v-295h-125v387l-125 -107v-567h-184z" />
<glyph unicode="&#x49d;" horiz-adv-x="1106" d="M174 0v1098h180v-535l115 121v330h131v-197l260 281h197l-457 -482v-108l496 -508h-209l-287 307v-215h-131v344q-78 78 -115 119v-555h-180z" />
<glyph unicode="&#x49e;" horiz-adv-x="1268" d="M47 1126v162h152v174h184v-174h213v-162h-213v-389l647 725h215q-303 -336 -579 -637l602 -825h-221q-131 174 -257.5 349t-257.5 349l-149 -129v-569h-184v1126h-152z" />
<glyph unicode="&#x49f;" horiz-adv-x="1094" d="M18 1239v133h156v184h178v-184h375v-133h-375v-516l-6 -158h8l19 25q64 91 108 137l350 371h213l-444 -469l473 -629h-215l-381 510l-125 -107v-403h-178v1239h-156z" />
<glyph unicode="&#x4a0;" horiz-adv-x="1419" d="M14 1298v164h521v-725l647 725h217l-580 -637l600 -825h-215l-518 698l-151 -131v-567h-183v1298h-338z" />
<glyph unicode="&#x4a1;" horiz-adv-x="1276" d="M37 950v148h526v-533l471 533h195l-469 -531l508 -567h-207l-498 557v-557h-176v950h-350z" />
<glyph unicode="&#x4a2;" horiz-adv-x="1546" d="M199 0v1462h184v-618h752v618h182v-1298h176v-549h-176v385h-182v682h-752v-682h-184z" />
<glyph unicode="&#x4a3;" horiz-adv-x="1346" d="M174 0v1098h180v-457h596v457h180v-946h162v-531h-178v379h-164v489h-596v-489h-180z" />
<glyph unicode="&#x4a4;" horiz-adv-x="1669" d="M199 0v1462h184v-618h750v618h520v-164h-336v-1298h-184v682h-750v-682h-184z" />
<glyph unicode="&#x4a5;" horiz-adv-x="1511" d="M174 0v1098h180v-457h596v457h531v-148h-351v-950h-180v489h-596v-489h-180z" />
<glyph unicode="&#x4a6;" horiz-adv-x="2198" d="M199 0v1462h1046v-671q76 12 203 12q305 0 473 -174t168 -484q0 -205 -64.5 -353.5t-186.5 -226t-290 -77.5q-79 0 -146.5 10.5t-137.5 38.5v164q134 -49 260 -49q183 0 277.5 126.5t94.5 368.5q0 246 -119.5 370t-340.5 124q-43 0 -105.5 -3.5t-85.5 -10.5v-627h-182 v1296h-680v-1296h-184z" />
<glyph unicode="&#x4a7;" horiz-adv-x="1776" d="M174 0v1098h889v-473q77 12 135 12q246 0 378 -149.5t132 -428.5q0 -270 -107.5 -415.5t-302.5 -145.5q-132 0 -231 60v159q106 -61 217 -61q240 0 240 405q0 215 -82 316.5t-252 101.5q-71 0 -127 -18v-461h-180v946h-529v-946h-180z" />
<glyph unicode="&#x4a8;" horiz-adv-x="1595" d="M125 715q0 377 164 573.5t479 196.5q129 0 221 -35l-49 -156q-22 9 -73 19t-101 10q-449 0 -449 -600q0 -282 125 -433t355 -151q50 0 92 11q-80 95 -127 236t-47 300q0 242 99.5 373t275.5 131q181 0 278.5 -131.5t97.5 -380.5q0 -175 -67.5 -328t-181.5 -239 q66 -31 151 -31q78 0 139 22v-161q-56 -25 -149 -25q-178 0 -326 100q-102 -36 -246 -36q-310 0 -485.5 196.5t-175.5 538.5zM903 676q0 -138 45 -261.5t123 -205.5q97 65 153 189.5t56 273.5q0 175 -50 270.5t-138 95.5q-89 0 -139 -95.5t-50 -266.5z" />
<glyph unicode="&#x4a9;" horiz-adv-x="1315" d="M113 539q0 276 126 427.5t353 151.5q95 0 172 -24l-39 -146q-70 19 -135 19q-151 0 -222 -104t-71 -328q0 -200 82.5 -303t241.5 -103q62 0 90 12q-133 144 -133 363q0 172 83.5 268t237.5 96q149 0 228 -94t79 -270q0 -126 -52.5 -229t-143.5 -164q50 -25 112 -25 q66 0 117 14v-143q-44 -16 -131 -16q-150 0 -274 79q-104 -40 -222 -40q-151 0 -264 70t-174 199t-61 290zM758 498q0 -92 33.5 -171t91.5 -126q66 42 106.5 118t40.5 183q0 225 -131 225q-69 0 -105 -60t-36 -169z" />
<glyph unicode="&#x4aa;" horiz-adv-x="1294" d="M125 733q0 226 83.5 396t243 262t375.5 92q232 0 404 -86l-74 -156q-175 80 -332 80q-236 0 -371 -158t-135 -432q0 -283 131 -436.5t373 -153.5q156 0 351 58v-160q-93 -34 -179 -46.5t-198 -12.5q-323 0 -497.5 196.5t-174.5 556.5zM596 -319q35 -11 88 -11 q37 0 62.5 23.5t25.5 68.5q0 103 -139 238h127q160 -119 160 -254q0 -91 -52.5 -144t-152.5 -53q-64 0 -119 17v115z" />
<glyph unicode="&#x4ab;" horiz-adv-x="983" d="M113 543q0 276 133.5 425.5t380.5 149.5q80 0 158.5 -16.5t129.5 -42.5l-55 -150q-139 52 -237 52q-166 0 -245 -104.5t-79 -311.5q0 -199 79 -304.5t234 -105.5q145 0 285 64v-160q-114 -59 -283 -59q-237 0 -369 145.5t-132 417.5zM434 -319q35 -11 88 -11 q37 0 62.5 23.5t25.5 68.5q0 103 -139 238h127q160 -119 160 -254q0 -91 -52.5 -144t-152.5 -53q-64 0 -119 17v115z" />
<glyph unicode="&#x4ac;" horiz-adv-x="1139" d="M18 1296v166h1098v-166h-457v-1132h177v-549h-177v385h-184v1296h-457z" />
<glyph unicode="&#x4ad;" horiz-adv-x="973" d="M41 948v150h889v-150h-357v-798h162v-529h-176v379h-164v948h-354z" />
<glyph unicode="&#x4ae;" horiz-adv-x="1159" d="M0 1462h201l379 -719l381 719h198l-487 -895v-567h-185v559z" />
<glyph unicode="&#x4af;" horiz-adv-x="1040" d="M0 1098h188l230 -602q79 -221 98 -316h10q14 57 44.5 154.5t54.5 161.5l227 602h188l-430 -1102v-488h-180v488z" />
<glyph unicode="&#x4b0;" horiz-adv-x="1159" d="M0 1462h201l379 -719l381 719h198l-487 -895v-57h301v-162h-301v-348h-185v348h-303v162h303v49z" />
<glyph unicode="&#x4b1;" horiz-adv-x="1040" d="M0 1098h188l60 -158q167 -427 208.5 -551.5t59.5 -208.5h8q39 172 236 675l92 243h188l-213 -550l-215 -548h275v-137h-277v-355h-180v355h-280v137h278z" />
<glyph unicode="&#x4b2;" horiz-adv-x="1292" d="M8 0l486 762l-455 700h205l358 -573l361 573h194l-452 -696l380 -602h177v-549h-177v385h-102l-387 635l-393 -635h-195z" />
<glyph unicode="&#x4b3;" horiz-adv-x="1130" d="M37 0l397 561l-379 537h205l283 -414l280 414h203l-379 -537l293 -409h160v-533h-176v381h-82l-299 438l-303 -438h-203z" />
<glyph unicode="&#x4b4;" horiz-adv-x="1765" d="M18 1296v166h1072v-166h-467v-1132h729v1298h184v-1298h182v-549h-174v385h-1106v1296h-420z" />
<glyph unicode="&#x4b5;" horiz-adv-x="1483" d="M41 948v150h848v-150h-354v-796h565v946h180v-948h166v-529h-176v379h-914v948h-315z" />
<glyph unicode="&#x4b6;" horiz-adv-x="1440" d="M164 879v583h184v-557q0 -118 62 -176.5t202 -58.5q95 0 183.5 15t251.5 69v708h184v-1298h176v-549h-176v385h-184v600q-149 -53 -249 -72.5t-204 -19.5q-208 0 -319 96.5t-111 274.5z" />
<glyph unicode="&#x4b7;" horiz-adv-x="1272" d="M152 686v412h180v-400q0 -188 211 -188q92 0 174.5 27.5t183.5 89.5v471h180v-946h162v-533h-178v381h-164v489q-110 -71 -198.5 -99t-196.5 -28q-164 0 -259 86t-95 238z" />
<glyph unicode="&#x4b8;" horiz-adv-x="1430" d="M164 879v583h184v-557q0 -122 68.5 -178.5t212.5 -56.5v346h125v-338q139 14 290 72v712h187v-1462h-187v596q-174 -64 -290 -80v-307h-125v299q-465 0 -465 371z" />
<glyph unicode="&#x4b9;" horiz-adv-x="1241" d="M152 684v414h180v-402q0 -182 194 -188v297h121v-285q112 23 238 107v471h180v-1098h-180v489q-128 -87 -238 -112v-248h-121v233l-12 -2h-14q-164 0 -256 86.5t-92 237.5z" />
<glyph unicode="&#x4ba;" horiz-adv-x="1430" d="M199 0v1462h184v-600q258 92 453 92q207 0 318.5 -96.5t111.5 -273.5v-584h-185v557q0 118 -62 177t-202 59q-102 0 -192.5 -17t-241.5 -67v-709h-184z" />
<glyph unicode="&#x4bb;" horiz-adv-x="1214" d="M174 0v1098h180v-492q99 68 192.5 97.5t201.5 29.5q167 0 260.5 -85.5t93.5 -237.5v-410h-180v399q0 187 -209 187q-95 0 -175 -26.5t-184 -90.5v-469h-180z" />
<glyph unicode="&#x4bc;" horiz-adv-x="1739" d="M55 901q0 77 29 135h154q-21 -45 -21 -112q0 -101 111 -101h34q41 327 205 494.5t445 167.5q296 0 450 -183t154 -534v-104h-1061q14 -257 142.5 -390t369.5 -133q138 0 250 25t207 57v-168q-113 -41 -223.5 -58t-253.5 -17q-314 0 -490 176.5t-197 507.5 q-146 0 -225.5 59t-79.5 178zM555 823h864q0 498 -409 498q-201 0 -319 -127.5t-136 -370.5z" />
<glyph unicode="&#x4bd;" horiz-adv-x="1362" d="M45 739q0 71 27 123h147q-20 -37 -20 -106q0 -101 104 -101h21q26 221 152 341t327 120q208 0 331 -133t123 -360v-109h-753q8 -381 344 -381q100 0 180 16t180 58v-156q-91 -39 -171 -55t-189 -16q-243 0 -383 139.5t-148 394.5q-272 4 -272 225zM508 655h561 q0 152 -69 233t-201 81q-128 0 -203.5 -79.5t-87.5 -234.5z" />
<glyph unicode="&#x4be;" horiz-adv-x="1739" d="M55 901q0 77 29 135h154q-21 -45 -21 -112q0 -101 111 -101h34q31 319 199 490.5t451 171.5q295 0 449.5 -182t154.5 -529v-110h-1061q14 -257 142.5 -390t369.5 -133q138 0 250 25t207 57v-168q-182 -66 -416 -71v-369h-178v375q-261 29 -406.5 203.5t-163.5 470.5 q-146 0 -225.5 59t-79.5 178zM555 823h864q0 255 -99.5 376.5t-309.5 121.5q-201 0 -319 -127.5t-136 -370.5z" />
<glyph unicode="&#x4bf;" horiz-adv-x="1362" d="M45 739q0 71 27 123h147q-20 -37 -20 -106q0 -101 104 -101h21q30 220 155.5 340.5t323.5 120.5q208 0 331 -133t123 -360v-109h-753q8 -381 344 -381q100 0 180 16t180 58v-156q-72 -34 -144 -49t-163 -18v-363h-176v371q-193 31 -297.5 168t-110.5 354q-272 4 -272 225 zM508 655h561q0 152 -69 233t-201 81q-128 0 -203.5 -79.5t-87.5 -234.5z" />
<glyph unicode="&#x4c0;" horiz-adv-x="694" d="M82 0v106l172 39v1170l-172 41v106h528v-106l-172 -41v-1170l172 -39v-106h-528z" />
<glyph unicode="&#x4c1;" horiz-adv-x="1749" d="M2 0l588 752l-567 710h204l559 -708v708h177v-708l559 708h204l-567 -708l586 -754h-211l-571 741v-741h-177v741l-573 -741h-211zM488 1890h168q9 -104 54.5 -145t158.5 -41q103 0 152.5 44t60.5 142h170q-15 -162 -109 -236.5t-278 -74.5q-192 0 -279.5 73t-97.5 238z " />
<glyph unicode="&#x4c2;" horiz-adv-x="1536" d="M2 0l492 565q-310 368 -453 533h197l444 -533v533h168v-533l446 533h195l-453 -533l492 -565h-205l-475 557v-557h-168v557l-475 -557h-205zM383 1552h168q9 -104 54.5 -145t158.5 -41q103 0 152.5 44t60.5 142h170q-15 -162 -109 -236.5t-278 -74.5q-192 0 -279.5 73 t-97.5 238z" />
<glyph unicode="&#x4c3;" horiz-adv-x="1425" d="M199 0v1462h184v-708l209 231l428 477h219l-629 -686l25 2q329 0 506.5 -162t177.5 -469q0 -207 -67.5 -355.5t-193.5 -226t-298 -77.5q-83 0 -146 10t-137 39v164q123 -49 275 -49q178 0 278 129.5t100 365.5q0 229 -136.5 353.5t-381.5 124.5q-134 0 -229 -31v-594 h-184z" />
<glyph unicode="&#x4c4;" horiz-adv-x="1147" d="M174 0v1098h178v-516l479 516h199l-459 -484q250 -4 378 -144t128 -411q0 -176 -55.5 -302.5t-157 -192.5t-237.5 -66q-135 0 -234 60v155q47 -24 101 -42.5t122 -18.5q134 0 208.5 106.5t74.5 300.5q0 212 -95.5 309t-275.5 97q-81 0 -176 -25v-440h-178z" />
<glyph unicode="&#x4c5;" horiz-adv-x="1473" d="M2 2v154q52 -25 113 -25q79 0 125.5 99.5t101 450.5t109.5 781h800v-1298h199l-147 -549h-211l159 385h-184v1300h-463l-31 -238q-63 -492 -110 -705t-122.5 -296.5t-205.5 -83.5q-74 0 -133 25z" />
<glyph unicode="&#x4c6;" horiz-adv-x="1202" d="M14 0v137q25 -6 56 -6q108 0 174.5 230t101.5 737h662v-946h188l-131 -531h-182l125 379h-181v948h-325q-26 -354 -74 -561.5t-124.5 -303t-194.5 -95.5q-61 0 -95 12z" />
<glyph unicode="&#x4c7;" horiz-adv-x="1497" d="M199 0v1462h184v-618h752v618h182v-1319q0 -317 -142 -486t-401 -169q-84 0 -146.5 10t-138.5 39v162q123 -49 263 -49q383 0 383 489v543h-752v-682h-184z" />
<glyph unicode="&#x4c8;" horiz-adv-x="1272" d="M174 0v1098h180v-457h594v457h182v-1049q0 -268 -107 -409.5t-302 -141.5q-134 0 -229 58v159q110 -59 215 -59q125 0 183 98t58 295v440h-594v-489h-180z" />
<glyph unicode="&#x4c9;" horiz-adv-x="1548" d="M199 0v1462h184v-618h752v618h182v-1298h201l-150 -549h-211l160 385h-182v682h-752v-682h-184z" />
<glyph unicode="&#x4ca;" horiz-adv-x="1356" d="M174 0v1098h180v-457h596v457h180v-946h189l-131 -531h-184l126 379h-180v489h-596v-489h-180z" />
<glyph unicode="&#x4cb;" horiz-adv-x="1430" d="M164 879v583h184v-557q0 -118 62 -176.5t202 -58.5q95 0 183.5 15t251.5 69v708h184v-1462h-178v-385h-176v549h170v436q-149 -53 -249 -72.5t-204 -19.5q-208 0 -319 96.5t-111 274.5z" />
<glyph unicode="&#x4cc;" horiz-adv-x="1255" d="M152 686v412h180v-400q0 -188 211 -188q92 0 174.5 27.5t183.5 89.5v471h180v-1098h-161v-381h-177v533h158v337q-110 -71 -198.5 -99t-196.5 -28q-164 0 -259 86t-95 238z" />
<glyph unicode="&#x4cd;" horiz-adv-x="1878" d="M199 0v1462h272l453 -1198h8l457 1198h270v-1298h199l-148 -549h-213l162 385h-182v918q0 131 14 362h-8l-488 -1280h-151l-482 1282h-8l7 -132q8 -152 8 -245v-905h-170z" />
<glyph unicode="&#x4ce;" horiz-adv-x="1546" d="M174 0v1098h225l287 -701q37 -93 72 -225q30 109 76 225l286 701h232v-946h188l-131 -531h-184l127 379h-162v905l-19 -59l-63 -172l-274 -674h-146l-274 678q-19 45 -45 122t-33 105v-905h-162z" />
<glyph unicode="&#x4cf;" horiz-adv-x="694" d="M82 0v106l172 39v1170l-172 41v106h528v-106l-172 -41v-1170l172 -39v-106h-528z" />
<glyph unicode="&#x4d0;" horiz-adv-x="1309" d="M0 0l571 1468h166l570 -1468h-191l-176 453h-580l-174 -453h-186zM268 1890h168q9 -104 54.5 -145t158.5 -41q103 0 152.5 44t60.5 142h170q-15 -162 -109 -236.5t-278 -74.5q-192 0 -279.5 73t-97.5 238zM422 616h463l-164 443l-70 219q-30 -120 -63 -219z" />
<glyph unicode="&#x4d1;" horiz-adv-x="1149" d="M94 305q0 334 527 350l186 7v65q0 125 -54 184.5t-173 59.5q-87 0 -164.5 -26t-145.5 -58l-55 135q83 44 181 69t194 25q199 0 296 -88t97 -280v-748h-131l-35 156h-8q-82 -103 -163.5 -139.5t-205.5 -36.5q-162 0 -254 85t-92 240zM192 1552h168q9 -104 54.5 -145 t158.5 -41q103 0 152.5 44t60.5 142h170q-15 -162 -109 -236.5t-278 -74.5q-192 0 -279.5 73t-97.5 238zM281 303q0 -86 52.5 -132t147.5 -46q151 0 237.5 81.5t86.5 231.5v99l-162 -7q-189 -7 -275.5 -60t-86.5 -167z" />
<glyph unicode="&#x4d2;" horiz-adv-x="1309" d="M0 0l571 1468h166l570 -1468h-191l-176 453h-580l-174 -453h-186zM368 1733q0 53 28 76.5t68 23.5q39 0 68 -23.5t29 -76.5t-29 -78t-68 -25q-40 0 -68 25t-28 78zM422 616h463l-164 443l-70 219q-30 -120 -63 -219zM753 1733q0 53 28 76.5t66 23.5q39 0 68 -23.5 t29 -76.5t-29 -78t-68 -25q-38 0 -66 25t-28 78z" />
<glyph unicode="&#x4d3;" horiz-adv-x="1149" d="M94 305q0 334 527 350l186 7v65q0 125 -54 184.5t-173 59.5q-87 0 -164.5 -26t-145.5 -58l-55 135q83 44 181 69t194 25q199 0 296 -88t97 -280v-748h-131l-35 156h-8q-82 -103 -163.5 -139.5t-205.5 -36.5q-162 0 -254 85t-92 240zM281 303q0 -86 52.5 -132t147.5 -46 q151 0 237.5 81.5t86.5 231.5v99l-162 -7q-189 -7 -275.5 -60t-86.5 -167zM294 1395q0 53 28 76.5t68 23.5q39 0 68 -23.5t29 -76.5t-29 -78t-68 -25q-40 0 -68 25t-28 78zM679 1395q0 53 28 76.5t66 23.5q39 0 68 -23.5t29 -76.5t-29 -78t-68 -25q-38 0 -66 25t-28 78z" />
<glyph unicode="&#x4d4;" horiz-adv-x="1804" d="M-2 0l694 1462h989v-162h-577v-456h538v-160h-538v-522h577v-162h-761v453h-512l-220 -453h-190zM479 616h441v682h-119z" />
<glyph unicode="&#x4d5;" horiz-adv-x="1769" d="M94 305q0 334 500 350l184 7v69q0 122 -56.5 181t-172.5 59q-139 0 -307 -84l-56 135q71 40 172.5 67t204.5 27q128 0 210.5 -41.5t125.5 -134.5q54 85 139 131.5t197 46.5q197 0 313.5 -135t116.5 -356v-111h-702q8 -383 317 -383q88 0 165 16.5t171 59.5v-158 q-88 -39 -164 -55t-178 -16q-291 0 -416 231q-82 -124 -181 -177.5t-235 -53.5q-164 0 -256 85.5t-92 239.5zM281 303q0 -92 52 -135t138 -43q140 0 221.5 81.5t81.5 231.5v99l-153 -7q-177 -7 -258.5 -60t-81.5 -167zM967 657h508q0 152 -62.5 233t-179.5 81 q-119 0 -187 -80.5t-79 -233.5z" />
<glyph unicode="&#x4d6;" horiz-adv-x="1139" d="M199 0v1462h817v-162h-633v-456h596v-160h-596v-522h633v-162h-817zM221 1890h168q9 -104 54.5 -145t158.5 -41q103 0 152.5 44t60.5 142h170q-15 -162 -109 -236.5t-278 -74.5q-192 0 -279.5 73t-97.5 238z" />
<glyph unicode="&#x4d7;" horiz-adv-x="1155" d="M113 541q0 264 131 420.5t354 156.5q207 0 330 -133.5t123 -361.5v-109h-752q5 -187 95 -284t255 -97q88 0 167 15.5t185 60.5v-158q-91 -39 -171 -55t-189 -16q-247 0 -387.5 149.5t-140.5 411.5zM219 1552h168q9 -104 54.5 -145t158.5 -41q103 0 152.5 44t60.5 142h170 q-15 -162 -109 -236.5t-278 -74.5q-192 0 -279.5 73t-97.5 238zM303 657h559q-2 154 -71 234t-195 80q-129 0 -204 -83t-89 -231z" />
<glyph unicode="&#x4d8;" horiz-adv-x="1513" d="M121 731v70h1071q-17 259 -146 390.5t-366 131.5q-225 0 -467 -84v168q125 44 234 61t237 17q332 0 517 -200t185 -556q0 -350 -173.5 -549.5t-485.5 -199.5q-301 0 -453.5 188.5t-152.5 562.5zM317 639q0 -255 100.5 -376.5t309.5 -121.5q205 0 327 130.5t138 367.5 h-875z" />
<glyph unicode="&#x4d9;" horiz-adv-x="1155" d="M104 475v109h752q-5 186 -95 283.5t-255 97.5q-88 0 -167 -15.5t-185 -60.5v158q91 39 171 55t189 16q248 0 388 -149.5t140 -411.5q0 -264 -131 -420.5t-354 -156.5q-207 0 -330 133.5t-123 361.5zM293 440q2 -151 70 -232t196 -81q129 0 204 83t89 230h-559z" />
<glyph unicode="&#x4da;" horiz-adv-x="1513" d="M121 731v70h1071q-17 259 -146 390.5t-366 131.5q-225 0 -467 -84v168q125 44 234 61t237 17q332 0 517 -200t185 -556q0 -350 -173.5 -549.5t-485.5 -199.5q-301 0 -453.5 188.5t-152.5 562.5zM317 639q0 -255 100.5 -376.5t309.5 -121.5q205 0 327 130.5t138 367.5 h-875zM420 1733q0 53 28 76.5t68 23.5q39 0 68 -23.5t29 -76.5t-29 -78t-68 -25q-40 0 -68 25t-28 78zM805 1733q0 53 28 76.5t66 23.5q39 0 68 -23.5t29 -76.5t-29 -78t-68 -25q-38 0 -66 25t-28 78z" />
<glyph unicode="&#x4db;" horiz-adv-x="1155" d="M104 475v109h752q-5 186 -95 283.5t-255 97.5q-88 0 -167 -15.5t-185 -60.5v158q91 39 171 55t189 16q248 0 388 -149.5t140 -411.5q0 -264 -131 -420.5t-354 -156.5q-207 0 -330 133.5t-123 361.5zM245 1395q0 53 28 76.5t68 23.5q39 0 68 -23.5t29 -76.5t-29 -78 t-68 -25q-40 0 -68 25t-28 78zM293 440q2 -151 70 -232t196 -81q129 0 204 83t89 230h-559zM630 1395q0 53 28 76.5t66 23.5q39 0 68 -23.5t29 -76.5t-29 -78t-68 -25q-38 0 -66 25t-28 78z" />
<glyph unicode="&#x4dc;" horiz-adv-x="1749" d="M2 0l588 752l-567 710h204l559 -708v708h177v-708l559 708h204l-567 -708l586 -754h-211l-571 741v-741h-177v741l-573 -741h-211zM584 1733q0 53 28 76.5t68 23.5q39 0 68 -23.5t29 -76.5t-29 -78t-68 -25q-40 0 -68 25t-28 78zM969 1733q0 53 28 76.5t66 23.5 q39 0 68 -23.5t29 -76.5t-29 -78t-68 -25q-38 0 -66 25t-28 78z" />
<glyph unicode="&#x4dd;" horiz-adv-x="1536" d="M2 0l492 565q-310 368 -453 533h197l444 -533v533h168v-533l446 533h195l-453 -533l492 -565h-205l-475 557v-557h-168v557l-475 -557h-205zM477 1395q0 53 28 76.5t68 23.5q39 0 68 -23.5t29 -76.5t-29 -78t-68 -25q-40 0 -68 25t-28 78zM862 1395q0 53 28 76.5t66 23.5 q39 0 68 -23.5t29 -76.5t-29 -78t-68 -25q-38 0 -66 25t-28 78z" />
<glyph unicode="&#x4de;" horiz-adv-x="1204" d="M78 59v168q99 -47 212.5 -71.5t211.5 -24.5q198 0 298.5 73t100.5 210q0 131 -113 198.5t-337 67.5h-209v154h198q217 0 324.5 72.5t107.5 195.5q0 106 -79.5 167.5t-214.5 61.5q-114 0 -205.5 -27t-200.5 -98l-88 125q211 152 496 152q225 0 354 -98t129 -265 q0 -142 -91 -232.5t-255 -115.5v-8q186 -25 281.5 -115t95.5 -235q0 -205 -155 -319.5t-435 -114.5q-263 0 -426 79zM298 1733q0 53 28 76.5t68 23.5q39 0 68 -23.5t29 -76.5t-29 -78t-68 -25q-40 0 -68 25t-28 78zM683 1733q0 53 28 76.5t66 23.5q39 0 68 -23.5t29 -76.5 t-29 -78t-68 -25q-38 0 -66 25t-28 78z" />
<glyph unicode="&#x4df;" horiz-adv-x="1004" d="M68 51v162q183 -86 372 -86q141 0 217 47t76 139q0 94 -77 139.5t-236 45.5h-148v147h119q311 0 311 168q0 156 -249 156q-79 0 -147 -15t-163 -55l-63 143q171 76 383 76q193 0 302 -77t109 -212q0 -187 -206 -243v-8q125 -36 184 -104t59 -171q0 -151 -125 -237 t-344 -86q-242 0 -374 71zM191 1395q0 53 28 76.5t68 23.5q39 0 68 -23.5t29 -76.5t-29 -78t-68 -25q-40 0 -68 25t-28 78zM576 1395q0 53 28 76.5t66 23.5q39 0 68 -23.5t29 -76.5t-29 -78t-68 -25q-38 0 -66 25t-28 78z" />
<glyph unicode="&#x4e0;" horiz-adv-x="1196" d="M72 59v168q100 -48 213 -72t211 -24q199 0 297 75t98 214q0 264 -447 264h-137v150l481 464h-675v164h909v-145l-502 -483q276 -11 419.5 -117t143.5 -299q0 -207 -155 -322.5t-434 -115.5q-259 0 -422 79z" />
<glyph unicode="&#x4e1;" horiz-adv-x="1020" d="M29 -256q183 -86 387 -86q162 0 258 92.5t96 247.5q0 157 -104 241.5t-310 84.5h-120v125l448 497h-627v152h838v-131l-449 -500q235 -16 369.5 -140t134.5 -325q0 -144 -67 -257t-191.5 -175t-283.5 -62q-239 0 -379 72v164z" />
<glyph unicode="&#x4e2;" horiz-adv-x="1573" d="M201 0v1462h172v-803q0 -85 -5 -225t-10 -182h9l804 1210h205v-1462h-172v795q0 104 7 242.5t10 179.5h-9l-806 -1217h-205zM481 1579v145h608v-145h-608z" />
<glyph unicode="&#x4e3;" horiz-adv-x="1317" d="M174 0v1098h170v-670l-8 -194l-4 -56l588 920h221v-1098h-168v647l3 139l5 132l-584 -918h-223zM354 1241v145h608v-145h-608z" />
<glyph unicode="&#x4e4;" horiz-adv-x="1573" d="M201 0v1462h172v-803q0 -85 -5 -225t-10 -182h9l804 1210h205v-1462h-172v795q0 104 7 242.5t10 179.5h-9l-806 -1217h-205zM498 1733q0 53 28 76.5t68 23.5q39 0 68 -23.5t29 -76.5t-29 -78t-68 -25q-40 0 -68 25t-28 78zM883 1733q0 53 28 76.5t66 23.5q39 0 68 -23.5 t29 -76.5t-29 -78t-68 -25q-38 0 -66 25t-28 78z" />
<glyph unicode="&#x4e5;" horiz-adv-x="1317" d="M174 0v1098h170v-670l-8 -194l-4 -56l588 920h221v-1098h-168v647l3 139l5 132l-584 -918h-223zM371 1395q0 53 28 76.5t68 23.5q39 0 68 -23.5t29 -76.5t-29 -78t-68 -25q-40 0 -68 25t-28 78zM756 1395q0 53 28 76.5t66 23.5q39 0 68 -23.5t29 -76.5t-29 -78t-68 -25 q-38 0 -66 25t-28 78z" />
<glyph unicode="&#x4e6;" horiz-adv-x="1599" d="M125 735q0 357 175.5 553.5t502.5 196.5q318 0 495 -199.5t177 -552.5q0 -351 -177.5 -552t-496.5 -201q-323 0 -499.5 197.5t-176.5 557.5zM319 733q0 -290 123 -442t359 -152q235 0 357 150t122 444q0 293 -121 441.5t-356 148.5q-238 0 -361 -150.5t-123 -439.5z M512 1733q0 53 28 76.5t68 23.5q39 0 68 -23.5t29 -76.5t-29 -78t-68 -25q-40 0 -68 25t-28 78zM897 1733q0 53 28 76.5t66 23.5q39 0 68 -23.5t29 -76.5t-29 -78t-68 -25q-38 0 -66 25t-28 78z" />
<glyph unicode="&#x4e7;" horiz-adv-x="1239" d="M113 551q0 268 134 417.5t376 149.5q232 0 368.5 -152.5t136.5 -414.5q0 -269 -136 -420t-376 -151q-149 0 -264 69.5t-177 199.5t-62 302zM299 551q0 -207 81.5 -314.5t240.5 -107.5q157 0 239 107.5t82 314.5t-82.5 311.5t-241.5 104.5q-319 0 -319 -416zM332 1395 q0 53 28 76.5t68 23.5q39 0 68 -23.5t29 -76.5t-29 -78t-68 -25q-40 0 -68 25t-28 78zM717 1395q0 53 28 76.5t66 23.5q39 0 68 -23.5t29 -76.5t-29 -78t-68 -25q-38 0 -66 25t-28 78z" />
<glyph unicode="&#x4e8;" horiz-adv-x="1602" d="M125 735q0 357 175.5 553.5t502.5 196.5q318 0 495 -199.5t177 -552.5q0 -351 -177.5 -552t-496.5 -201q-323 0 -499.5 197.5t-176.5 557.5zM322 666q13 -260 134.5 -393.5t344.5 -133.5q222 0 343.5 133.5t133.5 393.5h-956zM322 825h954q-19 248 -138.5 373t-334.5 125 q-218 0 -340 -125.5t-141 -372.5z" />
<glyph unicode="&#x4e9;" horiz-adv-x="1239" d="M113 551q0 268 134 417.5t376 149.5q232 0 368.5 -152.5t136.5 -414.5q0 -269 -136 -420t-376 -151q-149 0 -264 69.5t-177 199.5t-62 302zM299 489q18 -360 322 -360q156 0 232 92t87 268h-641zM301 639h639q-30 328 -322 328q-152 0 -227.5 -83t-89.5 -245z" />
<glyph unicode="&#x4ea;" horiz-adv-x="1602" d="M125 735q0 357 175.5 553.5t502.5 196.5q318 0 495 -199.5t177 -552.5q0 -351 -177.5 -552t-496.5 -201q-323 0 -499.5 197.5t-176.5 557.5zM322 666q13 -260 134.5 -393.5t344.5 -133.5q222 0 343.5 133.5t133.5 393.5h-956zM322 825h954q-19 248 -138.5 373t-334.5 125 q-218 0 -340 -125.5t-141 -372.5zM512 1733q0 53 28 76.5t68 23.5q39 0 68 -23.5t29 -76.5t-29 -78t-68 -25q-40 0 -68 25t-28 78zM897 1733q0 53 28 76.5t66 23.5q39 0 68 -23.5t29 -76.5t-29 -78t-68 -25q-38 0 -66 25t-28 78z" />
<glyph unicode="&#x4eb;" horiz-adv-x="1239" d="M113 551q0 268 134 417.5t376 149.5q232 0 368.5 -152.5t136.5 -414.5q0 -269 -136 -420t-376 -151q-149 0 -264 69.5t-177 199.5t-62 302zM299 489q18 -360 322 -360q156 0 232 92t87 268h-641zM301 639h639q-30 328 -322 328q-152 0 -227.5 -83t-89.5 -245zM330 1395 q0 53 28 76.5t68 23.5q39 0 68 -23.5t29 -76.5t-29 -78t-68 -25q-40 0 -68 25t-28 78zM715 1395q0 53 28 76.5t66 23.5q39 0 68 -23.5t29 -76.5t-29 -78t-68 -25q-38 0 -66 25t-28 78z" />
<glyph unicode="&#x4ec;" horiz-adv-x="1296" d="M61 1397q174 86 416 86q217 0 373.5 -88t237.5 -251t81 -388q0 -374 -182.5 -575t-523.5 -201q-113 0 -200.5 12t-188.5 47v160q86 -23 173.5 -40.5t186.5 -17.5q264 0 398.5 140t142.5 403h-711v162h709q-20 222 -151.5 348.5t-346.5 126.5q-167 0 -338 -78zM251 1733 q0 53 28 76.5t68 23.5q39 0 68 -23.5t29 -76.5t-29 -78t-68 -25q-40 0 -68 25t-28 78zM636 1733q0 53 28 76.5t66 23.5q39 0 68 -23.5t29 -76.5t-29 -78t-68 -25q-38 0 -66 25t-28 78z" />
<glyph unicode="&#x4ed;" horiz-adv-x="1012" d="M59 39v156q154 -62 295 -62q336 0 359 359h-541v147h539q-14 168 -95 246t-237 78q-105 0 -256 -54l-51 146q64 29 146.5 46t158.5 17q257 0 389.5 -145.5t132.5 -423.5q0 -271 -143.5 -420t-405.5 -149q-169 0 -291 59zM132 1395q0 53 28 76.5t68 23.5q39 0 68 -23.5 t29 -76.5t-29 -78t-68 -25q-40 0 -68 25t-28 78zM517 1395q0 53 28 76.5t66 23.5q39 0 68 -23.5t29 -76.5t-29 -78t-68 -25q-38 0 -66 25t-28 78z" />
<glyph unicode="&#x4ee;" horiz-adv-x="1278" d="M23 1462h202l418 -813q25 -47 43 -104h8l8 24l31 82l350 811h195l-467 -1046q-83 -186 -151 -271t-155.5 -125t-211.5 -40q-113 0 -199 30v174q91 -41 193 -41q107 0 172.5 50t126.5 182zM346 1579v145h608v-145h-608z" />
<glyph unicode="&#x4ef;" horiz-adv-x="1044" d="M2 1098h193l237 -625q75 -204 92 -299h8q9 37 41 138.5t54 162.5l223 623h194l-473 -1250q-69 -182 -164 -261t-235 -79q-75 0 -149 17v143q50 -12 120 -12q86 0 146 47.5t98 146.5l57 146zM222 1241v145h608v-145h-608z" />
<glyph unicode="&#x4f0;" horiz-adv-x="1278" d="M23 1462h202l418 -813q25 -47 43 -104h8l8 24l31 82l350 811h195l-467 -1046q-83 -186 -151 -271t-155.5 -125t-211.5 -40q-113 0 -199 30v174q91 -41 193 -41q107 0 172.5 50t126.5 182zM362 1733q0 53 28 76.5t68 23.5q39 0 68 -23.5t29 -76.5t-29 -78t-68 -25 q-40 0 -68 25t-28 78zM747 1733q0 53 28 76.5t66 23.5q39 0 68 -23.5t29 -76.5t-29 -78t-68 -25q-38 0 -66 25t-28 78z" />
<glyph unicode="&#x4f1;" horiz-adv-x="1044" d="M2 1098h193l237 -625q75 -204 92 -299h8q9 37 41 138.5t54 162.5l223 623h194l-473 -1250q-69 -182 -164 -261t-235 -79q-75 0 -149 17v143q50 -12 120 -12q86 0 146 47.5t98 146.5l57 146zM236 1395q0 53 28 76.5t68 23.5q39 0 68 -23.5t29 -76.5t-29 -78t-68 -25 q-40 0 -68 25t-28 78zM621 1395q0 53 28 76.5t66 23.5q39 0 68 -23.5t29 -76.5t-29 -78t-68 -25q-38 0 -66 25t-28 78z" />
<glyph unicode="&#x4f2;" horiz-adv-x="1278" d="M23 1462h202l418 -813q25 -47 43 -104h8l8 24l31 82l350 811h195l-467 -1046q-83 -186 -151 -271t-155.5 -125t-211.5 -40q-113 0 -199 30v174q91 -41 193 -41q107 0 172.5 50t126.5 182zM368 1579v25q35 46 87 134.5t91 168.5h197v-21q-33 -56 -119.5 -154t-152.5 -153 h-103zM729 1579v25q47 65 100 156t78 147h196v-21q-33 -56 -119.5 -154t-152.5 -153h-102z" />
<glyph unicode="&#x4f3;" horiz-adv-x="1044" d="M2 1098h193l237 -625q75 -204 92 -299h8q9 37 41 138.5t54 162.5l223 623h194l-473 -1250q-69 -182 -164 -261t-235 -79q-75 0 -149 17v143q50 -12 120 -12q86 0 146 47.5t98 146.5l57 146zM233 1241v25q35 46 87 134.5t91 168.5h197v-21q-33 -56 -119.5 -154 t-152.5 -153h-103zM594 1241v25q47 65 100 156t78 147h196v-21q-33 -56 -119.5 -154t-152.5 -153h-102z" />
<glyph unicode="&#x4f4;" horiz-adv-x="1430" d="M164 879v583h184v-557q0 -118 62 -176.5t202 -58.5q95 0 183.5 15t251.5 69v708h184v-1462h-184v600q-149 -53 -249 -72.5t-204 -19.5q-208 0 -319 96.5t-111 274.5zM409 1733q0 53 28 76.5t68 23.5q39 0 68 -23.5t29 -76.5t-29 -78t-68 -25q-40 0 -68 25t-28 78z M794 1733q0 53 28 76.5t66 23.5q39 0 68 -23.5t29 -76.5t-29 -78t-68 -25q-38 0 -66 25t-28 78z" />
<glyph unicode="&#x4f5;" horiz-adv-x="1255" d="M152 686v412h180v-400q0 -188 211 -188q92 0 174.5 27.5t183.5 89.5v471h180v-1098h-180v489q-110 -71 -198.5 -99t-196.5 -28q-164 0 -259 86t-95 238zM328 1395q0 53 28 76.5t68 23.5q39 0 68 -23.5t29 -76.5t-29 -78t-68 -25q-40 0 -68 25t-28 78zM713 1395 q0 53 28 76.5t66 23.5q39 0 68 -23.5t29 -76.5t-29 -78t-68 -25q-38 0 -66 25t-28 78z" />
<glyph unicode="&#x4f6;" horiz-adv-x="1085" d="M199 0v1462h839v-164h-655v-1134h174v-549h-174v385h-184z" />
<glyph unicode="&#x4f7;" horiz-adv-x="887" d="M174 0v1098h668v-150h-488v-798h162v-529h-178v379h-164z" />
<glyph unicode="&#x4f8;" horiz-adv-x="1757" d="M199 0v1462h184v-618h225q265 0 403 -105t138 -311q0 -207 -131.5 -317.5t-386.5 -110.5h-432zM383 156h231q178 0 261 67.5t83 204.5q0 134 -86 194t-284 60h-205v-526zM590 1733q0 53 28 76.5t68 23.5q39 0 68 -23.5t29 -76.5t-29 -78t-68 -25q-40 0 -68 25t-28 78z M975 1733q0 53 28 76.5t66 23.5q39 0 68 -23.5t29 -76.5t-29 -78t-68 -25q-38 0 -66 25t-28 78zM1374 0v1462h185v-1462h-185z" />
<glyph unicode="&#x4f9;" horiz-adv-x="1593" d="M174 0v1098h180v-451h285q214 0 316 -78t102 -233q0 -167 -108 -251.5t-318 -84.5h-457zM354 145h260q265 0 265 181q0 89 -59.5 130.5t-203.5 41.5h-262v-353zM506 1395q0 53 28 76.5t68 23.5q39 0 68 -23.5t29 -76.5t-29 -78t-68 -25q-40 0 -68 25t-28 78zM891 1395 q0 53 28 76.5t66 23.5q39 0 68 -23.5t29 -76.5t-29 -78t-68 -25q-38 0 -66 25t-28 78zM1239 0v1098h180v-1098h-180z" />
<glyph unicode="&#x4fa;" horiz-adv-x="1085" d="M47 643v160h152v659h839v-164h-655v-495h422v-160h-422v-643h-184v643h-152zM181 -231q46 -19 102 -19q98 0 98 107v307h162v-297q0 -273 -240 -273q-59 0 -122 25v150z" />
<glyph unicode="&#x4fb;" horiz-adv-x="889" d="M16 477v139h156v482h674v-152h-494v-330h344v-139h-344v-338h158v-272q0 -273 -240 -273q-60 0 -123 25v150q46 -19 103 -19q98 0 98 107v143h-176v477h-156z" />
<glyph unicode="&#x4fc;" horiz-adv-x="1294" d="M8 0l486 762l-455 700h205l358 -573l361 573h194l-452 -696l382 -602h160v-297q0 -273 -239 -273q-60 0 -123 25v150q46 -19 102 -19q98 0 98 107v143h-102l-387 635l-393 -635h-195z" />
<glyph unicode="&#x4fd;" horiz-adv-x="1126" d="M37 0l397 561l-379 537h205l283 -414l280 414h203l-379 -537l299 -422h150v-272q0 -273 -240 -273q-61 0 -123 25v150q46 -19 103 -19q98 0 98 107v143h-92l-299 438l-303 -438h-203z" />
<glyph unicode="&#x4fe;" horiz-adv-x="1200" d="M6 0l440 692h-321v162h307l-393 608h205l358 -575l359 575h196l-395 -608h313v-162h-323l440 -692h-209l-387 635l-393 -635h-197z" />
<glyph unicode="&#x4ff;" horiz-adv-x="1083" d="M37 0l352 496h-274v139h268l-328 463h205l283 -414l280 414h203l-330 -463h275v-139h-279l355 -496h-205l-299 438l-303 -438h-203z" />
<glyph unicode="&#x2000;" horiz-adv-x="1024" />
<glyph unicode="&#x2001;" horiz-adv-x="2048" />
<glyph unicode="&#x2002;" horiz-adv-x="1024" />
<glyph unicode="&#x2003;" horiz-adv-x="2048" />
<glyph unicode="&#x2004;" horiz-adv-x="682" />
<glyph unicode="&#x2005;" horiz-adv-x="512" />
<glyph unicode="&#x2006;" horiz-adv-x="342" />
<glyph unicode="&#x2007;" horiz-adv-x="1145" />
<glyph unicode="&#x2008;" horiz-adv-x="549" />
<glyph unicode="&#x2009;" horiz-adv-x="410" />
<glyph unicode="&#x200a;" horiz-adv-x="205" />
<glyph unicode="&#x200b;" horiz-adv-x="0" />
<glyph unicode="&#x200c;" horiz-adv-x="0" d="M-43 -272v1558h86v-1558h-86z" />
<glyph unicode="&#x200d;" horiz-adv-x="0" d="M-223 1024l168 168l-168 166l53 55l170 -170l170 170l53 -55l-168 -166l168 -168l-53 -55l-127 127v-1368h-86v1368l-127 -127z" />
<glyph unicode="&#x200e;" horiz-adv-x="0" d="M-41 -272v1505h330l-131 125l55 55l221 -219l-221 -219l-55 53l131 125h-248v-1425h-82z" />
<glyph unicode="&#x200f;" horiz-adv-x="0" d="M-436 1194l223 219l55 -55l-133 -125h332v-1505h-84v1425h-248l133 -125l-55 -53z" />
<glyph unicode="&#x2010;" horiz-adv-x="659" d="M82 469v160h496v-160h-496z" />
<glyph unicode="&#x2011;" horiz-adv-x="659" d="M82 469v160h496v-160h-496z" />
<glyph unicode="&#x2012;" d="M82 657v150h1008v-150h-1008z" />
<glyph unicode="&#x2013;" horiz-adv-x="1024" d="M82 469v160h860v-160h-860z" />
<glyph unicode="&#x2014;" horiz-adv-x="2048" d="M82 469v160h1884v-160h-1884z" />
<glyph unicode="&#x2015;" horiz-adv-x="2048" d="M82 469v160h1884v-160h-1884z" />
<glyph unicode="&#x2016;" horiz-adv-x="1128" d="M265 -494v2050h150v-2050h-150zM714 -494v2050h150v-2050h-150z" />
<glyph unicode="&#x2017;" horiz-adv-x="842" d="M-4 -53h850v-131h-850v131zM-4 -324h850v-131h-850v131z" />
<glyph unicode="&#x2018;" horiz-adv-x="358" d="M25 983q22 90 71 224t105 255h133q-66 -254 -103 -501h-194z" />
<glyph unicode="&#x2019;" horiz-adv-x="358" d="M25 961q70 285 102 501h192l15 -22q-52 -199 -176 -479h-133z" />
<glyph unicode="&#x201a;" horiz-adv-x="512" d="M63 -264q67 259 103 502h192l15 -23q-48 -186 -176 -479h-134z" />
<glyph unicode="&#x201b;" horiz-adv-x="358" d="M25 1440l14 22h194q37 -251 103 -501h-133q-45 94 -99.5 236t-78.5 243z" />
<glyph unicode="&#x201c;" horiz-adv-x="735" d="M25 983q20 83 71 224t105 255h131q-67 -265 -103 -501h-192zM399 983q27 106 80 244.5t99 234.5h133q-67 -265 -103 -501h-194z" />
<glyph unicode="&#x201d;" horiz-adv-x="735" d="M25 961q65 264 100 501h192l15 -22q-49 -194 -176 -479h-131zM399 961q26 100 59 254t46 247h192l15 -22q-49 -194 -176 -479h-136z" />
<glyph unicode="&#x201e;" horiz-adv-x="852" d="M27 -264q65 250 102 502h193l14 -23q-48 -186 -176 -479h-133zM403 -264q27 104 58 251t47 251h192l15 -23q-48 -186 -176 -479h-136z" />
<glyph unicode="&#x201f;" horiz-adv-x="735" d="M25 1440l12 22h192q36 -236 103 -501h-131q-54 114 -104.5 252t-71.5 227zM399 1440l15 22h194q36 -236 103 -501h-133q-45 94 -98 232t-81 247z" />
<glyph unicode="&#x2020;" horiz-adv-x="1049" d="M133 991v178l330 -30l-49 417h204l-51 -417l351 30v-178l-351 31l51 -1022h-204l49 1022z" />
<glyph unicode="&#x2021;" horiz-adv-x="1049" d="M123 350v174l344 -30l-43 292l43 277l-344 -31v174l344 -30l-49 380h207l-50 -380l351 30v-174l-351 31l43 -277l-43 -292l351 30v-174l-351 29l50 -379h-207l49 379z" />
<glyph unicode="&#x2022;" horiz-adv-x="770" d="M158 748q0 122 58 187.5t169 65.5q110 0 168.5 -65.5t58.5 -187.5t-59.5 -188t-167.5 -66q-110 0 -168.5 66.5t-58.5 187.5z" />
<glyph unicode="&#x2026;" horiz-adv-x="1620" d="M147 111q0 66 32.5 101.5t92.5 35.5q61 0 95 -35.5t34 -101.5q0 -65 -34 -102.5t-95 -37.5q-59 0 -92 37t-33 103zM684 111q0 137 125 137q60 0 93.5 -34.5t33.5 -102.5q0 -67 -34 -103.5t-93 -36.5q-54 0 -89.5 33t-35.5 107zM1219 111q0 69 33 103t91 34 q61 0 95.5 -34.5t34.5 -102.5t-35 -104t-95 -36q-52 0 -88 33t-36 107z" />
<glyph unicode="&#x202a;" horiz-adv-x="0" d="M-41 -272v1505h475v-80h-391v-1425h-84z" />
<glyph unicode="&#x202b;" horiz-adv-x="0" d="M-434 1153v80h475v-1505h-84v1425h-391z" />
<glyph unicode="&#x202c;" horiz-adv-x="0" d="M-238 977v434h476v-434h-195v-1249h-86v1249h-195z" />
<glyph unicode="&#x202d;" horiz-adv-x="0" d="M-238 977v434h476v-80h-396v-276h396v-78h-195v-1249h-86v1249h-195z" />
<glyph unicode="&#x202e;" horiz-adv-x="0" d="M-238 977v78h396v276h-396v80h476v-434h-195v-1249h-86v1249h-195z" />
<glyph unicode="&#x202f;" horiz-adv-x="410" />
<glyph unicode="&#x2030;" horiz-adv-x="2410" d="M100 1026q0 229 76.5 343t222.5 114q147 0 227.5 -118.5t80.5 -338.5q0 -228 -78.5 -344.5t-229.5 -116.5q-142 0 -220.5 119.5t-78.5 341.5zM250 1026q0 -165 35.5 -248.5t113.5 -83.5q158 0 158 332q0 330 -158 330q-78 0 -113.5 -82.5t-35.5 -247.5zM367 0l811 1462 h157l-811 -1462h-157zM995 440q0 229 76 343t223 114t227.5 -118.5t80.5 -338.5q0 -227 -79 -343.5t-229 -116.5q-142 0 -220.5 119.5t-78.5 340.5zM1145 440q0 -167 35.5 -249t113.5 -82q81 0 119.5 81.5t38.5 249.5q0 328 -158 328q-78 0 -113.5 -81.5t-35.5 -246.5z M1704 440q0 229 76 343t223 114q146 0 226.5 -118.5t80.5 -338.5q0 -226 -77.5 -343t-229.5 -117q-144 0 -221.5 120t-77.5 340zM1853 440q0 -167 35.5 -249t114.5 -82q158 0 158 331q0 328 -158 328q-79 0 -114.5 -81.5t-35.5 -246.5z" />
<glyph unicode="&#x2032;" horiz-adv-x="461" d="M133 1462h195l-41 -528h-113z" />
<glyph unicode="&#x2033;" horiz-adv-x="836" d="M133 1462h195l-41 -528h-113zM508 1462h194l-40 -528h-113z" />
<glyph unicode="&#x2034;" horiz-adv-x="1210" d="M133 1462h195l-41 -528h-113zM508 1462h194l-40 -528h-113zM883 1462h195l-41 -528h-113z" />
<glyph unicode="&#x2039;" horiz-adv-x="635" d="M82 526v27l344 412l129 -74l-287 -350l287 -351l-129 -75z" />
<glyph unicode="&#x203a;" horiz-adv-x="635" d="M80 190l287 351l-287 350l127 74l346 -412v-27l-346 -411z" />
<glyph unicode="&#x203c;" horiz-adv-x="1022" d="M147 111q0 66 32.5 101.5t94.5 35.5t94.5 -36.5t32.5 -100.5t-33.5 -102t-93.5 -38q-61 0 -94 37t-33 103zM166 1462h219l-51 -1050h-117zM618 111q0 66 32.5 101.5t94.5 35.5t94.5 -36.5t32.5 -100.5t-33.5 -102t-93.5 -38q-61 0 -94 37t-33 103zM637 1462h219 l-51 -1050h-117z" />
<glyph unicode="&#x203e;" horiz-adv-x="1024" d="M-6 1556v136h1036v-136h-1036z" />
<glyph unicode="&#x2044;" horiz-adv-x="266" d="M-391 0l893 1462h153l-893 -1462h-153z" />
<glyph unicode="&#x205e;" horiz-adv-x="549" d="M147 111q0 66 32 102.5t95 36.5q61 0 94 -36t33 -103t-34 -103.5t-93 -36.5q-61 0 -94 37t-33 103zM147 522q0 68 32.5 104t94.5 36q61 0 94 -36t33 -104q0 -66 -34 -102.5t-93 -36.5q-61 0 -94 37t-33 102zM147 934q0 66 32 102.5t95 36.5q61 0 94 -36t33 -103 q0 -66 -34 -102.5t-93 -36.5q-61 0 -94 37t-33 102zM147 1346q0 66 32 102.5t95 36.5q61 0 94 -36t33 -103t-34 -103.5t-93 -36.5q-61 0 -94 37t-33 103z" />
<glyph unicode="&#x205f;" horiz-adv-x="529" />
<glyph unicode="&#x206a;" horiz-adv-x="0" d="M-238 977v78h195v276h-195v80h476v-80h-195v-276h195v-78h-195v-1249h-86v1249h-195z" />
<glyph unicode="&#x206b;" horiz-adv-x="0" d="M-238 977v434h476v-434h-195v-1249h-86v1249h-195zM-158 1055h316v276h-316v-276z" />
<glyph unicode="&#x206c;" horiz-adv-x="0" d="M-240 1411h480l-197 -367v-1316h-86v1316z" />
<glyph unicode="&#x206d;" horiz-adv-x="0" d="M-240 977l240 440l240 -440h-197v-1249h-86v1249h-197z" />
<glyph unicode="&#x206e;" horiz-adv-x="0" d="M-240 1194l240 219l240 -219l-197 -182v-1284h-86v1284zM-127 1194l127 -113l127 113l-127 113z" />
<glyph unicode="&#x206f;" horiz-adv-x="0" d="M-238 977v78h195v276h-195v80h281v-356h195v-78h-195v-1249h-86v1249h-195z" />
<glyph unicode="&#x20a0;" d="M74 963q0 239 115.5 379.5t316.5 140.5q159 0 285 -64l-66 -131q-111 58 -213 58q-122 0 -191 -103.5t-69 -281.5q0 -180 70 -271.5t206 -91.5h29v420h537v-135h-369v-285h342v-135h-342v-326h369v-137h-537v463h-39q-221 0 -332.5 129t-111.5 371z" />
<glyph unicode="&#x20a1;" d="M100 725q0 252 122 421.5t347 221.5l39 186h129l-35 -170l23 2h25q72 0 118 -8l37 176h129l-41 -200q70 -23 135 -54l-71 -147q-59 28 -96 41l-199 -979q133 0 309 57v-151q-81 -33 -157.5 -46.5t-182.5 -13.5l-37 -180h-129l39 187q-89 12 -160 43l-47 -230h-129l60 293 q-228 169 -228 551zM281 723q0 -205 90 -334l161 797q-120 -57 -185.5 -176t-65.5 -287zM479 285q68 -44 156 -60l203 1002q-41 6 -84 6q-45 0 -84 -6z" />
<glyph unicode="&#x20a2;" d="M115 733q0 348 160 549t442 201q217 0 383 -86l-74 -148q-59 31 -134 55.5t-173 24.5q-193 0 -308.5 -161.5t-115.5 -436.5q0 -222 70 -373t196 -202v737h146l10 -113q95 127 241 127q59 0 121 -12l-20 -154q-66 17 -109 17q-93 0 -156 -73t-63 -181v-371q74 1 145 13 t166 44v-151q-86 -35 -162.5 -47t-174.5 -12q-288 0 -439 194.5t-151 558.5z" />
<glyph unicode="&#x20a3;" d="M92 266v133h174v1063h793v-162h-615v-514h576v-161h-576v-226h310v-133h-310v-266h-178v266h-174z" />
<glyph unicode="&#x20a4;" d="M68 0v152q204 43 204 315h-198v135h198v160h-198v133h198v135q0 451 416 451q198 0 363 -80l-64 -141q-150 69 -297 69q-237 0 -237 -254v-180h413v-133h-413v-160h413v-135h-415q0 -113 -31.5 -185.5t-108.5 -117.5h787v-164h-1030z" />
<glyph unicode="&#x20a5;" horiz-adv-x="1915" d="M174 0v1098h145l27 -150h10q47 80 132.5 125t191.5 45q236 0 321 -155l189 401h143l-131 -279q82 33 176 33q186 0 278.5 -96t92.5 -307v-715h-178v707q0 260 -223 260q-153 0 -225 -89t-72 -272v-606h-179v373l-278 -598h-143l421 907v25q0 130 -54.5 195t-170.5 65 q-152 0 -222.5 -93t-70.5 -305v-569h-180z" />
<glyph unicode="&#x20a6;" d="M20 526v131h160v168h-160v131h160v506h213q9 -15 35 -82t160 -424h241v506h162v-506h160v-131h-160v-168h160v-131h-160v-526h-215l-194 526h-242v-526h-160v526h-160zM324 1204q9 -147 12 -248h86l-90 248h-8zM340 657h192l-61 168h-131v-168zM635 825l61 -168h133v168 h-194zM745 526q71 -191 91 -223h8l-13 223h-86z" />
<glyph unicode="&#x20a7;" horiz-adv-x="1589" d="M156 0v1462h274q514 0 514 -430q0 -228 -139.5 -345.5t-407.5 -117.5h-63v-569h-178zM334 727h53q194 0 284.5 70.5t90.5 226.5q0 142 -83.5 211.5t-260.5 69.5h-84v-578zM938 709v82l160 73l63 195h105v-213h225v-137h-225v-426q0 -76 26.5 -117t89.5 -41q37 0 77.5 7 t58.5 13v-133q-67 -32 -179 -32q-118 0 -180.5 71.5t-62.5 208.5v449h-158z" />
<glyph unicode="&#x20a8;" horiz-adv-x="1706" d="M170 0v1462h299q224 0 332 -103.5t108 -311.5q0 -143 -55 -242.5t-162 -149.5l289 -655h-195l-256 604h-186v-604h-174zM344 760h135q135 0 192.5 70t57.5 208q0 143 -62 206t-192 63h-131v-547zM1008 45v166q53 -37 129 -61.5t133 -24.5q180 0 180 162q0 61 -35.5 102 t-146.5 105q-108 60 -155 105t-70 100t-23 128q0 132 89 211.5t237 79.5q87 0 152 -22t124 -56l-66 -137q-57 32 -107.5 50t-107.5 18q-71 0 -110 -36.5t-39 -96.5q0 -59 36.5 -100t149.5 -105q106 -59 153 -104t70 -99.5t23 -128.5q0 -155 -90.5 -238t-263.5 -83 q-168 0 -262 65z" />
<glyph unicode="&#x20a9;" horiz-adv-x="1372" d="M20 526v131h156l-29 168h-127v131h105l-88 506h164l80 -506h219l94 506h188l97 -506h219l76 506h161l-84 -506h101v-131h-123l-27 -168h150v-131h-172l-86 -526h-185l-98 526h-244l-92 -526h-182l-92 526h-181zM303 825l27 -168h114l31 168h-172zM350 526 q32 -187 39 -305q1 30 10 123.5t23 181.5h-72zM592 657h194l-30 168h-135zM643 956h88q-31 162 -41 314q-13 -131 -47 -314zM903 825l33 -168h119l24 168h-176zM961 526q34 -219 40 -313q5 99 33 313h-73z" />
<glyph unicode="&#x20ab;" horiz-adv-x="1264" d="M113 543q0 271 117.5 420t332.5 149q223 0 342 -162h13q-3 14 -8 69t-5 95v125h-436v135h436v182h180v-182h156v-135h-156v-1239h-147l-27 147h-8q-115 -167 -340 -167q-214 0 -332 147t-118 416zM178 -184h917v-131h-917v131zM301 541q0 -197 72 -304.5t221 -107.5 q163 0 238 88.5t75 290.5v35q0 230 -76 325t-241 95q-140 0 -214.5 -107t-74.5 -315z" />
<glyph unicode="&#x20ac;" d="M47 504v133h148l-2 42v42l2 78h-148v133h162q40 264 188 406.5t381 142.5q205 0 367 -95l-76 -147q-162 84 -291 84q-312 0 -387 -391h500v-133h-514l-2 -56v-62l2 -44h452v-133h-436q35 -174 134.5 -269.5t267.5 -95.5q152 0 305 66v-160q-146 -65 -316 -65 q-236 0 -381.5 133.5t-191.5 390.5h-164z" />
<glyph unicode="&#x20ad;" d="M31 684v135h178v643h174v-643h53l512 643h201l-514 -633l6 -10h410v-135h-324l444 -684h-206l-426 684h-41l-115 -127v-557h-174v684h-178z" />
<glyph unicode="&#x20ae;" d="M39 1300v162h1096v-162h-455v-335l240 165l73 -108l-313 -215v-207l240 166l73 -109l-313 -215v-442h-184v336l-240 -164l-74 109l314 215v204l-240 -163l-74 108l314 215v440h-457z" />
<glyph unicode="&#x20af;" horiz-adv-x="1987" d="M49 1401q76 37 190 59.5t228 22.5q202 0 356 -77t237 -220.5t83 -333.5q0 -251 -102 -446t-288.5 -300.5t-424.5 -105.5h-234l252 1184h176l-219 -1028h19q194 0 338.5 87t221 247t76.5 368q0 214 -131.5 341.5t-357.5 127.5q-86 0 -185 -19t-173 -53zM1034 -492l168 805 q37 179 137.5 273t253.5 94t236.5 -77.5t83.5 -217.5q0 -111 -50.5 -204t-143 -147t-216.5 -54q-53 0 -103.5 20.5t-76.5 48.5h-8q-16 -94 -26.5 -157t-82.5 -384h-172zM1356 211q40 -88 151 -88q99 0 164.5 73t65.5 187q0 72 -37 113t-107 41q-83 0 -136 -52t-79 -168z" />
<glyph unicode="&#x20b0;" d="M25 0l294 543l164 -299l174 301q-80 165 -122.5 321.5t-42.5 276.5q0 164 75 253t209 89q129 0 203 -78.5t74 -218.5q0 -132 -59 -298.5t-167 -338.5q131 -300 180.5 -459.5t49.5 -265.5q0 -148 -81.5 -233t-225.5 -85q-72 0 -154 21v154q82 -33 154 -33q61 0 101 44.5 t40 131.5q0 165 -168 559l-234 -410l-170 275l-126 -250h-168zM657 1147q0 -82 29.5 -211.5t75.5 -224.5q125 244 125 460q0 172 -113 172q-117 0 -117 -196z" />
<glyph unicode="&#x20b1;" d="M20 768v111h179v182h-179v110h179v291h319q394 0 479 -291h154v-110h-133l4 -74q0 -39 -8 -108h137v-111h-166q-55 -145 -183 -218t-319 -73h-114v-477h-170v768h-179zM369 629h104q121 0 200.5 32.5t121.5 106.5h-426v-139zM369 879h465q8 61 8 100q0 41 -6 82h-467 v-182zM369 1171h432q-74 140 -289 140h-143v-140z" />
<glyph unicode="&#x20b2;" horiz-adv-x="1491" d="M125 731q0 319 169 514.5t470 229.5v79h131v-71q223 -4 424 -86l-70 -160q-182 79 -354 84v-549h444v-717q-206 -67 -444 -73v-146h-131v146q-306 18 -472.5 214t-166.5 535zM317 731q0 -262 113.5 -410.5t333.5 -175.5v1168q-212 -32 -329.5 -185.5t-117.5 -396.5z M895 139q142 3 260 35v434h-260v-469z" />
<glyph unicode="&#x20b3;" horiz-adv-x="1245" d="M0 0l174 485h-154v131h201l60 168h-261v131h308l196 547h193l196 -547h312v-131h-264l61 -168h203v-131h-156l174 -485h-194l-170 485h-517l-167 -485h-195zM410 616h421l-59 168h-305zM512 915h215l-2 7q-73 207 -107 340q-16 -79 -56 -201.5t-50 -145.5z" />
<glyph unicode="&#x20b4;" horiz-adv-x="1124" d="M20 526v131h195q57 47 134.5 85t199.5 83h-529v131h762q54 57 54 152q0 101 -73.5 157t-203.5 56q-147 0 -315 -78l-58 158q175 82 369 82q209 0 338 -101t129 -272q0 -88 -25 -154h107v-131h-193q-90 -86 -266 -149l-51 -19h510v-131h-760q-63 -57 -63 -151 q0 -110 82.5 -173t246.5 -63q186 0 410 97v-177q-69 -34 -174 -56.5t-228 -22.5q-245 0 -383.5 110t-138.5 301q0 70 23 135h-99z" />
<glyph unicode="&#x20b5;" horiz-adv-x="1294" d="M125 733q0 320 161 517.5t447 226.5v77h131v-71q212 -10 367 -86l-74 -156q-155 70 -293 78v-1178q137 5 310 58v-160q-148 -54 -310 -57v-146h-131v146q-294 19 -451 214.5t-157 536.5zM319 731q0 -255 106.5 -406t307.5 -178v1168q-194 -30 -304 -184.5t-110 -399.5z " />
<glyph unicode="&#x20b9;" d="M162 676v90h45q174 0 256.5 50t95.5 167h-397v131h395q-22 114 -108.5 165.5t-241.5 51.5h-45v131h848v-131h-387q98 -78 116 -217h271v-131h-267q-29 -289 -376 -338l391 -645h-209z" />
<glyph unicode="&#x20ba;" d="M41 592v133l219 74v162l-219 -74v133l219 74v368h176v-307l422 145v-133l-422 -145v-162l422 146v-132l-422 -147v-600q245 0 371.5 147t126.5 443h176q0 -237 -81.5 -405t-230 -250t-354.5 -82q-116 0 -184 20v668z" />
<glyph unicode="&#x2122;" horiz-adv-x="1583" d="M35 1352v110h545v-110h-209v-611h-129v611h-207zM645 741v721h193l192 -555l199 555h186v-721h-131v418l6 137h-8l-207 -555h-108l-197 555h-8l6 -127v-428h-123z" />
<glyph unicode="&#x2202;" horiz-adv-x="1190" d="M98 375q0 170 68.5 324t185.5 233.5t269 79.5q89 0 159.5 -40.5t116.5 -109.5l4 76q-4 389 -274 389q-58 0 -128.5 -21t-129.5 -61v172q61 29 138 45.5t144 16.5q210 0 320 -137.5t110 -409.5q0 -263 -83.5 -491.5t-221.5 -344.5t-315 -116q-176 0 -269.5 101.5 t-93.5 293.5zM285 373q0 -116 48.5 -179t137.5 -63q142 0 251 157t144 390q-20 86 -82.5 140t-142.5 54q-99 0 -179 -65t-128.5 -188t-48.5 -246z" />
<glyph unicode="&#x2206;" horiz-adv-x="1190" d="M41 0v113l461 1349h184l463 -1351v-111h-1108zM238 162h708l-256 762q-67 201 -98 338q-51 -200 -94 -330z" />
<glyph unicode="&#x220f;" horiz-adv-x="1513" d="M197 -492v1954h1120v-1954h-184v1790h-752v-1790h-184z" />
<glyph unicode="&#x2211;" horiz-adv-x="1292" d="M72 -379l626 916l-610 811v114h1096v-162h-838l569 -759l-593 -871h927v-162h-1177v113z" />
<glyph unicode="&#x221a;" horiz-adv-x="1124" d="M37 764v143h293l231 -674l512 1461h146l-592 -1708h-133l-277 778h-180z" />
<glyph unicode="&#x221e;" horiz-adv-x="1444" d="M119 723q0 137 84.5 226t216.5 89q180 0 301 -215q124 211 307 211q132 0 214.5 -87t82.5 -228q0 -134 -84 -226t-213 -92q-185 0 -309 217q-125 -212 -299 -212q-136 0 -218.5 88t-82.5 229zM254 721q0 -81 47 -131.5t127 -50.5q63 0 117 43.5t106 140.5 q-49 94 -102.5 139t-122.5 45q-77 0 -124.5 -52.5t-47.5 -133.5zM793 719q49 -94 103 -139t122 -45q76 0 124 52t48 132q0 78 -47.5 131t-126.5 53q-63 0 -116.5 -44.5t-106.5 -139.5z" />
<glyph unicode="&#x222b;" horiz-adv-x="793" d="M10 -324q61 -24 123 -24q176 0 176 233v1307q0 364 330 364q83 0 129 -18v-149q-59 24 -115 24q-170 0 -170 -233v-1307q0 -180 -84 -272.5t-249 -92.5q-79 0 -140 21v147z" />
<glyph unicode="&#x2248;" d="M96 387v158q108 110 256 110q68 0 127 -15t142 -50q73 -31 120.5 -44.5t94.5 -13.5q53 0 115.5 33t119.5 90v-159q-105 -109 -256 -109q-67 0 -122.5 14.5t-143.5 51.5q-75 31 -121 43t-94 12q-54 0 -117.5 -32t-120.5 -89zM96 793v157q106 109 256 109q63 0 117 -12.5 t152 -53.5q65 -27 113.5 -41t101.5 -14q60 0 122 35t113 86v-158q-104 -110 -256 -110q-69 0 -128 16t-138 49q-89 37 -132.5 47t-82.5 10q-54 0 -118.5 -32.5t-119.5 -87.5z" />
<glyph unicode="&#x2260;" d="M102 444v146h340l121 262h-461v145h529l135 287l133 -61l-108 -226h274v-145h-340l-125 -262h465v-146h-533l-131 -282l-131 59l105 223h-273z" />
<glyph unicode="&#x2264;" d="M102 0v145h965v-145h-965zM102 668v102l965 481v-159l-772 -365l772 -324v-159z" />
<glyph unicode="&#x2265;" d="M102 0v145h965v-145h-965zM102 244v159l772 322l-772 367v159l965 -481v-102z" />
<glyph unicode="&#x25ca;" horiz-adv-x="1194" d="M106 735l451 738h78l450 -738l-450 -735h-78zM287 735l309 -520l311 520l-311 520z" />
<glyph unicode="&#x25fc;" horiz-adv-x="1100" d="M0 0v1100h1100v-1100h-1100z" />
<glyph unicode="&#xfb01;" horiz-adv-x="1233" d="M31 958v84l192 62v63q0 200 87.5 300t269.5 100q105 0 213 -37l-48 -141q-93 30 -163 30q-91 0 -135 -60t-44 -190v-71h277v-140h-277v-958h-180v958h-192zM865 1395q0 60 30.5 87t75.5 27q42 0 73.5 -27t31.5 -87q0 -59 -31.5 -87t-73.5 -28q-45 0 -75.5 28t-30.5 87z M879 0v1098h180v-1098h-180z" />
<glyph unicode="&#xfb02;" horiz-adv-x="1233" d="M31 958v84l192 62v63q0 200 87.5 300t269.5 100q105 0 213 -37l-48 -141q-93 30 -163 30q-91 0 -135 -60t-44 -190v-71h277v-140h-277v-958h-180v958h-192zM879 0v1556h180v-1556h-180z" />
</font>
</defs>
</svg>
